<svg width="508" height="92" viewBox="0 0 508 92" fill="none" xmlns="http://www.w3.org/2000/svg">
<path d="M45.608 9.15527e-05C20.46 9.15527e-05 0 20.4591 0 45.6071C0 70.7551 20.46 91.2151 45.608 91.2151C70.756 91.2151 91.215 70.7551 91.215 45.6071C91.215 20.4591 70.756 9.15527e-05 45.608 9.15527e-05Z" fill="#21B7EA"/>
<path d="M63.1759 39.5723C63.1759 39.6993 63.1489 39.8213 63.0949 39.9373C62.6049 40.9923 59.5399 45.9773 45.4599 45.9773C31.3219 45.9773 28.5489 40.9563 28.1289 39.9263C28.0849 39.8193 28.0629 39.7093 28.0629 39.5943V23.2743C28.0629 22.7983 28.4489 22.4113 28.9259 22.4113H62.3129C62.7899 22.4113 63.1759 22.7983 63.1759 23.2743V39.5723ZM57.6529 54.7653C55.6879 54.7653 54.0949 53.1723 54.0949 51.2073C54.0949 49.2423 55.6879 47.6503 57.6529 47.6503C59.6179 47.6503 61.2109 49.2423 61.2109 51.2073C61.2109 53.1723 59.6179 54.7653 57.6529 54.7653ZM55.8569 60.7233C53.1189 63.4613 49.4789 64.9683 45.6079 64.9683C41.7369 64.9683 38.0969 63.4613 35.3599 60.7233C34.9359 60.3003 34.9359 59.6143 35.3599 59.1923C35.7819 58.7683 36.4679 58.7683 36.8909 59.1923C41.6979 63.9973 49.5179 63.9973 54.3239 59.1923C54.7469 58.7683 55.4339 58.7683 55.8569 59.1923C56.2799 59.6143 56.2799 60.3003 55.8569 60.7233ZM30.0049 51.2073C30.0049 49.2423 31.5979 47.6503 33.5629 47.6503C35.5279 47.6503 37.1199 49.2423 37.1199 51.2073C37.1199 53.1723 35.5279 54.7653 33.5629 54.7653C31.5979 54.7653 30.0049 53.1723 30.0049 51.2073ZM70.6149 31.2513C70.1389 31.2513 69.7529 30.8643 69.7529 30.3883V27.9373C69.7529 27.4613 69.3659 27.0743 68.8899 27.0743H67.3159C66.8399 27.0743 66.4529 26.6883 66.4529 26.2123V25.6513C66.4529 21.0793 62.7479 17.3743 58.1769 17.3743H32.6559C28.3119 17.3743 24.7849 20.9023 24.7849 25.2533V26.2123C24.7849 26.6883 24.3989 27.0743 23.9229 27.0743H22.3259C21.8499 27.0743 21.4639 27.4613 21.4639 27.9373V30.3883C21.4639 30.8643 21.0769 31.2513 20.6009 31.2513C20.1239 31.2513 19.7379 31.6373 19.7379 32.1143V40.0523C19.7379 40.5293 20.1239 40.9153 20.6009 40.9153H22.9769C23.4529 40.9153 23.8399 40.5293 23.8399 40.0523V32.1143C23.8399 31.6373 23.4529 31.2513 22.9769 31.2513C22.5009 31.2513 22.1139 30.8643 22.1139 30.3883V28.5943C22.1139 28.1183 22.5009 27.7323 22.9769 27.7323H23.9229C24.3989 27.7323 24.7849 28.1183 24.7849 28.5943V62.3333C24.7849 65.1923 26.3179 67.6973 28.6039 69.0773H28.6049V71.4893C28.6049 72.7883 29.6569 73.8403 30.9549 73.8403H35.0909C36.3879 73.8403 37.4409 72.7883 37.4409 71.4903V70.2053H54.2469V71.4903C54.2469 72.7883 55.2989 73.8403 56.5969 73.8403H60.7329C62.0309 73.8403 63.0839 72.7883 63.0839 71.4903V69.2163C63.0839 68.9453 63.2169 68.6963 63.4309 68.5283C65.2709 67.0893 66.4529 64.8463 66.4529 62.3273V28.5943C66.4529 28.1183 66.8399 27.7323 67.3159 27.7323H68.2389C68.7159 27.7323 69.1019 28.1183 69.1019 28.5943V30.3883C69.1019 30.8643 68.7159 31.2513 68.2389 31.2513C67.7619 31.2513 67.3759 31.6373 67.3759 32.1143V40.0523C67.3759 40.5293 67.7619 40.9153 68.2389 40.9153H70.6149C71.0919 40.9153 71.4779 40.5293 71.4779 40.0523V32.1143C71.4779 31.6373 71.0919 31.2513 70.6149 31.2513Z" fill="white"/>
<path d="M134.557 16.3335V25.2085H120.98V64.5835H109.787V25.2085H96.2087V16.3335H134.557Z" fill="white"/>
<path d="M143.499 30.243V52.032C143.499 53.733 143.885 55.046 144.659 55.973C145.431 56.901 146.567 57.365 148.069 57.365C149.195 57.365 150.249 57.132 151.231 56.668C152.214 56.205 153.169 55.555 154.096 54.715V30.243H164.362V64.583H158.004C156.723 64.583 155.885 64.01 155.487 62.861L154.858 60.874C154.196 61.515 153.511 62.094 152.805 62.613C152.098 63.131 151.342 63.573 150.537 63.937C149.73 64.302 148.864 64.589 147.937 64.798C147.01 65.007 145.994 65.114 144.89 65.114C143.013 65.114 141.352 64.786 139.906 64.136C138.46 63.486 137.241 62.574 136.247 61.405C135.254 60.234 134.503 58.854 133.995 57.264C133.487 55.675 133.233 53.931 133.233 52.032V30.243H143.499Z" fill="white"/>
<path d="M172.309 64.5835V30.2435H178.402C178.91 30.2435 179.335 30.2875 179.677 30.3755C180.019 30.4635 180.307 30.6015 180.538 30.7895C180.77 30.9775 180.946 31.2245 181.068 31.5345C181.189 31.8435 181.294 32.2175 181.383 32.6595L181.945 35.8725C183.204 33.9295 184.617 32.3955 186.184 31.2695C187.751 30.1425 189.463 29.5795 191.317 29.5795C192.884 29.5795 194.143 29.9565 195.093 30.7065L193.767 38.2565C193.68 38.7195 193.502 39.0465 193.238 39.2325C192.973 39.4205 192.62 39.5155 192.178 39.5155C191.803 39.5155 191.362 39.4655 190.853 39.3665C190.346 39.2665 189.705 39.2175 188.933 39.2175C186.239 39.2175 184.12 40.6515 182.574 43.5225V64.5835H172.309Z" fill="white"/>
<path d="M210.259 64.583H199.993V30.243H210.259V64.583ZM211.45 20.837C211.45 21.654 211.285 22.422 210.954 23.139C210.623 23.857 210.17 24.486 209.596 25.026C209.022 25.568 208.354 25.998 207.593 26.318C206.831 26.639 206.019 26.798 205.158 26.798C204.319 26.798 203.536 26.639 202.807 26.318C202.078 25.998 201.433 25.568 200.87 25.026C200.307 24.486 199.865 23.857 199.545 23.139C199.225 22.422 199.065 21.654 199.065 20.837C199.065 19.999 199.225 19.215 199.545 18.486C199.865 17.758 200.307 17.117 200.87 16.565C201.433 16.014 202.078 15.584 202.807 15.274C203.536 14.965 204.319 14.81 205.158 14.81C206.019 14.81 206.831 14.965 207.593 15.274C208.354 15.584 209.022 16.014 209.596 16.565C210.17 17.117 210.623 17.758 210.954 18.486C211.285 19.215 211.45 19.999 211.45 20.837Z" fill="white"/>
<path d="M239.532 37.7598C239.267 38.1798 238.986 38.4778 238.688 38.6538C238.39 38.8298 238.009 38.9188 237.545 38.9188C237.059 38.9188 236.574 38.8148 236.088 38.6038C235.602 38.3948 235.078 38.1678 234.515 37.9248C233.952 37.6818 233.318 37.4558 232.611 37.2468C231.905 37.0378 231.098 36.9318 230.193 36.9318C228.89 36.9318 227.892 37.1808 227.197 37.6768C226.501 38.1738 226.153 38.8638 226.153 39.7458C226.153 40.3868 226.38 40.9168 226.833 41.3368C227.285 41.7558 227.886 42.1268 228.637 42.4458C229.387 42.7658 230.238 43.0698 231.187 43.3558C232.136 43.6428 233.108 43.9638 234.101 44.3168C235.095 44.6708 236.066 45.0848 237.015 45.5588C237.964 46.0328 238.815 46.6178 239.565 47.3128C240.315 48.0098 240.917 48.8528 241.37 49.8458C241.822 50.8398 242.049 52.0318 242.049 53.4238C242.049 55.1238 241.74 56.6908 241.121 58.1258C240.503 59.5618 239.582 60.7978 238.356 61.8348C237.131 62.8728 235.619 63.6788 233.82 64.2528C232.02 64.8258 229.95 65.1138 227.611 65.1138C226.44 65.1138 225.27 65.0018 224.1 64.7828C222.929 64.5618 221.799 64.2638 220.706 63.8878C219.613 63.5128 218.603 63.0658 217.676 62.5478C216.748 62.0278 215.954 61.4698 215.292 60.8748L217.676 57.0998C217.962 56.6588 218.305 56.3098 218.702 56.0558C219.099 55.8018 219.618 55.6758 220.259 55.6758C220.855 55.6758 221.39 55.8078 221.865 56.0718C222.34 56.3378 222.853 56.6258 223.405 56.9328C223.956 57.2428 224.602 57.5298 225.342 57.7948C226.082 58.0598 227.014 58.1918 228.14 58.1918C228.935 58.1918 229.609 58.1088 230.16 57.9438C230.712 57.7778 231.154 57.5518 231.485 57.2638C231.816 56.9778 232.059 56.6588 232.214 56.3038C232.368 55.9518 232.446 55.5878 232.446 55.2128C232.446 54.5268 232.214 53.9648 231.75 53.5228C231.287 53.0818 230.679 52.6998 229.929 52.3808C229.178 52.0608 228.323 51.7628 227.362 51.4858C226.402 51.2118 225.425 50.8958 224.431 50.5418C223.438 50.1888 222.461 49.7628 221.501 49.2678C220.54 48.7698 219.684 48.1408 218.934 47.3808C218.184 46.6178 217.577 45.6868 217.113 44.5818C216.65 43.4778 216.417 42.1418 216.417 40.5738C216.417 39.1168 216.699 37.7328 217.262 36.4188C217.825 35.1058 218.67 33.9518 219.795 32.9578C220.921 31.9648 222.334 31.1768 224.034 30.5898C225.734 30.0058 227.721 29.7128 229.995 29.7128C231.231 29.7128 232.429 29.8228 233.588 30.0438C234.747 30.2648 235.834 30.5738 236.85 30.9708C237.865 31.3678 238.792 31.8378 239.632 32.3788C240.47 32.9198 241.21 33.5108 241.85 34.1498L239.532 37.7598Z" fill="white"/>
<path d="M247.678 64.5835V30.2435H254.036C254.676 30.2435 255.212 30.3865 255.642 30.6725C256.073 30.9595 256.375 31.3915 256.553 31.9645L257.116 33.8185C257.69 33.2225 258.285 32.6765 258.905 32.1795C259.522 31.6835 260.19 31.2515 260.908 30.8885C261.625 30.5235 262.398 30.2375 263.226 30.0265C264.053 29.8175 264.964 29.7125 265.957 29.7125C268.033 29.7125 269.749 30.2495 271.108 31.3195C272.465 32.3895 273.497 33.8185 274.203 35.6075C274.777 34.5485 275.478 33.6425 276.306 32.8915C277.134 32.1425 278.029 31.5345 278.989 31.0695C279.949 30.6065 280.963 30.2645 282.035 30.0435C283.106 29.8235 284.171 29.7125 285.232 29.7125C287.195 29.7125 288.94 30.0055 290.463 30.5895C291.986 31.1765 293.261 32.0255 294.287 33.1395C295.315 34.2555 296.093 35.6245 296.623 37.2465C297.152 38.8695 297.417 40.7075 297.417 42.7595V64.5835H287.152V42.7595C287.152 39.2055 285.628 37.4285 282.581 37.4285C281.19 37.4285 280.036 37.8875 279.12 38.8035C278.204 39.7185 277.746 41.0385 277.746 42.7595V64.5835H267.481V42.7595C267.481 40.7945 267.095 39.4155 266.323 38.6215C265.549 37.8255 264.412 37.4285 262.911 37.4285C261.984 37.4285 261.107 37.6385 260.279 38.0575C259.45 38.4775 258.672 39.0415 257.944 39.7465V64.5835H247.678Z" fill="white"/>
<path d="M320.002 57.4965C322.364 57.4965 324.103 56.6635 325.218 54.9955C326.332 53.3295 326.89 50.7965 326.89 47.3955C326.89 43.9965 326.332 41.4685 325.218 39.8135C324.103 38.1565 322.364 37.3295 320.002 37.3295C317.573 37.3295 315.796 38.1565 314.67 39.8135C313.545 41.4685 312.981 43.9965 312.981 47.3955C312.981 50.7965 313.545 53.3295 314.67 54.9955C315.796 56.6635 317.573 57.4965 320.002 57.4965ZM320.002 29.7125C322.606 29.7125 324.981 30.1215 327.122 30.9375C329.263 31.7545 331.101 32.9245 332.635 34.4475C334.17 35.9715 335.362 37.8215 336.212 39.9955C337.062 42.1695 337.487 44.6145 337.487 47.3305C337.487 50.0665 337.062 52.5355 336.212 54.7315C335.362 56.9295 334.17 58.7935 332.635 60.3285C331.101 61.8635 329.263 63.0445 327.122 63.8715C324.981 64.6995 322.606 65.1135 320.002 65.1135C317.374 65.1135 314.985 64.6995 312.832 63.8715C310.68 63.0445 308.825 61.8635 307.269 60.3285C305.713 58.7935 304.509 56.9295 303.659 54.7315C302.81 52.5355 302.385 50.0665 302.385 47.3305C302.385 44.6145 302.81 42.1695 303.659 39.9955C304.509 37.8215 305.713 35.9715 307.269 34.4475C308.825 32.9245 310.68 31.7545 312.832 30.9375C314.985 30.1215 317.374 29.7125 320.002 29.7125Z" fill="white"/>
<path d="M368.521 55.642H386.403V64.583H357.329V16.333H368.521V55.642Z" fill="#21B7EA"/>
<path d="M405.28 36.7998C403.315 36.7998 401.781 37.3568 400.677 38.4718C399.574 39.5868 398.844 41.1938 398.492 43.2898H411.308C411.308 42.4728 411.204 41.6788 410.993 40.9048C410.784 40.1328 410.441 39.4438 409.967 38.8358C409.492 38.2288 408.868 37.7378 408.095 37.3628C407.323 36.9868 406.384 36.7998 405.28 36.7998ZM405.083 29.7128C407.355 29.7128 409.436 30.0658 411.324 30.7718C413.213 31.4788 414.835 32.5058 416.192 33.8518C417.551 35.1988 418.61 36.8478 419.371 38.8028C420.134 40.7568 420.514 42.9708 420.514 45.4428C420.514 46.2158 420.481 46.8438 420.414 47.3308C420.348 47.8158 420.226 48.2028 420.051 48.4898C419.874 48.7758 419.635 48.9748 419.338 49.0858C419.04 49.1958 418.66 49.2508 418.196 49.2508H398.393C398.724 52.1208 399.595 54.2018 401.009 55.4928C402.422 56.7848 404.243 57.4308 406.472 57.4308C407.665 57.4308 408.691 57.2878 409.552 56.9998C410.414 56.7128 411.18 56.3928 411.854 56.0398C412.528 55.6868 413.145 55.3668 413.709 55.0788C414.272 54.7928 414.862 54.6488 415.48 54.6488C416.297 54.6488 416.916 54.9468 417.335 55.5438L420.315 59.2188C419.257 60.4328 418.112 61.4208 416.887 62.1828C415.662 62.9438 414.404 63.5408 413.112 63.9708C411.821 64.4008 410.53 64.6998 409.239 64.8638C407.946 65.0308 406.715 65.1138 405.546 65.1138C403.139 65.1138 400.883 64.7208 398.774 63.9368C396.665 63.1548 394.821 61.9898 393.244 60.4448C391.665 58.8978 390.418 56.9778 389.502 54.6818C388.585 52.3858 388.128 49.7148 388.128 46.6688C388.128 44.3718 388.518 42.1968 389.302 40.1448C390.087 38.0908 391.212 36.2928 392.68 34.7458C394.148 33.2008 395.925 31.9758 398.011 31.0698C400.098 30.1658 402.454 29.7128 405.083 29.7128Z" fill="#21B7EA"/>
<path d="M438.527 45.6073C440.227 45.6073 441.458 45.1833 442.22 44.3333C442.981 43.4833 443.362 42.3843 443.362 41.0383C443.362 39.6473 442.981 38.5553 442.22 37.7593C441.458 36.9643 440.227 36.5673 438.527 36.5673C436.828 36.5673 435.596 36.9643 434.836 37.7593C434.073 38.5553 433.693 39.6473 433.693 41.0383C433.693 41.7003 433.787 42.3083 433.974 42.8583C434.162 43.4123 434.454 43.8923 434.851 44.3003C435.25 44.7093 435.752 45.0283 436.359 45.2603C436.965 45.4923 437.689 45.6073 438.527 45.6073ZM446.144 65.7673C446.144 65.2023 445.972 64.7523 445.631 64.4143C445.289 64.0753 444.824 63.8053 444.24 63.6023C443.655 63.3993 442.969 63.2523 442.187 63.1633C441.403 63.0723 440.558 63.0263 439.654 63.0263H436.839C435.867 63.0263 434.907 62.9343 433.957 62.7463C433.316 63.1893 432.794 63.6803 432.384 64.2223C431.976 64.7653 431.771 65.3783 431.771 66.0653C431.771 66.5523 431.876 66.9953 432.087 67.3943C432.296 67.7923 432.666 68.1343 433.196 68.4223C433.726 68.7093 434.437 68.9373 435.332 69.1033C436.225 69.2683 437.358 69.3513 438.726 69.3513C440.206 69.3513 441.42 69.2613 442.369 69.0813C443.318 68.9003 444.075 68.6533 444.638 68.3363C445.2 68.0213 445.592 67.6443 445.813 67.2043C446.034 66.7643 446.144 66.2853 446.144 65.7673ZM438.527 29.6473C439.985 29.6473 441.359 29.7903 442.65 30.0763C443.941 30.3633 445.139 30.7723 446.243 31.3023H456.609V35.0443C456.609 35.6183 456.448 36.0703 456.129 36.4023C455.807 36.7333 455.261 36.9873 454.489 37.1633L451.972 37.7263C452.281 38.7193 452.435 39.7463 452.435 40.8063C452.435 42.5273 452.077 44.0743 451.359 45.4423C450.642 46.8113 449.66 47.9763 448.413 48.9373C447.165 49.8973 445.691 50.6363 443.992 51.1543C442.292 51.6743 440.47 51.9333 438.527 51.9333C437.445 51.9333 436.43 51.8673 435.48 51.7333C434.729 52.1813 434.355 52.6923 434.355 53.2723C434.355 53.8523 434.658 54.2693 435.265 54.5253C435.873 54.7823 436.673 54.9603 437.666 55.0623C438.661 55.1613 439.797 55.2123 441.078 55.2123C442.358 55.2123 443.661 55.2723 444.985 55.3943C446.309 55.5163 447.612 55.7213 448.893 56.0093C450.173 56.2973 451.31 56.7613 452.303 57.4033C453.297 58.0473 454.096 58.9033 454.704 59.9793C455.312 61.0533 455.616 62.4203 455.616 64.0813C455.616 65.6313 455.24 67.1493 454.489 68.6323C453.738 70.1143 452.634 71.4343 451.177 72.5853C449.721 73.7363 447.932 74.6603 445.813 75.3583C443.693 76.0573 441.264 76.4043 438.527 76.4043C435.835 76.4043 433.509 76.1513 431.556 75.6443C429.603 75.1353 427.981 74.4663 426.688 73.6383C425.397 72.8083 424.442 71.8523 423.825 70.7703C423.206 69.6873 422.897 68.5603 422.897 67.3883C422.897 65.8623 423.36 64.5763 424.288 63.5253C425.214 62.4773 426.485 61.6533 428.095 61.0563C427.323 60.5493 426.706 59.8993 426.241 59.1063C425.778 58.3123 425.546 57.3093 425.546 56.0963C425.546 55.5903 425.633 55.0563 425.811 54.4923C425.987 53.9313 426.264 53.3853 426.639 52.8563C427.013 52.3273 427.489 51.8193 428.062 51.3353C428.637 50.8503 429.321 50.4193 430.116 50.0453C428.328 49.0973 426.921 47.8383 425.894 46.2713C424.867 44.7033 424.353 42.8813 424.353 40.8063C424.353 39.0843 424.717 37.5333 425.447 36.1533C426.175 34.7743 427.173 33.6033 428.444 32.6433C429.714 31.6833 431.209 30.9433 432.93 30.4253C434.653 29.9063 436.518 29.6473 438.527 29.6473Z" fill="#21B7EA"/>
<path d="M472.969 58.3248C474.293 58.3248 475.452 58.0938 476.446 57.6288C477.439 57.1658 478.444 56.4148 479.459 55.3778V50.6758C477.406 50.6758 475.717 50.8078 474.392 51.0768C473.068 51.3438 472.019 51.6768 471.246 52.0778C470.474 52.4788 469.938 52.9348 469.64 53.4478C469.341 53.9598 469.193 54.5158 469.193 55.1178C469.193 56.2988 469.512 57.1288 470.153 57.6068C470.793 58.0858 471.732 58.3248 472.969 58.3248ZM484.757 64.5838C483.785 64.5838 483.052 64.4518 482.555 64.1858C482.059 63.9218 481.645 63.3698 481.314 62.5298L480.584 60.6418C479.725 61.3718 478.896 62.0128 478.101 62.5628C477.307 63.1158 476.485 63.5848 475.634 63.9708C474.784 64.3568 473.879 64.6428 472.918 64.8318C471.958 65.0188 470.892 65.1138 469.723 65.1138C468.155 65.1138 466.731 64.9088 465.45 64.4988C464.171 64.0898 463.083 63.4858 462.189 62.6868C461.294 61.8898 460.606 60.8988 460.119 59.7138C459.634 58.5298 459.392 57.1618 459.392 55.6118C459.392 54.3938 459.699 53.1408 460.319 51.8568C460.937 50.5728 462.007 49.4038 463.531 48.3518C465.054 47.3008 467.108 46.4198 469.69 45.7108C472.273 45.0028 475.529 44.6478 479.459 44.6478V43.1768C479.459 41.1508 479.045 39.6848 478.217 38.7818C477.389 37.8808 476.213 37.4288 474.69 37.4288C473.476 37.4288 472.483 37.5608 471.71 37.8258C470.937 38.0908 470.247 38.3888 469.64 38.7198C469.031 39.0508 468.442 39.3488 467.868 39.6148C467.293 39.8798 466.61 40.0118 465.815 40.0118C465.108 40.0118 464.508 39.8408 464.01 39.4978C463.513 39.1558 463.121 38.7318 462.835 38.2228L460.981 35.0118C463.056 33.1798 465.356 31.8158 467.885 30.9208C470.412 30.0268 473.122 29.5798 476.014 29.5798C478.089 29.5798 479.961 29.9168 481.627 30.5898C483.294 31.2638 484.707 32.2018 485.866 33.4048C487.027 34.6088 487.914 36.0368 488.532 37.6938C489.15 39.3488 489.459 41.1588 489.459 43.1238V64.5838H484.757Z" fill="#21B7EA"/>
<path d="M507.34 64.583H497.075V15.009H507.34V64.583Z" fill="#21B7EA"/>
</svg>
