<svg width="185" height="135" viewBox="0 0 185 135" fill="none" xmlns="http://www.w3.org/2000/svg">
<path d="M92.347 -6.10352e-05C64.822 -6.10352e-05 42.429 22.3929 42.429 49.9179C42.429 77.4419 64.822 99.8359 92.347 99.8359C119.871 99.8359 142.265 77.4419 142.265 49.9179C142.265 22.3929 119.871 -6.10352e-05 92.347 -6.10352e-05Z" fill="#21B7EA"/>
<path d="M111.576 43.3126C111.576 43.4516 111.547 43.5846 111.488 43.7106C110.95 44.8676 107.597 50.3226 92.1846 50.3226C76.7116 50.3226 73.6766 44.8276 73.2156 43.6996C73.1686 43.5836 73.1436 43.4616 73.1436 43.3366V25.4736C73.1436 24.9526 73.5666 24.5296 74.0886 24.5296H110.632C111.153 24.5296 111.576 24.9526 111.576 25.4736V43.3126ZM105.531 59.9416C103.381 59.9416 101.638 58.1976 101.638 56.0466C101.638 53.8966 103.381 52.1536 105.531 52.1536C107.681 52.1536 109.426 53.8966 109.426 56.0466C109.426 58.1976 107.681 59.9416 105.531 59.9416ZM103.564 66.4626C100.568 69.4586 96.5846 71.1096 92.3466 71.1096C88.1096 71.1096 84.1266 69.4586 81.1306 66.4626C80.6666 65.9996 80.6666 65.2496 81.1306 64.7856C81.5936 64.3226 82.3446 64.3226 82.8066 64.7856C88.0676 70.0456 96.6266 70.0456 101.888 64.7856C102.35 64.3226 103.101 64.3226 103.564 64.7856C104.028 65.2496 104.028 65.9996 103.564 66.4626ZM75.2686 56.0466C75.2686 53.8966 77.0126 52.1536 79.1636 52.1536C81.3136 52.1536 83.0566 53.8966 83.0566 56.0466C83.0566 58.1976 81.3136 59.9416 79.1636 59.9416C77.0126 59.9416 75.2686 58.1976 75.2686 56.0466ZM119.718 34.2056C119.196 34.2056 118.774 33.7826 118.774 33.2606V30.5776C118.774 30.0566 118.351 29.6336 117.83 29.6336H116.107C115.586 29.6336 115.163 29.2106 115.163 28.6896V28.0756C115.163 23.0726 111.107 19.0166 106.104 19.0166H78.1716C73.4166 19.0166 69.5556 22.8776 69.5556 27.6396V28.6896C69.5556 29.2106 69.1346 29.6336 68.6126 29.6336H66.8646C66.3436 29.6336 65.9206 30.0566 65.9206 30.5776V33.2606C65.9206 33.7826 65.4976 34.2056 64.9756 34.2056C64.4546 34.2056 64.0326 34.6266 64.0326 35.1486V43.8376C64.0326 44.3596 64.4546 44.7826 64.9756 44.7826H67.5776C68.0986 44.7826 68.5206 44.3596 68.5206 43.8376V35.1486C68.5206 34.6266 68.0986 34.2056 67.5776 34.2056C67.0556 34.2056 66.6336 33.7826 66.6336 33.2606V31.2966C66.6336 30.7756 67.0556 30.3526 67.5776 30.3526H68.6126C69.1346 30.3526 69.5556 30.7756 69.5556 31.2966V68.2246C69.5556 71.3536 71.2336 74.0946 73.7356 75.6066H73.7366V78.2476C73.7366 79.6666 74.8876 80.8196 76.3086 80.8196H80.8356C82.2566 80.8196 83.4076 79.6676 83.4076 78.2476V76.8406H83.4086H101.803V78.2476C101.803 79.6676 102.954 80.8196 104.375 80.8196H108.902C110.323 80.8196 111.474 79.6676 111.474 78.2476V75.7576C111.474 75.4606 111.621 75.1886 111.854 75.0046C113.869 73.4296 115.163 70.9756 115.163 68.2176V31.2966C115.163 30.7756 115.586 30.3526 116.107 30.3526H117.117C117.638 30.3526 118.061 30.7756 118.061 31.2966V33.2606C118.061 33.7826 117.638 34.2056 117.117 34.2056C116.596 34.2056 116.173 34.6266 116.173 35.1486V43.8376C116.173 44.3596 116.596 44.7826 117.117 44.7826H119.718C120.239 44.7826 120.662 44.3596 120.662 43.8376V35.1486C120.662 34.6266 120.239 34.2056 119.718 34.2056Z" fill="white"/>
<path d="M17.2269 107.723V111.71H11.1269V129.399H6.0989V111.71H-9.91821e-05V107.723H17.2269Z" fill="#1B3865"/>
<path d="M21.2445 113.972V123.76C21.2445 124.525 21.4175 125.115 21.7655 125.531C22.1115 125.948 22.6225 126.156 23.2975 126.156C23.8035 126.156 24.2765 126.051 24.7185 125.843C25.1595 125.635 25.5885 125.343 26.0055 124.965V113.972H30.6165V129.399H27.7605C27.1845 129.399 26.8075 129.141 26.6295 128.625L26.3475 127.733C26.0495 128.02 25.7415 128.281 25.4255 128.513C25.1065 128.746 24.7665 128.945 24.4055 129.109C24.0435 129.273 23.6545 129.402 23.2375 129.495C22.8215 129.589 22.3645 129.637 21.8685 129.637C21.0255 129.637 20.2795 129.491 19.6305 129.198C18.9805 128.906 18.4325 128.496 17.9865 127.971C17.5405 127.445 17.2025 126.825 16.9745 126.111C16.7465 125.397 16.6325 124.614 16.6325 123.76V113.972H21.2445Z" fill="#1B3865"/>
<path d="M34.1869 129.398V113.971H36.9229C37.1519 113.971 37.3429 113.991 37.4969 114.031C37.6499 114.07 37.7799 114.132 37.8829 114.216C37.9879 114.3 38.0669 114.413 38.1219 114.551C38.1759 114.69 38.2229 114.858 38.2629 115.056L38.5149 116.5C39.0819 115.627 39.7149 114.938 40.4199 114.432C41.1239 113.926 41.8929 113.673 42.7259 113.673C43.4299 113.673 43.9959 113.842 44.4209 114.179L43.8269 117.571C43.7869 117.779 43.7079 117.926 43.5879 118.009C43.4689 118.094 43.3109 118.136 43.1129 118.136C42.9439 118.136 42.7459 118.114 42.5169 118.07C42.2899 118.025 42.0009 118.002 41.6549 118.002C40.4449 118.002 39.4929 118.647 38.7979 119.937V129.398H34.1869Z" fill="#1B3865"/>
<path d="M51.235 129.398H46.624V113.971H51.235V129.398ZM51.77 109.746C51.77 110.113 51.696 110.458 51.547 110.78C51.399 111.102 51.195 111.386 50.937 111.628C50.679 111.871 50.379 112.064 50.037 112.208C49.695 112.352 49.33 112.424 48.944 112.424C48.567 112.424 48.215 112.352 47.888 112.208C47.56 112.064 47.27 111.871 47.018 111.628C46.764 111.386 46.566 111.102 46.422 110.78C46.279 110.458 46.206 110.113 46.206 109.746C46.206 109.37 46.279 109.017 46.422 108.689C46.566 108.363 46.764 108.075 47.018 107.827C47.27 107.579 47.56 107.386 47.888 107.247C48.215 107.108 48.567 107.038 48.944 107.038C49.33 107.038 49.695 107.108 50.037 107.247C50.379 107.386 50.679 107.579 50.937 107.827C51.195 108.075 51.399 108.363 51.547 108.689C51.696 109.017 51.77 109.37 51.77 109.746Z" fill="#1B3865"/>
<path d="M64.3861 117.349C64.2671 117.537 64.1401 117.671 64.0061 117.75C63.8721 117.829 63.7011 117.87 63.4921 117.87C63.2751 117.87 63.0571 117.823 62.8381 117.728C62.6201 117.634 62.3851 117.533 62.1321 117.423C61.8791 117.314 61.5941 117.212 61.2771 117.119C60.9591 117.024 60.5971 116.977 60.1911 116.977C59.6051 116.977 59.1561 117.088 58.8441 117.311C58.5311 117.535 58.3751 117.844 58.3751 118.241C58.3751 118.529 58.4771 118.767 58.6811 118.955C58.8841 119.144 59.1541 119.31 59.4911 119.453C59.8281 119.597 60.2101 119.734 60.6371 119.863C61.0631 119.992 61.4991 120.136 61.9461 120.294C62.3921 120.453 62.8281 120.639 63.2551 120.852C63.6811 121.066 64.0641 121.328 64.4011 121.64C64.7381 121.953 65.0081 122.332 65.2111 122.779C65.4141 123.225 65.5161 123.76 65.5161 124.385C65.5161 125.149 65.3771 125.853 65.1001 126.497C64.8221 127.143 64.4071 127.698 63.8581 128.164C63.3071 128.63 62.6271 128.993 61.8201 129.25C61.0111 129.507 60.0811 129.637 59.0311 129.637C58.5041 129.637 57.9791 129.586 57.4531 129.489C56.9271 129.389 56.4191 129.255 55.9281 129.086C55.4381 128.917 54.9841 128.717 54.5671 128.484C54.1511 128.251 53.7931 128 53.4961 127.733L54.5671 126.037C54.6961 125.838 54.8501 125.682 55.0291 125.568C55.2061 125.454 55.4401 125.397 55.7281 125.397C55.9951 125.397 56.2361 125.456 56.4481 125.576C56.6621 125.695 56.8931 125.824 57.1411 125.962C57.3881 126.101 57.6781 126.23 58.0111 126.349C58.3431 126.468 58.7621 126.528 59.2681 126.528C59.6251 126.528 59.9281 126.49 60.1751 126.416C60.4231 126.341 60.6221 126.241 60.7711 126.111C60.9191 125.982 61.0291 125.838 61.0981 125.679C61.1671 125.521 61.2021 125.358 61.2021 125.189C61.2021 124.881 61.0981 124.628 60.8901 124.43C60.6821 124.232 60.4081 124.06 60.0721 123.916C59.7341 123.773 59.3501 123.639 58.9181 123.515C58.4871 123.391 58.0481 123.249 57.6021 123.091C57.1561 122.932 56.7171 122.742 56.2851 122.519C55.8541 122.295 55.4691 122.012 55.1321 121.67C54.7951 121.328 54.5231 120.91 54.3151 120.413C54.1061 119.917 54.0011 119.318 54.0011 118.613C54.0011 117.958 54.1281 117.336 54.3811 116.746C54.6341 116.157 55.0131 115.638 55.5191 115.192C56.0251 114.745 56.6591 114.391 57.4231 114.127C58.1871 113.865 59.0791 113.734 60.1011 113.734C60.6561 113.734 61.1951 113.784 61.7151 113.882C62.2361 113.982 62.7241 114.12 63.1811 114.299C63.6371 114.477 64.0531 114.689 64.4301 114.931C64.8071 115.174 65.1391 115.44 65.4271 115.727L64.3861 117.349Z" fill="#1B3865"/>
<path d="M68.0453 129.398V113.971H70.9013C71.1893 113.971 71.4293 114.036 71.6223 114.165C71.8163 114.294 71.9523 114.487 72.0313 114.745L72.2843 115.578C72.5423 115.31 72.8113 115.064 73.0883 114.841C73.3653 114.618 73.6653 114.424 73.9883 114.261C74.3113 114.097 74.6573 113.968 75.0293 113.874C75.4013 113.78 75.8113 113.733 76.2573 113.733C77.1893 113.733 77.9603 113.974 78.5703 114.455C79.1803 114.935 79.6443 115.578 79.9613 116.381C80.2193 115.905 80.5333 115.499 80.9053 115.161C81.2773 114.824 81.6793 114.551 82.1103 114.342C82.5423 114.134 82.9983 113.981 83.4803 113.881C83.9603 113.783 84.4393 113.733 84.9153 113.733C85.7973 113.733 86.5813 113.864 87.2663 114.127C87.9493 114.39 88.5233 114.772 88.9833 115.272C89.4443 115.774 89.7943 116.388 90.0323 117.118C90.2703 117.846 90.3893 118.672 90.3893 119.594V129.398H85.7773V119.594C85.7773 117.998 85.0933 117.199 83.7253 117.199C83.1003 117.199 82.5813 117.405 82.1703 117.817C81.7583 118.228 81.5533 118.821 81.5533 119.594V129.398H76.9413V119.594C76.9413 118.711 76.7683 118.091 76.4203 117.735C76.0733 117.377 75.5633 117.199 74.8883 117.199C74.4723 117.199 74.0773 117.294 73.7053 117.482C73.3333 117.67 72.9833 117.923 72.6563 118.24V129.398H68.0453Z" fill="#1B3865"/>
<path d="M100.535 126.215C101.596 126.215 102.377 125.841 102.878 125.092C103.379 124.343 103.629 123.205 103.629 121.678C103.629 120.151 103.379 119.015 102.878 118.271C102.377 117.527 101.596 117.155 100.535 117.155C99.4435 117.155 98.6455 117.527 98.1395 118.271C97.6345 119.015 97.3815 120.151 97.3815 121.678C97.3815 123.205 97.6345 124.343 98.1395 125.092C98.6455 125.841 99.4435 126.215 100.535 126.215ZM100.535 113.734C101.704 113.734 102.771 113.917 103.733 114.284C104.695 114.651 105.52 115.176 106.21 115.861C106.899 116.545 107.434 117.376 107.816 118.353C108.198 119.329 108.389 120.428 108.389 121.648C108.389 122.877 108.198 123.986 107.816 124.973C107.434 125.96 106.899 126.798 106.21 127.487C105.52 128.177 104.695 128.707 103.733 129.078C102.771 129.45 101.704 129.637 100.535 129.637C99.3545 129.637 98.2815 129.45 97.3135 129.078C96.3475 128.707 95.5145 128.177 94.8145 127.487C94.1155 126.798 93.5745 125.96 93.1925 124.973C92.8115 123.986 92.6205 122.877 92.6205 121.648C92.6205 120.428 92.8115 119.329 93.1925 118.353C93.5745 117.376 94.1155 116.545 94.8145 115.861C95.5145 115.176 96.3475 114.651 97.3135 114.284C98.2815 113.917 99.3545 113.734 100.535 113.734Z" fill="#1B3865"/>
<path d="M122.331 125.382H130.364V129.399H117.303V107.723H122.331V125.382Z" fill="#21B7EA"/>
<path d="M138.845 116.917C137.962 116.917 137.273 117.167 136.777 117.668C136.282 118.169 135.953 118.891 135.795 119.833H141.553C141.553 119.466 141.506 119.109 141.411 118.762C141.317 118.414 141.163 118.104 140.95 117.832C140.737 117.559 140.456 117.339 140.11 117.17C139.762 117.001 139.341 116.917 138.845 116.917ZM138.756 113.733C139.777 113.733 140.712 113.892 141.56 114.209C142.408 114.526 143.137 114.988 143.746 115.593C144.357 116.198 144.833 116.938 145.175 117.817C145.517 118.694 145.689 119.689 145.689 120.8C145.689 121.146 145.674 121.43 145.644 121.647C145.614 121.866 145.559 122.04 145.48 122.169C145.401 122.297 145.294 122.387 145.159 122.437C145.026 122.486 144.856 122.511 144.647 122.511H135.751C135.9 123.8 136.291 124.734 136.926 125.314C137.561 125.895 138.379 126.186 139.38 126.186C139.916 126.186 140.377 126.121 140.764 125.991C141.151 125.862 141.495 125.719 141.798 125.56C142.101 125.401 142.378 125.258 142.631 125.129C142.884 125 143.15 124.936 143.427 124.936C143.794 124.936 144.072 125.069 144.26 125.337L145.599 126.988C145.123 127.534 144.61 127.978 144.059 128.32C143.509 128.662 142.944 128.93 142.364 129.123C141.783 129.316 141.203 129.45 140.623 129.524C140.042 129.6 139.49 129.637 138.964 129.637C137.883 129.637 136.869 129.46 135.922 129.108C134.974 128.757 134.147 128.233 133.438 127.539C132.728 126.845 132.168 125.981 131.757 124.95C131.345 123.919 131.139 122.719 131.139 121.351C131.139 120.319 131.315 119.342 131.667 118.42C132.019 117.497 132.525 116.689 133.185 115.994C133.844 115.301 134.642 114.75 135.579 114.343C136.517 113.937 137.575 113.733 138.756 113.733Z" fill="#21B7EA"/>
<path d="M153.781 120.874C154.545 120.874 155.097 120.684 155.44 120.302C155.782 119.92 155.953 119.426 155.953 118.821C155.953 118.196 155.782 117.706 155.44 117.349C155.097 116.991 154.545 116.812 153.781 116.812C153.017 116.812 152.465 116.991 152.123 117.349C151.78 117.706 151.609 118.196 151.609 118.821C151.609 119.119 151.651 119.392 151.735 119.639C151.82 119.888 151.951 120.103 152.13 120.287C152.308 120.47 152.534 120.613 152.806 120.718C153.079 120.822 153.404 120.874 153.781 120.874ZM157.203 129.93C157.203 129.677 157.126 129.475 156.972 129.322C156.818 129.171 156.61 129.049 156.347 128.957C156.085 128.866 155.777 128.801 155.426 128.761C155.073 128.72 154.693 128.699 154.287 128.699H153.022C152.586 128.699 152.155 128.657 151.728 128.573C151.44 128.771 151.205 128.993 151.021 129.236C150.838 129.48 150.746 129.756 150.746 130.064C150.746 130.283 150.793 130.481 150.887 130.661C150.981 130.84 151.148 130.994 151.385 131.123C151.624 131.252 151.943 131.354 152.345 131.429C152.747 131.503 153.256 131.54 153.871 131.54C154.535 131.54 155.08 131.5 155.507 131.419C155.933 131.338 156.273 131.227 156.526 131.085C156.778 130.942 156.955 130.773 157.054 130.576C157.153 130.378 157.203 130.163 157.203 129.93ZM153.781 113.704C154.435 113.704 155.053 113.769 155.634 113.896C156.214 114.025 156.752 114.209 157.247 114.447H161.904V116.128C161.904 116.387 161.832 116.589 161.688 116.738C161.544 116.888 161.299 117.001 160.952 117.08L159.821 117.334C159.96 117.779 160.029 118.24 160.029 118.717C160.029 119.49 159.868 120.185 159.546 120.8C159.223 121.415 158.782 121.938 158.221 122.369C157.661 122.801 156.999 123.133 156.236 123.366C155.472 123.599 154.654 123.716 153.781 123.716C153.295 123.716 152.839 123.686 152.412 123.626C152.075 123.827 151.907 124.057 151.907 124.316C151.907 124.577 152.043 124.765 152.315 124.88C152.589 124.995 152.948 125.075 153.394 125.121C153.841 125.166 154.351 125.188 154.927 125.188C155.502 125.188 156.087 125.216 156.681 125.27C157.277 125.325 157.862 125.417 158.437 125.547C159.012 125.676 159.523 125.885 159.969 126.173C160.416 126.462 160.775 126.847 161.049 127.33C161.321 127.812 161.458 128.427 161.458 129.173C161.458 129.869 161.289 130.551 160.952 131.217C160.614 131.884 160.119 132.476 159.464 132.993C158.809 133.511 158.007 133.926 157.054 134.239C156.102 134.553 155.01 134.709 153.781 134.709C152.571 134.709 151.527 134.595 150.649 134.367C149.772 134.139 149.043 133.838 148.463 133.466C147.883 133.093 147.454 132.664 147.177 132.178C146.898 131.691 146.76 131.185 146.76 130.658C146.76 129.974 146.968 129.395 147.385 128.923C147.801 128.452 148.371 128.082 149.094 127.814C148.748 127.586 148.47 127.295 148.261 126.937C148.053 126.581 147.949 126.131 147.949 125.586C147.949 125.358 147.989 125.118 148.068 124.865C148.147 124.613 148.272 124.368 148.44 124.13C148.608 123.893 148.822 123.665 149.08 123.447C149.338 123.228 149.645 123.036 150.003 122.867C149.199 122.441 148.567 121.876 148.106 121.172C147.644 120.468 147.414 119.649 147.414 118.717C147.414 117.943 147.577 117.247 147.905 116.627C148.232 116.007 148.68 115.481 149.251 115.05C149.821 114.618 150.493 114.286 151.267 114.054C152.041 113.82 152.879 113.704 153.781 113.704Z" fill="#21B7EA"/>
<path d="M169.253 126.587C169.848 126.587 170.368 126.483 170.815 126.275C171.261 126.066 171.712 125.729 172.168 125.263V123.15C171.246 123.15 170.487 123.21 169.892 123.33C169.297 123.45 168.826 123.601 168.479 123.78C168.132 123.961 167.891 124.166 167.757 124.397C167.623 124.626 167.557 124.876 167.557 125.147C167.557 125.677 167.7 126.05 167.987 126.265C168.275 126.48 168.697 126.587 169.253 126.587ZM174.549 129.399C174.112 129.399 173.782 129.339 173.559 129.22C173.336 129.101 173.15 128.854 173.002 128.476L172.674 127.628C172.287 127.956 171.915 128.243 171.559 128.49C171.201 128.739 170.832 128.949 170.45 129.123C170.068 129.297 169.661 129.426 169.231 129.51C168.799 129.594 168.319 129.637 167.795 129.637C167.09 129.637 166.45 129.545 165.875 129.36C165.301 129.177 164.812 128.905 164.41 128.547C164.008 128.189 163.698 127.743 163.481 127.211C163.262 126.679 163.153 126.065 163.153 125.368C163.153 124.821 163.292 124.258 163.569 123.682C163.848 123.105 164.328 122.579 165.013 122.107C165.697 121.634 166.619 121.239 167.779 120.92C168.94 120.603 170.402 120.442 172.168 120.442V119.782C172.168 118.872 171.982 118.213 171.61 117.808C171.238 117.402 170.71 117.199 170.025 117.199C169.481 117.199 169.034 117.259 168.688 117.378C168.34 117.497 168.03 117.631 167.757 117.779C167.484 117.929 167.219 118.063 166.961 118.182C166.703 118.301 166.397 118.359 166.039 118.359C165.722 118.359 165.451 118.283 165.229 118.129C165.005 117.976 164.829 117.785 164.7 117.557L163.867 116.113C164.8 115.291 165.833 114.678 166.969 114.276C168.105 113.874 169.321 113.674 170.621 113.674C171.553 113.674 172.394 113.825 173.143 114.127C173.892 114.43 174.526 114.852 175.047 115.392C175.567 115.933 175.967 116.574 176.244 117.318C176.522 118.063 176.661 118.875 176.661 119.758V129.399H174.549Z" fill="#21B7EA"/>
<path d="M184.694 129.398H180.083V107.127H184.694V129.398Z" fill="#21B7EA"/>
</svg>
