<svg width="185" height="135" viewBox="0 0 185 135" fill="none" xmlns="http://www.w3.org/2000/svg">
<path d="M101.89 64.79C96.63 70.05 88.07 70.05 82.81 64.79C82.35 64.33 81.6 64.33 81.13 64.79C80.67 65.25 80.67 66 81.13 66.47C84.13 69.47 88.11 71.12 92.35 71.12C96.59 71.12 100.57 69.47 103.57 66.47C104.03 66.01 104.03 65.26 103.57 64.79C103.1 64.32 102.35 64.32 101.89 64.79Z" fill="white"/>
<path d="M105.53 59.9399C107.678 59.9399 109.42 58.1983 109.42 56.0499C109.42 53.9015 107.678 52.1599 105.53 52.1599C103.382 52.1599 101.64 53.9015 101.64 56.0499C101.64 58.1983 103.382 59.9399 105.53 59.9399Z" fill="white"/>
<path d="M83.06 56.0499C83.06 53.8999 81.32 52.1599 79.17 52.1599C77.02 52.1599 75.28 53.8999 75.28 56.0499C75.28 58.1999 77.02 59.9399 79.17 59.9399C81.32 59.9399 83.06 58.1999 83.06 56.0499Z" fill="white"/>
<path d="M92.35 0C64.82 0 42.43 22.39 42.43 49.92C42.43 77.45 64.82 99.84 92.35 99.84C119.87 99.84 142.27 77.45 142.27 49.92C142.27 22.39 119.87 0 92.35 0ZM120.66 43.84C120.66 44.36 120.24 44.78 119.72 44.78H117.12C116.6 44.78 116.18 44.36 116.18 43.84V35.15C116.18 34.63 116.6 34.21 117.12 34.21C117.64 34.21 118.06 33.79 118.06 33.27V31.3C118.06 30.78 117.64 30.36 117.12 30.36H116.11C115.59 30.36 115.17 30.78 115.17 31.3V68.22C115.17 70.98 113.88 73.43 111.86 75.01C111.63 75.19 111.48 75.47 111.48 75.76V78.25C111.48 79.67 110.33 80.82 108.91 80.82H104.38C102.96 80.82 101.81 79.67 101.81 78.25V76.84H83.41V78.25C83.41 79.67 82.26 80.82 80.84 80.82H76.31C74.89 80.82 73.74 79.67 73.74 78.25V75.61C71.24 74.1 69.56 71.36 69.56 68.23V31.3C69.56 30.78 69.14 30.36 68.62 30.36H67.58C67.06 30.36 66.64 30.78 66.64 31.3V33.26C66.64 33.78 67.06 34.2 67.58 34.2C68.1 34.2 68.52 34.62 68.52 35.14V43.83C68.52 44.35 68.1 44.77 67.58 44.77H64.98C64.46 44.77 64.04 44.35 64.04 43.83V35.14C64.04 34.62 64.46 34.2 64.98 34.2C65.5 34.2 65.92 33.78 65.92 33.26V30.58C65.92 30.06 66.34 29.64 66.86 29.64H68.61C69.13 29.64 69.55 29.22 69.55 28.7V27.65C69.55 22.89 73.41 19.03 78.16 19.03H106.09C111.09 19.03 115.15 23.09 115.15 28.09V28.7C115.15 29.22 115.57 29.64 116.09 29.64H117.81C118.33 29.64 118.75 30.06 118.75 30.58V33.26C118.75 33.78 119.17 34.2 119.69 34.2C120.21 34.2 120.63 34.62 120.63 35.14V43.84H120.66Z" fill="white"/>
<path d="M110.63 24.53H74.09C73.57 24.53 73.15 24.95 73.15 25.47V43.33C73.15 43.46 73.17 43.58 73.22 43.69C73.68 44.82 76.72 50.31 92.19 50.31C107.6 50.31 110.95 44.85 111.49 43.7C111.55 43.57 111.58 43.44 111.58 43.3V25.47C111.58 24.95 111.15 24.53 110.63 24.53Z" fill="white"/>
<path d="M17.23 107.72V111.71H11.13V129.4H6.1V111.71H0V107.72H17.23V107.72Z" fill="white"/>
<path d="M21.24 113.97V123.76C21.24 124.52 21.41 125.11 21.76 125.53C22.11 125.95 22.62 126.16 23.29 126.16C23.8 126.16 24.27 126.06 24.71 125.85C25.15 125.64 25.58 125.35 26 124.97V113.98H30.61V129.41H27.75C27.17 129.41 26.8 129.15 26.62 128.64L26.34 127.75C26.04 128.04 25.73 128.3 25.42 128.53C25.1 128.76 24.76 128.96 24.4 129.12C24.04 129.28 23.65 129.41 23.23 129.51C22.81 129.61 22.36 129.65 21.86 129.65C21.02 129.65 20.27 129.5 19.62 129.21C18.97 128.92 18.42 128.51 17.98 127.98C17.53 127.45 17.2 126.83 16.97 126.12C16.74 125.41 16.63 124.62 16.63 123.77V113.98H21.24V113.97Z" fill="white"/>
<path d="M34.19 129.4V113.97H36.93C37.16 113.97 37.35 113.99 37.5 114.03C37.65 114.07 37.78 114.13 37.89 114.22C37.99 114.3 38.07 114.42 38.13 114.55C38.18 114.69 38.23 114.86 38.27 115.06L38.52 116.5C39.09 115.63 39.72 114.94 40.42 114.43C41.12 113.92 41.89 113.67 42.73 113.67C43.43 113.67 44 113.84 44.43 114.18L43.83 117.57C43.79 117.78 43.71 117.92 43.59 118.01C43.47 118.09 43.31 118.14 43.11 118.14C42.94 118.14 42.74 118.12 42.51 118.07C42.29 118.03 42 118 41.65 118C40.44 118 39.49 118.64 38.79 119.93V129.39H34.19V129.4Z" fill="white"/>
<path d="M51.77 109.75C51.77 110.12 51.7 110.46 51.55 110.78C51.4 111.1 51.2 111.39 50.94 111.63C50.68 111.87 50.38 112.07 50.04 112.21C49.7 112.35 49.33 112.43 48.95 112.43C48.57 112.43 48.22 112.36 47.89 112.21C47.56 112.07 47.27 111.87 47.02 111.63C46.77 111.39 46.57 111.1 46.42 110.78C46.28 110.46 46.2 110.11 46.2 109.75C46.2 109.37 46.27 109.02 46.42 108.69C46.56 108.36 46.76 108.08 47.02 107.83C47.27 107.58 47.56 107.39 47.89 107.25C48.22 107.11 48.57 107.04 48.95 107.04C49.34 107.04 49.7 107.11 50.04 107.25C50.38 107.39 50.68 107.58 50.94 107.83C51.2 108.08 51.4 108.37 51.55 108.69C51.7 109.02 51.77 109.37 51.77 109.75ZM51.24 113.97V129.4H46.63V113.97H51.24Z" fill="white"/>
<path d="M64.39 117.35C64.27 117.54 64.14 117.67 64.01 117.75C63.88 117.83 63.7 117.87 63.5 117.87C63.28 117.87 63.06 117.82 62.85 117.73C62.63 117.64 62.4 117.53 62.14 117.42C61.89 117.31 61.6 117.21 61.28 117.12C60.96 117.03 60.6 116.98 60.19 116.98C59.6 116.98 59.16 117.09 58.84 117.31C58.53 117.53 58.37 117.84 58.37 118.24C58.37 118.53 58.47 118.77 58.68 118.95C58.88 119.14 59.15 119.3 59.49 119.45C59.83 119.6 60.21 119.73 60.64 119.86C61.07 119.99 61.5 120.13 61.95 120.29C62.4 120.45 62.83 120.64 63.26 120.85C63.69 121.06 64.07 121.33 64.41 121.64C64.75 121.95 65.02 122.33 65.22 122.78C65.42 123.23 65.52 123.76 65.52 124.39C65.52 125.15 65.38 125.86 65.1 126.5C64.82 127.15 64.41 127.7 63.86 128.17C63.31 128.64 62.63 129 61.82 129.26C61.01 129.52 60.08 129.65 59.03 129.65C58.5 129.65 57.98 129.6 57.45 129.5C56.92 129.4 56.42 129.27 55.93 129.1C55.44 128.93 54.99 128.73 54.57 128.5C54.15 128.27 53.8 128.02 53.5 127.75L54.57 126.05C54.7 125.85 54.85 125.7 55.03 125.58C55.21 125.47 55.44 125.41 55.73 125.41C56 125.41 56.24 125.47 56.45 125.59C56.66 125.71 56.89 125.84 57.14 125.98C57.39 126.12 57.68 126.25 58.01 126.37C58.34 126.49 58.76 126.55 59.27 126.55C59.63 126.55 59.93 126.51 60.18 126.44C60.43 126.37 60.63 126.26 60.78 126.13C60.93 126 61.04 125.86 61.11 125.7C61.18 125.54 61.21 125.38 61.21 125.21C61.21 124.9 61.11 124.65 60.9 124.45C60.69 124.25 60.42 124.08 60.08 123.94C59.74 123.8 59.36 123.66 58.93 123.54C58.5 123.42 58.06 123.27 57.61 123.12C57.16 122.96 56.72 122.77 56.29 122.55C55.86 122.33 55.47 122.04 55.14 121.7C54.8 121.36 54.53 120.94 54.32 120.44C54.11 119.94 54.01 119.34 54.01 118.64C54.01 117.99 54.14 117.36 54.39 116.77C54.64 116.18 55.02 115.66 55.53 115.22C56.04 114.77 56.67 114.42 57.43 114.16C58.19 113.9 59.09 113.77 60.11 113.77C60.67 113.77 61.2 113.82 61.72 113.92C62.24 114.02 62.73 114.16 63.19 114.34C63.65 114.52 64.06 114.73 64.44 114.97C64.82 115.21 65.15 115.48 65.44 115.77L64.39 117.35Z" fill="white"/>
<path d="M68.05 129.4V113.97H70.91C71.2 113.97 71.44 114.03 71.63 114.16C71.82 114.29 71.96 114.48 72.04 114.74L72.29 115.57C72.55 115.3 72.82 115.06 73.09 114.83C73.37 114.61 73.67 114.41 73.99 114.25C74.31 114.09 74.66 113.96 75.03 113.86C75.4 113.77 75.81 113.72 76.26 113.72C77.19 113.72 77.96 113.96 78.57 114.44C79.18 114.92 79.64 115.56 79.96 116.37C80.22 115.89 80.53 115.49 80.9 115.15C81.27 114.81 81.67 114.54 82.11 114.33C82.54 114.12 83 113.97 83.48 113.87C83.96 113.77 84.44 113.72 84.92 113.72C85.8 113.72 86.59 113.85 87.27 114.11C87.95 114.37 88.53 114.76 88.99 115.26C89.45 115.76 89.8 116.38 90.04 117.11C90.28 117.84 90.4 118.66 90.4 119.59V129.39H85.79V119.59C85.79 117.99 85.11 117.2 83.74 117.2C83.11 117.2 82.6 117.41 82.19 117.82C81.78 118.23 81.57 118.82 81.57 119.6V129.4H76.96V119.6C76.96 118.72 76.79 118.1 76.44 117.74C76.09 117.38 75.58 117.2 74.91 117.2C74.49 117.2 74.1 117.29 73.73 117.48C73.36 117.67 73.01 117.92 72.68 118.24V129.4H68.05V129.4Z" fill="white"/>
<path d="M100.54 113.73C101.71 113.73 102.78 113.91 103.74 114.28C104.7 114.65 105.53 115.17 106.22 115.86C106.91 116.54 107.45 117.38 107.83 118.35C108.21 119.32 108.4 120.42 108.4 121.64C108.4 122.87 108.21 123.98 107.83 124.97C107.45 125.96 106.91 126.79 106.22 127.48C105.53 128.17 104.71 128.7 103.74 129.07C102.78 129.44 101.71 129.63 100.54 129.63C99.36 129.63 98.29 129.44 97.32 129.07C96.35 128.7 95.52 128.17 94.82 127.48C94.12 126.79 93.58 125.95 93.2 124.97C92.82 123.98 92.63 122.87 92.63 121.64C92.63 120.42 92.82 119.32 93.2 118.35C93.58 117.37 94.12 116.54 94.82 115.86C95.52 115.18 96.35 114.65 97.32 114.28C98.28 113.92 99.35 113.73 100.54 113.73ZM100.54 126.21C101.6 126.21 102.38 125.84 102.88 125.09C103.38 124.34 103.63 123.2 103.63 121.68C103.63 120.15 103.38 119.02 102.88 118.27C102.38 117.53 101.6 117.15 100.54 117.15C99.45 117.15 98.65 117.52 98.14 118.27C97.63 119.01 97.38 120.15 97.38 121.68C97.38 123.21 97.63 124.35 98.14 125.09C98.65 125.84 99.44 126.21 100.54 126.21Z" fill="white"/>
<path d="M122.33 125.38H130.36V129.4H117.3V107.72H122.33V125.38Z" fill="white"/>
<path d="M138.76 113.73C139.78 113.73 140.72 113.89 141.56 114.21C142.41 114.53 143.14 114.99 143.75 115.59C144.36 116.2 144.84 116.94 145.18 117.81C145.52 118.69 145.69 119.68 145.69 120.79C145.69 121.14 145.68 121.42 145.64 121.64C145.61 121.86 145.56 122.03 145.48 122.16C145.4 122.29 145.29 122.38 145.16 122.43C145.03 122.48 144.86 122.5 144.65 122.5H135.75C135.9 123.79 136.29 124.72 136.92 125.3C137.55 125.88 138.37 126.17 139.37 126.17C139.91 126.17 140.37 126.11 140.75 125.98C141.14 125.85 141.48 125.71 141.78 125.55C142.08 125.39 142.36 125.25 142.61 125.12C142.86 124.99 143.13 124.93 143.41 124.93C143.78 124.93 144.06 125.06 144.24 125.33L145.58 126.98C145.1 127.53 144.59 127.97 144.04 128.31C143.49 128.65 142.92 128.92 142.34 129.11C141.76 129.3 141.18 129.44 140.6 129.51C140.02 129.58 139.47 129.62 138.94 129.62C137.86 129.62 136.85 129.44 135.9 129.09C134.95 128.74 134.12 128.22 133.42 127.52C132.71 126.83 132.15 125.96 131.74 124.93C131.33 123.9 131.12 122.7 131.12 121.33C131.12 120.3 131.3 119.32 131.65 118.4C132 117.48 132.51 116.67 133.17 115.97C133.83 115.28 134.63 114.73 135.56 114.32C136.52 113.94 137.58 113.73 138.76 113.73ZM138.84 116.92C137.96 116.92 137.27 117.17 136.77 117.67C136.27 118.17 135.95 118.89 135.79 119.83H141.55C141.55 119.46 141.5 119.11 141.41 118.76C141.32 118.41 141.16 118.1 140.95 117.83C140.74 117.56 140.46 117.34 140.11 117.17C139.76 117 139.34 116.92 138.84 116.92Z" fill="white"/>
<path d="M153.78 113.7C154.43 113.7 155.05 113.76 155.63 113.89C156.21 114.02 156.75 114.2 157.24 114.44H161.9V116.12C161.9 116.38 161.83 116.58 161.68 116.73C161.54 116.88 161.29 116.99 160.94 117.07L159.81 117.32C159.95 117.77 160.02 118.23 160.02 118.7C160.02 119.47 159.86 120.17 159.54 120.78C159.22 121.39 158.78 121.92 158.22 122.35C157.66 122.78 157 123.11 156.23 123.35C155.46 123.59 154.65 123.7 153.78 123.7C153.29 123.7 152.84 123.67 152.41 123.61C152.07 123.81 151.9 124.04 151.9 124.3C151.9 124.56 152.04 124.75 152.31 124.86C152.58 124.98 152.94 125.06 153.39 125.1C153.84 125.15 154.35 125.17 154.92 125.17C155.49 125.17 156.08 125.2 156.67 125.25C157.26 125.3 157.85 125.4 158.43 125.53C159 125.66 159.52 125.87 159.96 126.16C160.41 126.45 160.77 126.83 161.04 127.32C161.31 127.8 161.45 128.42 161.45 129.16C161.45 129.86 161.28 130.54 160.94 131.2C160.6 131.86 160.11 132.46 159.45 132.98C158.8 133.5 157.99 133.91 157.04 134.23C156.09 134.54 155 134.7 153.77 134.7C152.56 134.7 151.52 134.59 150.64 134.36C149.76 134.13 149.03 133.83 148.45 133.46C147.87 133.09 147.44 132.66 147.16 132.17C146.88 131.68 146.74 131.18 146.74 130.65C146.74 129.97 146.95 129.39 147.36 128.91C147.78 128.44 148.35 128.07 149.07 127.8C148.72 127.57 148.45 127.28 148.24 126.92C148.03 126.56 147.93 126.11 147.93 125.57C147.93 125.34 147.97 125.1 148.05 124.85C148.13 124.6 148.25 124.35 148.42 124.11C148.59 123.87 148.8 123.64 149.06 123.43C149.32 123.21 149.63 123.02 149.98 122.85C149.18 122.42 148.54 121.86 148.08 121.15C147.62 120.45 147.39 119.63 147.39 118.7C147.39 117.93 147.55 117.23 147.88 116.61C148.21 115.99 148.66 115.46 149.23 115.03C149.8 114.6 150.47 114.27 151.25 114.03C152.03 113.79 152.88 113.7 153.78 113.7ZM157.2 129.93C157.2 129.68 157.12 129.47 156.97 129.32C156.82 129.17 156.61 129.05 156.34 128.95C156.08 128.86 155.77 128.79 155.42 128.75C155.07 128.71 154.69 128.69 154.28 128.69C153.87 128.69 153.45 128.69 153.02 128.69C152.58 128.69 152.15 128.65 151.73 128.56C151.44 128.76 151.21 128.98 151.02 129.22C150.84 129.46 150.74 129.74 150.74 130.05C150.74 130.27 150.79 130.47 150.88 130.65C150.97 130.83 151.14 130.98 151.38 131.11C151.62 131.24 151.94 131.34 152.34 131.42C152.74 131.49 153.25 131.53 153.87 131.53C154.53 131.53 155.08 131.49 155.51 131.41C155.94 131.33 156.28 131.22 156.53 131.08C156.78 130.94 156.96 130.77 157.06 130.57C157.15 130.38 157.2 130.16 157.2 129.93ZM153.78 120.87C154.54 120.87 155.1 120.68 155.44 120.3C155.78 119.92 155.95 119.42 155.95 118.82C155.95 118.19 155.78 117.7 155.44 117.35C155.1 116.99 154.54 116.81 153.78 116.81C153.02 116.81 152.46 116.99 152.12 117.35C151.78 117.71 151.61 118.2 151.61 118.82C151.61 119.12 151.65 119.39 151.74 119.64C151.82 119.89 151.96 120.1 152.13 120.29C152.31 120.47 152.53 120.62 152.81 120.72C153.08 120.82 153.4 120.87 153.78 120.87Z" fill="white"/>
<path d="M174.55 129.4C174.11 129.4 173.78 129.34 173.56 129.22C173.34 129.1 173.15 128.85 173 128.48L172.67 127.63C172.28 127.96 171.91 128.25 171.55 128.49C171.19 128.74 170.82 128.95 170.44 129.12C170.06 129.29 169.65 129.42 169.22 129.51C168.79 129.59 168.31 129.64 167.78 129.64C167.08 129.64 166.44 129.55 165.86 129.36C165.29 129.18 164.8 128.9 164.39 128.55C163.99 128.19 163.68 127.75 163.46 127.21C163.24 126.68 163.13 126.06 163.13 125.37C163.13 124.82 163.27 124.26 163.55 123.68C163.83 123.1 164.31 122.58 164.99 122.11C165.67 121.64 166.6 121.24 167.76 120.92C168.92 120.6 170.38 120.44 172.15 120.44V119.78C172.15 118.87 171.96 118.21 171.59 117.81C171.22 117.41 170.69 117.2 170.01 117.2C169.46 117.2 169.02 117.26 168.67 117.38C168.32 117.5 168.01 117.63 167.74 117.78C167.47 117.93 167.2 118.06 166.94 118.18C166.68 118.3 166.37 118.36 166.02 118.36C165.7 118.36 165.43 118.28 165.21 118.13C164.99 117.98 164.81 117.79 164.68 117.56L163.85 116.12C164.78 115.3 165.82 114.68 166.95 114.28C168.09 113.88 169.3 113.68 170.6 113.68C171.53 113.68 172.37 113.83 173.12 114.13C173.87 114.43 174.5 114.85 175.02 115.39C175.54 115.93 175.94 116.57 176.22 117.32C176.5 118.06 176.64 118.88 176.64 119.76V129.4H174.55V129.4ZM169.25 126.59C169.84 126.59 170.37 126.49 170.81 126.28C171.26 126.07 171.71 125.73 172.16 125.27V123.16C171.24 123.16 170.48 123.22 169.88 123.34C169.29 123.46 168.81 123.61 168.47 123.79C168.12 123.97 167.88 124.17 167.75 124.41C167.62 124.64 167.55 124.89 167.55 125.16C167.55 125.69 167.69 126.06 167.98 126.28C168.28 126.48 168.7 126.59 169.25 126.59Z" fill="white"/>
<path d="M184.69 107.13V129.4H180.08V107.13H184.69V107.13Z" fill="white"/>
</svg>
