<svg width="508" height="92" viewBox="0 0 508 92" fill="none" xmlns="http://www.w3.org/2000/svg">
<path d="M54.32 59.19C49.52 64 41.7 64 36.89 59.19C36.47 58.77 35.78 58.77 35.36 59.19C34.94 59.61 34.94 60.3 35.36 60.72C38.1 63.46 41.74 64.97 45.61 64.97C49.48 64.97 53.12 63.46 55.86 60.72C56.28 60.3 56.28 59.61 55.86 59.19C55.43 58.77 54.75 58.77 54.32 59.19Z" fill="white"/>
<path d="M37.12 51.2099C37.12 49.2499 35.53 47.6499 33.56 47.6499C31.6 47.6499 30 49.2399 30 51.2099C30 53.1799 31.59 54.7699 33.56 54.7699C35.53 54.7699 37.12 53.1699 37.12 51.2099Z" fill="white"/>
<path d="M57.65 47.6499C55.69 47.6499 54.09 49.2399 54.09 51.2099C54.09 53.1799 55.68 54.7699 57.65 54.7699C59.62 54.7699 61.21 53.1799 61.21 51.2099C61.21 49.2399 59.62 47.6499 57.65 47.6499Z" fill="white"/>
<path d="M45.61 0C20.46 0 0 20.46 0 45.61C0 70.76 20.46 91.22 45.61 91.22C70.76 91.22 91.22 70.76 91.22 45.61C91.22 20.46 70.76 0 45.61 0ZM71.48 40.05C71.48 40.53 71.09 40.91 70.62 40.91H68.24C67.76 40.91 67.38 40.52 67.38 40.05V32.11C67.38 31.63 67.77 31.25 68.24 31.25C68.72 31.25 69.1 30.86 69.1 30.39V28.6C69.1 28.12 68.71 27.74 68.24 27.74H67.32C66.84 27.74 66.46 28.13 66.46 28.6V62.33C66.46 64.85 65.28 67.09 63.44 68.53C63.23 68.7 63.09 68.95 63.09 69.22V71.49C63.09 72.79 62.04 73.84 60.74 73.84H56.6C55.3 73.84 54.25 72.79 54.25 71.49V70.21H37.44V71.49C37.44 72.79 36.39 73.84 35.09 73.84H30.95C29.65 73.84 28.6 72.79 28.6 71.49V69.08C26.31 67.7 24.78 65.19 24.78 62.34V28.59C24.78 28.11 24.39 27.73 23.92 27.73H22.97C22.49 27.73 22.11 28.12 22.11 28.59V30.38C22.11 30.86 22.5 31.24 22.97 31.24C23.45 31.24 23.83 31.63 23.83 32.1V40.04C23.83 40.52 23.44 40.9 22.97 40.9H20.6C20.12 40.9 19.74 40.51 19.74 40.04V32.1C19.74 31.62 20.13 31.24 20.6 31.24C21.08 31.24 21.46 30.85 21.46 30.38V27.93C21.46 27.45 21.85 27.07 22.32 27.07H23.92C24.4 27.07 24.78 26.68 24.78 26.21V25.25C24.78 20.9 28.31 17.37 32.65 17.37H58.17C62.74 17.37 66.45 21.08 66.45 25.65V26.21C66.45 26.69 66.84 27.07 67.31 27.07H68.88C69.36 27.07 69.74 27.46 69.74 27.93V30.38C69.74 30.86 70.13 31.24 70.6 31.24C71.08 31.24 71.46 31.63 71.46 32.1V40.05H71.48Z" fill="white"/>
<path d="M62.31 22.4099H28.93C28.45 22.4099 28.07 22.7999 28.07 23.2699V39.5899C28.07 39.6999 28.09 39.8099 28.14 39.9199C28.56 40.9499 31.33 45.9699 45.47 45.9699C59.55 45.9699 62.61 40.9899 63.11 39.9299C63.16 39.8099 63.19 39.6899 63.19 39.5699V23.2699C63.18 22.7999 62.79 22.4099 62.31 22.4099Z" fill="white"/>
<path d="M134.56 16.3301V25.2101H120.98V64.5801H109.79V25.2101H96.21V16.3301H134.56Z" fill="white"/>
<path d="M143.5 30.24V52.03C143.5 53.73 143.89 55.04 144.66 55.97C145.43 56.9 146.57 57.36 148.07 57.36C149.2 57.36 150.25 57.13 151.23 56.66C152.21 56.2 153.17 55.55 154.09 54.71V30.24H164.36V64.58H158C156.72 64.58 155.88 64.01 155.48 62.86L154.85 60.87C154.19 61.51 153.5 62.09 152.8 62.61C152.09 63.13 151.34 63.57 150.53 63.93C149.72 64.3 148.86 64.58 147.93 64.79C147 65 145.99 65.11 144.88 65.11C143 65.11 141.34 64.78 139.9 64.13C138.45 63.48 137.23 62.57 136.24 61.4C135.25 60.23 134.5 58.85 133.99 57.26C133.48 55.67 133.23 53.93 133.23 52.03V30.24H143.5Z" fill="white"/>
<path d="M172.31 64.5801V30.2401H178.4C178.91 30.2401 179.33 30.2801 179.68 30.3701C180.02 30.4601 180.31 30.6001 180.54 30.7801C180.77 30.9701 180.95 31.2201 181.07 31.5301C181.19 31.8401 181.3 32.2101 181.38 32.6501L181.94 35.8601C183.2 33.9201 184.61 32.3801 186.18 31.2601C187.75 30.1301 189.46 29.5701 191.31 29.5701C192.88 29.5701 194.14 29.9501 195.09 30.7001L193.77 38.2501C193.68 38.7101 193.5 39.0401 193.24 39.2301C192.97 39.4201 192.62 39.5101 192.18 39.5101C191.8 39.5101 191.36 39.4601 190.86 39.3601C190.35 39.2601 189.71 39.2101 188.94 39.2101C186.25 39.2101 184.13 40.6401 182.58 43.5201V64.5801H172.31Z" fill="white"/>
<path d="M211.45 20.8401C211.45 21.6601 211.28 22.4301 210.95 23.1401C210.62 23.8601 210.17 24.4901 209.59 25.0301C209.02 25.5701 208.35 26.0001 207.59 26.3201C206.83 26.6401 206.02 26.8001 205.16 26.8001C204.32 26.8001 203.54 26.6401 202.81 26.3201C202.08 26.0001 201.44 25.5701 200.87 25.0301C200.31 24.4901 199.86 23.8601 199.55 23.1401C199.23 22.4201 199.07 21.6601 199.07 20.8401C199.07 20.0001 199.23 19.2201 199.55 18.4901C199.87 17.7601 200.31 17.1201 200.87 16.5701C201.43 16.0201 202.08 15.5901 202.81 15.2801C203.54 14.9701 204.32 14.8201 205.16 14.8201C206.02 14.8201 206.83 14.9701 207.59 15.2801C208.35 15.5901 209.02 16.0201 209.59 16.5701C210.16 17.1201 210.62 17.7601 210.95 18.4901C211.28 19.2201 211.45 20.0001 211.45 20.8401ZM210.26 30.2401V64.5801H199.99V30.2401H210.26Z" fill="white"/>
<path d="M239.53 37.76C239.26 38.18 238.98 38.48 238.69 38.65C238.39 38.83 238.01 38.92 237.55 38.92C237.06 38.92 236.58 38.82 236.09 38.6C235.6 38.39 235.08 38.16 234.52 37.92C233.96 37.68 233.32 37.45 232.62 37.24C231.92 37.03 231.11 36.92 230.2 36.92C228.9 36.92 227.9 37.17 227.2 37.67C226.5 38.17 226.16 38.86 226.16 39.74C226.16 40.38 226.39 40.91 226.84 41.33C227.29 41.75 227.89 42.12 228.64 42.44C229.39 42.76 230.24 43.06 231.19 43.35C232.14 43.64 233.11 43.96 234.1 44.31C235.09 44.66 236.06 45.08 237.01 45.55C237.96 46.02 238.81 46.61 239.56 47.3C240.31 48 240.91 48.84 241.37 49.83C241.82 50.82 242.05 52.02 242.05 53.41C242.05 55.11 241.74 56.68 241.12 58.11C240.5 59.55 239.58 60.78 238.35 61.82C237.12 62.86 235.61 63.66 233.81 64.24C232.01 64.81 229.94 65.1 227.6 65.1C226.43 65.1 225.26 64.99 224.09 64.77C222.92 64.55 221.79 64.25 220.7 63.88C219.61 63.5 218.6 63.06 217.67 62.54C216.74 62.02 215.95 61.46 215.29 60.87L217.67 57.1C217.96 56.66 218.3 56.31 218.7 56.06C219.1 55.81 219.62 55.68 220.26 55.68C220.86 55.68 221.39 55.81 221.87 56.08C222.35 56.35 222.86 56.63 223.41 56.94C223.96 57.25 224.61 57.54 225.35 57.8C226.09 58.07 227.02 58.2 228.15 58.2C228.94 58.2 229.62 58.12 230.17 57.95C230.72 57.78 231.16 57.56 231.49 57.27C231.82 56.98 232.06 56.66 232.22 56.31C232.37 55.96 232.45 55.59 232.45 55.22C232.45 54.53 232.22 53.97 231.75 53.53C231.29 53.09 230.68 52.71 229.93 52.39C229.18 52.07 228.32 51.77 227.36 51.5C226.4 51.22 225.42 50.91 224.43 50.56C223.44 50.21 222.46 49.78 221.5 49.29C220.54 48.79 219.68 48.16 218.93 47.4C218.18 46.64 217.57 45.71 217.11 44.6C216.65 43.5 216.41 42.16 216.41 40.59C216.41 39.13 216.69 37.75 217.25 36.43C217.81 35.12 218.66 33.96 219.78 32.97C220.91 31.98 222.32 31.19 224.02 30.6C225.72 30.02 227.71 29.72 229.98 29.72C231.22 29.72 232.41 29.83 233.57 30.05C234.73 30.27 235.82 30.58 236.83 30.98C237.84 31.38 238.77 31.85 239.61 32.39C240.45 32.93 241.19 33.52 241.83 34.16L239.53 37.76Z" fill="white"/>
<path d="M247.68 64.58V30.24H254.04C254.68 30.24 255.22 30.38 255.65 30.67C256.08 30.96 256.38 31.39 256.56 31.96L257.12 33.81C257.69 33.21 258.29 32.67 258.91 32.17C259.53 31.67 260.2 31.24 260.91 30.88C261.63 30.52 262.4 30.23 263.23 30.02C264.06 29.81 264.97 29.71 265.96 29.71C268.04 29.71 269.75 30.25 271.11 31.32C272.47 32.39 273.5 33.82 274.21 35.61C274.78 34.55 275.48 33.65 276.31 32.89C277.14 32.14 278.03 31.53 278.99 31.07C279.95 30.61 280.96 30.26 282.04 30.04C283.11 29.82 284.18 29.71 285.24 29.71C287.2 29.71 288.95 30 290.47 30.59C291.99 31.18 293.27 32.03 294.29 33.14C295.32 34.26 296.1 35.63 296.63 37.25C297.16 38.87 297.42 40.71 297.42 42.76V64.58H287.15V42.76C287.15 39.21 285.63 37.43 282.58 37.43C281.19 37.43 280.03 37.89 279.12 38.8C278.2 39.72 277.75 41.04 277.75 42.76V64.58H267.48V42.76C267.48 40.8 267.09 39.42 266.32 38.62C265.55 37.82 264.41 37.43 262.91 37.43C261.98 37.43 261.11 37.64 260.28 38.06C259.45 38.48 258.67 39.04 257.94 39.75V64.59H247.68V64.58Z" fill="white"/>
<path d="M320 29.71C322.6 29.71 324.98 30.12 327.12 30.94C329.26 31.76 331.1 32.93 332.63 34.45C334.16 35.97 335.36 37.82 336.21 40C337.06 42.17 337.49 44.62 337.49 47.33C337.49 50.07 337.06 52.54 336.21 54.73C335.36 56.93 334.17 58.79 332.63 60.33C331.1 61.86 329.26 63.05 327.12 63.87C324.98 64.7 322.6 65.11 320 65.11C317.37 65.11 314.98 64.7 312.83 63.87C310.68 63.04 308.82 61.86 307.27 60.33C305.72 58.8 304.51 56.93 303.66 54.73C302.81 52.53 302.39 50.07 302.39 47.33C302.39 44.61 302.81 42.17 303.66 40C304.51 37.83 305.71 35.98 307.27 34.45C308.83 32.93 310.68 31.76 312.83 30.94C314.98 30.12 317.37 29.71 320 29.71ZM320 57.5C322.36 57.5 324.1 56.67 325.22 55C326.33 53.33 326.89 50.8 326.89 47.4C326.89 44 326.33 41.47 325.22 39.82C324.11 38.16 322.37 37.34 320 37.34C317.57 37.34 315.79 38.17 314.67 39.82C313.55 41.48 312.98 44 312.98 47.4C312.98 50.8 313.54 53.33 314.67 55C315.8 56.66 317.57 57.5 320 57.5Z" fill="white"/>
<path d="M368.52 55.6401H386.4V64.5801H357.32V16.3301H368.51V55.6401H368.52Z" fill="white"/>
<path d="M405.08 29.71C407.35 29.71 409.43 30.06 411.32 30.77C413.21 31.48 414.83 32.5 416.19 33.85C417.55 35.2 418.61 36.85 419.37 38.8C420.13 40.75 420.51 42.97 420.51 45.44C420.51 46.21 420.48 46.84 420.41 47.33C420.34 47.82 420.22 48.2 420.05 48.49C419.87 48.78 419.64 48.98 419.34 49.09C419.04 49.2 418.66 49.25 418.2 49.25H398.4C398.73 52.12 399.6 54.2 401.02 55.49C402.44 56.78 404.25 57.43 406.48 57.43C407.67 57.43 408.7 57.29 409.56 57C410.42 56.71 411.19 56.39 411.86 56.04C412.53 55.69 413.15 55.37 413.71 55.08C414.27 54.79 414.86 54.65 415.48 54.65C416.3 54.65 416.92 54.95 417.33 55.54L420.31 59.22C419.25 60.43 418.11 61.42 416.88 62.18C415.65 62.94 414.4 63.54 413.11 63.97C411.82 64.4 410.53 64.7 409.24 64.86C407.95 65.03 406.72 65.11 405.55 65.11C403.14 65.11 400.89 64.72 398.78 63.93C396.67 63.15 394.83 61.98 393.25 60.44C391.67 58.89 390.42 56.97 389.51 54.68C388.59 52.38 388.14 49.71 388.14 46.67C388.14 44.37 388.53 42.2 389.32 40.15C390.1 38.1 391.23 36.3 392.7 34.75C394.17 33.21 395.94 31.98 398.03 31.07C400.1 30.17 402.45 29.71 405.08 29.71ZM405.28 36.8C403.32 36.8 401.78 37.36 400.68 38.47C399.58 39.58 398.85 41.19 398.49 43.29H411.31C411.31 42.47 411.21 41.68 410.99 40.91C410.78 40.14 410.44 39.45 409.96 38.84C409.49 38.23 408.86 37.74 408.09 37.37C407.32 36.99 406.38 36.8 405.28 36.8Z" fill="white"/>
<path d="M438.53 29.6501C439.99 29.6501 441.36 29.7901 442.65 30.0801C443.94 30.3701 445.14 30.7801 446.24 31.3101H456.61V35.0501C456.61 35.6201 456.45 36.0801 456.13 36.4101C455.81 36.7401 455.26 36.9901 454.49 37.1701L451.97 37.7301C452.28 38.7201 452.43 39.7501 452.43 40.8101C452.43 42.5301 452.07 44.0801 451.35 45.4501C450.63 46.8201 449.65 47.9801 448.4 48.9401C447.15 49.9001 445.68 50.6401 443.98 51.1601C442.28 51.6801 440.46 51.9401 438.52 51.9401C437.44 51.9401 436.42 51.8701 435.47 51.7401C434.72 52.1901 434.35 52.7001 434.35 53.2801C434.35 53.8601 434.65 54.2801 435.26 54.5301C435.87 54.7901 436.67 54.9601 437.66 55.0701C438.65 55.1701 439.79 55.2201 441.07 55.2201C442.35 55.2201 443.65 55.2801 444.98 55.4001C446.3 55.5201 447.61 55.7301 448.89 56.0101C450.17 56.3001 451.31 56.7601 452.3 57.4001C453.29 58.0401 454.09 58.9001 454.7 59.9801C455.31 61.0501 455.61 62.4201 455.61 64.0801C455.61 65.6301 455.23 67.1501 454.48 68.6301C453.73 70.1101 452.63 71.4301 451.17 72.5801C449.71 73.7301 447.93 74.6601 445.81 75.3501C443.69 76.0501 441.26 76.4001 438.52 76.4001C435.83 76.4001 433.5 76.1501 431.55 75.6401C429.6 75.1301 427.97 74.4601 426.68 73.6301C425.39 72.8001 424.43 71.8401 423.82 70.7601C423.2 69.6801 422.89 68.5501 422.89 67.3801C422.89 65.8601 423.35 64.5701 424.28 63.5201C425.21 62.4701 426.48 61.6501 428.09 61.0501C427.32 60.5401 426.7 59.8901 426.24 59.1001C425.78 58.3101 425.54 57.3001 425.54 56.0901C425.54 55.5801 425.63 55.0501 425.81 54.4901C425.99 53.9301 426.26 53.3801 426.64 52.8501C427.01 52.3201 427.49 51.8101 428.06 51.3301C428.63 50.8401 429.32 50.4101 430.11 50.0401C428.32 49.0901 426.91 47.8301 425.89 46.2701C424.86 44.7001 424.35 42.8801 424.35 40.8101C424.35 39.0901 424.71 37.5401 425.44 36.1601C426.17 34.7801 427.17 33.6101 428.44 32.6501C429.71 31.6901 431.2 30.9501 432.93 30.4301C434.65 29.9101 436.52 29.6501 438.53 29.6501ZM446.14 65.7701C446.14 65.2101 445.97 64.7601 445.63 64.4201C445.29 64.0801 444.82 63.8101 444.24 63.6101C443.66 63.4101 442.97 63.2601 442.19 63.1701C441.41 63.0801 440.56 63.0301 439.66 63.0301C438.75 63.0301 437.82 63.0301 436.85 63.0301C435.88 63.0301 434.92 62.9401 433.97 62.7501C433.33 63.1901 432.81 63.6801 432.4 64.2301C431.99 64.7701 431.79 65.3901 431.79 66.0701C431.79 66.5601 431.89 67.0001 432.11 67.4001C432.32 67.8001 432.69 68.1401 433.22 68.4301C433.75 68.7201 434.46 68.9401 435.36 69.1101C436.25 69.2701 437.39 69.3601 438.76 69.3601C440.24 69.3601 441.45 69.2701 442.4 69.0901C443.35 68.9101 444.11 68.6601 444.67 68.3401C445.23 68.0201 445.62 67.6501 445.85 67.2101C446.03 66.7601 446.14 66.2901 446.14 65.7701ZM438.53 45.6101C440.23 45.6101 441.46 45.1901 442.22 44.3401C442.98 43.4901 443.36 42.3901 443.36 41.0501C443.36 39.6601 442.98 38.5701 442.22 37.7701C441.46 36.9701 440.23 36.5801 438.53 36.5801C436.83 36.5801 435.6 36.9801 434.84 37.7701C434.08 38.5701 433.7 39.6601 433.7 41.0501C433.7 41.7101 433.79 42.3201 433.98 42.8701C434.17 43.4201 434.46 43.9001 434.86 44.3101C435.26 44.7201 435.76 45.0401 436.37 45.2701C436.96 45.4901 437.69 45.6101 438.53 45.6101Z" fill="white"/>
<path d="M484.76 64.5801C483.79 64.5801 483.05 64.4501 482.56 64.1801C482.06 63.9101 481.65 63.3601 481.32 62.5201L480.59 60.6301C479.73 61.3601 478.9 62.0001 478.11 62.5501C477.32 63.1001 476.49 63.5701 475.64 63.9601C474.79 64.3501 473.88 64.6301 472.92 64.8201C471.96 65.0101 470.89 65.1001 469.72 65.1001C468.15 65.1001 466.73 64.9001 465.45 64.4901C464.17 64.0801 463.08 63.4801 462.19 62.6801C461.3 61.8801 460.61 60.8901 460.12 59.7101C459.63 58.5301 459.39 57.1601 459.39 55.6101C459.39 54.3901 459.7 53.1401 460.32 51.8601C460.94 50.5801 462.01 49.4101 463.53 48.3501C465.05 47.3001 467.11 46.4201 469.69 45.7101C472.27 45.0001 475.53 44.6501 479.46 44.6501V43.1801C479.46 41.1501 479.05 39.6901 478.22 38.7801C477.39 37.8801 476.22 37.4301 474.69 37.4301C473.48 37.4301 472.48 37.5601 471.71 37.8301C470.94 38.1001 470.25 38.3901 469.64 38.7201C469.03 39.0501 468.44 39.3501 467.87 39.6101C467.3 39.8801 466.61 40.0101 465.82 40.0101C465.11 40.0101 464.51 39.8401 464.02 39.5001C463.53 39.1601 463.13 38.7301 462.84 38.2201L460.99 35.0101C463.07 33.1801 465.37 31.8101 467.89 30.9201C470.42 30.0301 473.13 29.5801 476.02 29.5801C478.1 29.5801 479.97 29.9201 481.63 30.5901C483.3 31.2601 484.71 32.2001 485.87 33.4001C487.03 34.6001 487.92 36.0301 488.54 37.6901C489.16 39.3501 489.47 41.1601 489.47 43.1201V64.5801H484.76V64.5801ZM472.97 58.3301C474.29 58.3301 475.45 58.1001 476.45 57.6301C477.44 57.1701 478.45 56.4201 479.46 55.3801V50.6801C477.41 50.6801 475.72 50.8101 474.39 51.0801C473.07 51.3501 472.02 51.6801 471.24 52.0801C470.47 52.4801 469.93 52.9401 469.63 53.4501C469.33 53.9601 469.18 54.5201 469.18 55.1201C469.18 56.3001 469.5 57.1301 470.14 57.6101C470.79 58.0901 471.73 58.3301 472.97 58.3301Z" fill="white"/>
<path d="M507.34 15.01V64.58H497.07V15.01H507.34Z" fill="white"/>
</svg>
