<svg id="Camada_1" data-name="Camada 1" xmlns="http://www.w3.org/2000/svg" viewBox="0 0 24 24"><defs><style>.cls-1{fill:none;}.cls-2{fill:#002f67;}</style></defs><path class="cls-1" d="M0,0H24V24H0Z"/><circle class="cls-2" cx="5.5" cy="16.5" r="1.5"/><circle class="cls-2" cx="12.5" cy="16.5" r="1.5"/><path class="cls-2" d="M16,1a7,7,0,0,0-5.75,3L9,4C4.58,4,1,4.5,1,8V18a3,3,0,0,0,1,2.22V22a1,1,0,0,0,1,1H4a1,1,0,0,0,1-1V21h8v1a1,1,0,0,0,1,1h1a1,1,0,0,0,1-1V20.22A3,3,0,0,0,17,18V14.92A7,7,0,0,0,16,1ZM9,6h.29a8.29,8.29,0,0,0-.21,1H3.34C3.89,6.46,5.31,6,9,6ZM3,9H9.08a7,7,0,0,0,1.18,3H3Zm12,9a1,1,0,0,1-.34.73l-.29.27H3.63l-.29-.27A1,1,0,0,1,3,18V14h9.41a6.8,6.8,0,0,0,2.59.92Zm1-5a5,5,0,1,1,5-5A5,5,0,0,1,16,13Zm.5-9H15V9l3.62,2.16.75-1.23L16.5,8.25Z"/></svg>