<svg id="Camada_1" data-name="Camada 1" xmlns="http://www.w3.org/2000/svg" viewBox="0 0 24 24"><defs><style>.cls-1{fill:none;}.cls-2{fill:#002f67;}</style></defs><path class="cls-1" d="M0,0H24V24H0Z"/><circle class="cls-2" cx="5.5" cy="14.5" r="1.5"/><circle class="cls-2" cx="12.5" cy="14.5" r="1.5"/><polygon class="cls-2" points="22.7 17.5 19.7 17.5 19.7 14.5 17.7 14.5 17.7 17.5 14.7 17.5 14.7 19.5 17.7 19.5 17.7 22.5 19.7 22.5 19.7 19.5 22.7 19.5 22.7 17.5"/><path class="cls-2" d="M9,2C4.6,2,1,2.5,1,6V16a2.87,2.87,0,0,0,1,2.2V20a1.08,1.08,0,0,0,1,1H4a1.08,1.08,0,0,0,1-1V19h8v1a1.08,1.08,0,0,0,1,1V17H3.6l-.3-.3A.91.91,0,0,1,3,16V12H15v4.7h2V6C17,2.5,13.4,2,9,2ZM9,4c3.7,0,5.1.5,5.7,1H3.3C3.9,4.5,5.3,4,9,4Zm6,6H3V7H15Z"/></svg>