<svg id="Camada_1" data-name="Camada 1" xmlns="http://www.w3.org/2000/svg" viewBox="0 0 24 24"><defs><style>.cls-1{fill:none;}.cls-2{fill:#002f67;}</style></defs><path class="cls-1" d="M0,0H24V24H0Z"/><path class="cls-2" d="M5.3,5.6a1.93,1.93,0,0,1-.4-2.8,2,2,0,0,1,2.8-.5,2,2,0,0,1,.4,2.8A2,2,0,0,1,5.3,5.6ZM16,19H8.9a3.1,3.1,0,0,1-3-2.5L4,7H2l2,9.8A5,5,0,0,0,8.9,21H16Zm.2-4H11.3l-1-4.1a7.76,7.76,0,0,0,5.1,1.2V10a6.2,6.2,0,0,1-4.7-1.3L9.1,7.5a1.61,1.61,0,0,0-.7-.4,3.4,3.4,0,0,0-1-.1h0A2.26,2.26,0,0,0,5.6,9.6l1.3,5.9A3,3,0,0,0,9.8,18h6.9l3.8,3L22,19.5Z"/><polygon class="cls-2" points="20.18 10.33 18.53 9.7 19.38 7.16 18.43 6.84 16.43 12.84 17.38 13.16 18.21 10.65 19.82 11.27 20.18 10.33"/></svg>