<svg id="Camada_1" data-name="Camada 1" xmlns="http://www.w3.org/2000/svg" viewBox="0 0 24 24"><defs><style>.cls-1{fill:none;}.cls-2{fill:#002f67;}</style></defs><path class="cls-1" d="M0,0H24V24H0Z"/><path class="cls-2" d="M19.16,7.89H18.05V2.78H5.64V7.89h-1A3.12,3.12,0,0,0,1.5,11.06v6.21H5.64v4.14H18.05V17.27h4.14V11.06A3.09,3.09,0,0,0,19.16,7.89Zm-11.45-3H16v3H7.71ZM16,17.27v2.07H7.71V15.2H16Zm2.07-2.07V13.13H5.64V15.2H3.57V11.06A1.08,1.08,0,0,1,4.67,10H19.16a1.08,1.08,0,0,1,1.1,1.1V15.2Z"/><circle class="cls-2" cx="18.05" cy="11.47" r="1.1"/></svg>