<svg id="Camada_1" data-name="Camada 1" xmlns="http://www.w3.org/2000/svg" viewBox="0 0 24 24"><defs><style>.cls-1{fill:none;}.cls-2{fill:#002f67;}</style></defs><path class="cls-1" d="M0,0H24V24H0Z"/><polygon class="cls-2" points="21.5 9.3 19.3 8.4 20.4 5.1 19.1 4.6 16.5 12.5 17.7 13.1 18.8 9.6 21.1 10.5 21.5 9.3"/><polygon class="cls-2" points="23 17.5 20 17.5 20 14.5 18 14.5 18 17.5 15 17.5 15 19.5 18 19.5 18 22.5 20 22.5 20 19.5 23 19.5 23 17.5"/><path class="cls-2" d="M6,16.7,4,7.3H2L4,17a5.06,5.06,0,0,0,5,4.2h5.1v-2H8.9A2.82,2.82,0,0,1,6,16.7Z"/><path class="cls-2" d="M5.3,5.9a2,2,0,0,0,2.8-.5,2,2,0,0,0-.5-2.8,1.93,1.93,0,0,0-2.7.5A2,2,0,0,0,5.3,5.9Z"/><path class="cls-2" d="M16.2,15.3H11.3l-1-4.1a7.76,7.76,0,0,0,5.1,1.2l.7-2.2A7.51,7.51,0,0,1,10.8,9L9.1,7.7a1.61,1.61,0,0,0-.7-.4,3.4,3.4,0,0,0-1-.1h0A2.26,2.26,0,0,0,5.6,9.8l1.3,5.9a3,3,0,0,0,3,2.4h4.2V16.4H17v-.7Z"/></svg>