<svg id="Camada_1" data-name="Camada 1" xmlns="http://www.w3.org/2000/svg" viewBox="0 0 24 24"><defs><style>.cls-1{fill:none;}.cls-2{fill:#002f67;}</style></defs><path class="cls-1" d="M0,0H24V24H0Z"/><path class="cls-2" d="M13.2,4,18,8.8V20H6V4h7.2M14,2H6A2,2,0,0,0,4,4V20a2,2,0,0,0,2,2H18a2,2,0,0,0,2-2V8L14,2Zm-.2,17.1H12.6V17.9h1.2Zm-1.2-4.2H11.4v2.9h1.2Zm4.7-1.1H16.1v2.4h1.2Zm-1.2-1.2H14.9v1.2h1.2Zm-7,1.2H7.9V15H9.1ZM7.9,12.6H6.7v1.2H7.9Zm4.1-3h1.2V8.5H12ZM7.6,9.4v1.8H9.4V9.4ZM10.2,12H6.7V8.5h3.5ZM7.6,16.4v1.8H9.4V16.4Zm2.6,2.7H6.7V15.6h3.5Zm4.4-9.7v1.8h1.8V9.4ZM17.3,12H13.8V8.5h3.5Zm-1.2,5.9V16.1H13.7v1.2h1.2v1.8h2.4V17.9Zm-1.2-4.1H12.5V15h2.4Zm-2.3-1.2H9.1v1.2h1.2V15h1.2V13.8h1.2l-.1-1.2Zm.6-.6V10.8H12V9.6H10.8V12ZM8.9,9.8H8.1v.9H9V9.8Zm0,7.1H8.1v.9H9v-.9ZM16,9.8h-.9v.9H16Z"/></svg>