<svg id="Camada_1" data-name="Camada 1" xmlns="http://www.w3.org/2000/svg" viewBox="0 0 24 24"><defs><style>.cls-1{fill:none;}.cls-2{fill:#fff;}</style></defs><path class="cls-1" d="M0,0H24V24H0Z"/><path class="cls-2" d="M19.23,13l-3.51-1.76h-1V10.6H16a3,3,0,0,0,2.19-.79c.92-.93.92-2.34.91-3.83V5.61c0-.25,0-.5,0-.75,0-1.33,0-2.6-.79-3.46A2.88,2.88,0,0,0,16.19.64H7.88a3,3,0,0,0-2.19.79c-.92.92-.92,2.33-.91,3.82V6c0,1.48,0,2.88.9,3.79a2.94,2.94,0,0,0,2.19.79H9.35V15.4a13.3,13.3,0,0,0-2.45-.48,2.17,2.17,0,0,0-1.53.64L3.86,17.1l5.51,5.51a2.51,2.51,0,0,0,1.79.75H18a2.15,2.15,0,0,0,2.13-1.81l.87-5.1A3.26,3.26,0,0,0,19.23,13ZM7.87,8.43a1,1,0,0,1-.65-.16A4.61,4.61,0,0,1,7,6V5.26A4.75,4.75,0,0,1,7.22,3a1.15,1.15,0,0,1,.67-.15h8.3a1,1,0,0,1,.57.11,4.33,4.33,0,0,1,.17,1.9c0,.26,0,.52,0,.79V6a4.85,4.85,0,0,1-.28,2.29,1.13,1.13,0,0,1-.66.15H14.77V6.56a2.71,2.71,0,1,0-5.42,0V8.43ZM18,21.19H11.16a.36.36,0,0,1-.26-.11l-4-4,4.61,1V6.56A.53.53,0,0,1,12.06,6a.54.54,0,0,1,.54.54v6.5h1.91l3.75,1.88a1.09,1.09,0,0,1,.59,1.15Z"/></svg>