<svg id="Camada_1" data-name="Camada 1" xmlns="http://www.w3.org/2000/svg" viewBox="0 0 24 24"><defs><style>.cls-1{fill:none;}.cls-2{fill:#fff;}</style></defs><path class="cls-1" d="M0,0H24V24H0Z"/><path class="cls-2" d="M15.9,8.9v2.8H8.1V8.9h7.8m.2-.7H7.9a.47.47,0,0,0-.5.5v3.1a.47.47,0,0,0,.5.5h8.2a.47.47,0,0,0,.5-.5V8.7A.47.47,0,0,0,16.1,8.2ZM9.4,11a.79.79,0,0,1-.8-.8.71.71,0,0,1,.8-.7.79.79,0,0,1,.8.8A.71.71,0,0,1,9.4,11Z"/><path class="cls-2" d="M15.9,13.6v2.8H8.1V13.6h7.8m.2-.6H7.9a.47.47,0,0,0-.5.5v3.1a.47.47,0,0,0,.5.5h8.2a.47.47,0,0,0,.5-.5V13.5A.47.47,0,0,0,16.1,13ZM9.4,15.8a.79.79,0,0,1-.8-.8.74.74,0,0,1,.8-.8.8.8,0,1,1,0,1.6Z"/><path class="cls-2" d="M14,2H6A2,2,0,0,0,4,4V20a2,2,0,0,0,2,2H18a2,2,0,0,0,2-2V8Zm1.9,18H10.17a1.06,1.06,0,0,0,0-.2.79.79,0,0,0-.8-.8.85.85,0,0,0-.8.7.94.94,0,0,0,.06.3H8.1V18.3h7.8ZM18,20H16.6V18.2a.47.47,0,0,0-.5-.5H7.9a.47.47,0,0,0-.5.5V20H6V4h7.2L18,8.8Z"/></svg>