<svg id="Camada_1" data-name="Camada 1" xmlns="http://www.w3.org/2000/svg" viewBox="0 0 24 24"><defs><style>.cls-1{fill:none;}.cls-2{fill:#fff;}</style></defs><path class="cls-1" d="M0,0H24V24H0Z"/><polygon class="cls-2" points="22.7 17.5 19.7 17.5 19.7 14.5 17.7 14.5 17.7 17.5 14.7 17.5 14.7 19.5 17.7 19.5 17.7 22.5 19.7 22.5 19.7 19.5 22.7 19.5 22.7 17.5"/><path class="cls-2" d="M4.19,20.5V10.35H9.1V7.55H20.8V16.7h1.4V6.15a2.44,2.44,0,0,0-2.3-2.5H5.09a2.38,2.38,0,0,0-2.3,2.5V19.5A2.44,2.44,0,0,0,5.09,22H16.9V20.6H4.19Z"/></svg>