<svg id="Camada_1" data-name="Camada 1" xmlns="http://www.w3.org/2000/svg" viewBox="0 0 24 24"><defs><style>.cls-1{fill:none;}.cls-2{fill:#fff;}</style></defs><path class="cls-1" d="M0,0H24V24H0Z"/><path class="cls-2" d="M12,1.08c-5.09,0-9.26.58-9.26,4.63V17.29A3.28,3.28,0,0,0,3.9,19.83v2.09a1.16,1.16,0,0,0,1.15,1.16H6.21a1.16,1.16,0,0,0,1.16-1.16V20.76h9.26v1.16a1.25,1.25,0,0,0,1.16,1.16H19a1.25,1.25,0,0,0,1.15-1.16V19.83a3.28,3.28,0,0,0,1.16-2.54V5.71C21.26,1.66,17.09,1.08,12,1.08Zm6.6,3.47H5.4C6,4,7.72,3.4,12,3.4S17.9,4,18.6,4.55ZM19,6.87v3.47H5.05V6.87ZM18.6,18.1l-.35.35H5.75L5.4,18.1a1.09,1.09,0,0,1-.35-.81V12.66H19v4.63A1.09,1.09,0,0,1,18.6,18.1Z"/><circle class="cls-2" cx="7.95" cy="15.55" r="1.74"/><circle class="cls-2" cx="16.05" cy="15.55" r="1.74"/></svg>