<svg id="Camada_1" data-name="Camada 1" xmlns="http://www.w3.org/2000/svg" viewBox="0 0 24 24"><defs><style>.cls-1{fill:none;}.cls-2{fill:#fff;}</style></defs><path class="cls-1" d="M0,0H24V24H0Z"/><polygon class="cls-2" points="23 17.5 20 17.5 20 14.5 18 14.5 18 17.5 15 17.5 15 19.5 18 19.5 18 22.5 20 22.5 20 19.5 23 19.5 23 17.5"/><path class="cls-2" d="M10.9,11.3a1.27,1.27,0,0,0,.6.1,2.86,2.86,0,0,0,2.8-2.8,2.78,2.78,0,0,0-2.8-2.7,1.27,1.27,0,0,0-.6.1,4.27,4.27,0,0,1,1,2.7A4,4,0,0,1,10.9,11.3Z"/><path class="cls-2" d="M7.6,13.9C5.3,13.9.7,15.1.7,17.4V19H14.5V17.2C14.5,15,9.9,13.9,7.6,13.9ZM3,17a9.31,9.31,0,0,1,4.6-1.3A9.65,9.65,0,0,1,12.2,17Z"/><path class="cls-2" d="M17.4,15.8a9,9,0,0,0-3.6-1.4,4.36,4.36,0,0,1,1.7,2.7h1.9Z"/><path class="cls-2" d="M7.6,12.1a3.54,3.54,0,0,0,3.5-3.5A3.46,3.46,0,0,0,7.6,5.2,3.52,3.52,0,0,0,4.1,8.6,3.61,3.61,0,0,0,7.6,12.1Zm0-4.9a1.5,1.5,0,1,1,0,3A1.63,1.63,0,0,1,6.1,8.6,1.45,1.45,0,0,1,7.6,7.2Z"/></svg>