<svg id="Camada_1" data-name="Camada 1" xmlns="http://www.w3.org/2000/svg" viewBox="0 0 24 24"><defs><style>.cls-1{fill:none;}.cls-2{fill:#fff;}</style></defs><path class="cls-1" d="M0,0H24V24H0Z"/><path class="cls-2" d="M15.3,21.6H13.1V19.4h2.2ZM13.1,14H10.9v5.3h2.2Zm8.5-2H19.4v4.4h2.2ZM19.4,9.8H17.2V12h2.2ZM6.7,12H4.6v2.2H6.8V12ZM4.6,9.8H2.4V12H4.6ZM12,4.4h2.2v-2H12ZM4,4V7.3H7.3V4ZM8.7,8.7H2.4V2.4H8.8V8.7ZM4,16.7V20H7.3V16.7Zm4.7,4.9H2.4V15.2H8.8v6.4ZM16.7,4V7.3H20V4Zm4.9,4.7H15.2V2.4h6.4ZM19.4,19.4V16.1H15v2.2h2.2v3.3h4.4V19.4ZM17.3,12H12.9v2.2h4.4ZM13.1,9.8H6.7V12H8.9v2.2h2.2V12h2.2V9.8Zm1.1-1.1V6.6H12V4.4H9.8V8.8h4.4Zm-7.8-4H4.9V6.3H6.5V4.7Zm0,12.9H4.9v1.6H6.5V17.6ZM19.3,4.7H17.7V6.3h1.6Z"/></svg>