<?xml version="1.0" encoding="utf-8"?>
<!-- Generator: Adobe Illustrator 24.2.3, SVG Export Plug-In . SVG Version: 6.00 Build 0)  -->
<svg version="1.1" id="Camada_1" xmlns="http://www.w3.org/2000/svg" xmlns:xlink="http://www.w3.org/1999/xlink" x="0px" y="0px"
	 viewBox="0 0 24 24" style="enable-background:new 0 0 24 24;" xml:space="preserve">
<style type="text/css">
	.st0{fill:none;}
	.st1{fill:#002F67;}
</style>
<path class="st0" d="M0,0h24v24H0V0z"/>
<g>
	<polygon class="st1" points="21.5,9.3 19.3,8.4 20.4,5.1 19.1,4.6 16.5,12.5 17.7,13.1 18.8,9.6 21.1,10.5 	"/>
	<g>
		<g>
			<polygon class="st1" points="23,17.5 20,17.5 20,14.5 18,14.5 18,17.5 15,17.5 15,19.5 18,19.5 18,22.5 20,22.5 20,19.5 23,19.5 
							"/>
		</g>
	</g>
	<path class="st1" d="M6,16.7L4,7.3H2L4,17c0.4,2.4,2.5,4.2,5,4.2h5.1v-2H8.9C7.5,19.3,6.2,18.2,6,16.7z"/>
	<path class="st1" d="M5.3,5.9c0.9,0.6,2.2,0.4,2.8-0.5s0.4-2.2-0.5-2.8C6.7,2,5.5,2.2,4.9,3.1C4.2,4,4.5,5.3,5.3,5.9z"/>
	<path class="st1" d="M16.2,15.3H14h-2.7l-1-4.1c1.6,0.9,3.3,1.5,5.1,1.2l0.7-2.2C14.5,10.5,12,10,10.8,9L9.1,7.7
		C8.9,7.5,8.7,7.4,8.4,7.3s-0.7-0.1-1-0.1l0,0c-1.2,0.2-2,1.4-1.8,2.6l1.3,5.9c0.3,1.4,1.5,2.4,3,2.4h4.2v-1.7H17v-0.7L16.2,15.3z"
		/>
</g>
</svg>
