<?xml version="1.0" encoding="utf-8"?>
<!-- Generator: Adobe Illustrator 24.2.3, SVG Export Plug-In . SVG Version: 6.00 Build 0)  -->
<svg version="1.1" id="Camada_1" xmlns="http://www.w3.org/2000/svg" xmlns:xlink="http://www.w3.org/1999/xlink" x="0px" y="0px"
	 viewBox="0 0 24 24" style="enable-background:new 0 0 24 24;" xml:space="preserve">
<style type="text/css">
	.st0{fill:none;}
	.st1{fill:#002F67;}
</style>
<g>
	<rect class="st0" width="24" height="24"/>
</g>
<g>
	<g>
		<g>
			<polygon class="st1" points="23,18 20,18 20,15 18,15 18,18 15,18 15,20 18,20 18,23 20,23 20,20 23,20 			"/>
		</g>
	</g>
	<path class="st1" d="M22,11.2V4H5.6L8,1.6H5.1L1.7,5l3.4,3.4H8L5.6,6H20v3.2H3.6V16h6.1v2.7c-0.7,0.4-1.3,1.1-1.3,2
		c0,1.2,1,2.3,2.3,2.3c1.2,0,2.3-1,2.3-2.3c0-0.9-0.5-1.6-1.3-2V14H5.6v-2.8H22z"/>
</g>
</svg>
