<?xml version="1.0" encoding="utf-8"?>
<!-- Generator: Adobe Illustrator 24.2.3, SVG Export Plug-In . SVG Version: 6.00 Build 0)  -->
<svg version="1.1" id="Camada_1" xmlns="http://www.w3.org/2000/svg" xmlns:xlink="http://www.w3.org/1999/xlink" x="0px" y="0px"
	 viewBox="0 0 24 24" style="enable-background:new 0 0 24 24;" xml:space="preserve">
<style type="text/css">
	.st0{fill:none;}
	.st1{fill:#002F67;}
</style>
<g>
	<rect class="st0" width="24" height="24"/>
</g>
<g>
	<g>
		<rect x="2" y="4" class="st1" width="15" height="2"/>
		<path class="st1" d="M15,17h2v-3h1v-2l-1-5H2l-1,5v2h1v6h9v-6h4V17z M9,18H4v-4h5V18z M3,12l0.6-3h11.7l0.6,3H3z"/>
		<polygon class="st1" points="23,18 20,18 20,15 18,15 18,18 15,18 15,20 18,20 18,23 20,23 20,20 23,20 		"/>
	</g>
</g>
</svg>
