<?xml version="1.0" encoding="utf-8"?>
<!-- Generator: Adobe Illustrator 24.2.3, SVG Export Plug-In . SVG Version: 6.00 Build 0)  -->
<svg version="1.1" id="Camada_1" xmlns="http://www.w3.org/2000/svg" xmlns:xlink="http://www.w3.org/1999/xlink" x="0px" y="0px"
	 viewBox="0 0 24 24" style="enable-background:new 0 0 24 24;" xml:space="preserve">
<style type="text/css">
	.st0{fill:none;}
	.st1{fill:#002F67;}
</style>
<path class="st0" d="M0,0h24v24H0V0z"/>
<g>
	<g>
		<g>
			<polygon class="st1" points="23,17.5 20,17.5 20,14.5 18,14.5 18,17.5 15,17.5 15,19.5 18,19.5 18,22.5 20,22.5 20,19.5 23,19.5 
							"/>
		</g>
	</g>
</g>
<path class="st1" d="M-10.3,1.3"/>
<circle class="st0" cx="7.6" cy="8.5" r="1.5"/>
<path class="st0" d="M2.9,17h9.4c-0.9-0.6-2.9-1.3-4.7-1.3S3.7,16.4,2.9,17z"/>
<path class="st1" d="M11.2,11.2c0.2,0.1,0.4,0.1,0.6,0.1c1.5,0,2.8-1.3,2.8-2.8s-1.3-2.8-2.8-2.8c-0.2,0-0.4,0-0.6,0.1
	c0.6,0.7,1,1.7,1,2.7S11.8,10.5,11.2,11.2z"/>
<path class="st1" d="M7.6,13.8c-2.3,0-7,1.2-7,3.5V19h14v-1.8C14.6,14.9,9.9,13.8,7.6,13.8z M2.9,17c0.8-0.6,2.9-1.3,4.7-1.3
	s3.8,0.7,4.7,1.3H2.9z"/>
<path class="st1" d="M17.4,15.8c-0.9-0.7-2.2-1.1-3.6-1.4c0.9,0.7,1.5,1.6,1.7,2.7h1.9V15.8z"/>
<path class="st1" d="M7.6,12c1.9,0,3.5-1.6,3.5-3.5S9.5,5,7.6,5C5.7,5,4.1,6.6,4.1,8.5S5.7,12,7.6,12z M7.6,7c0.8,0,1.5,0.7,1.5,1.5
	S8.4,10,7.6,10S6.1,9.3,6.1,8.5S6.8,7,7.6,7z"/>
</svg>
