<?xml version="1.0" encoding="utf-8"?>
<!-- Generator: Adobe Illustrator 24.2.3, SVG Export Plug-In . SVG Version: 6.00 Build 0)  -->
<svg version="1.1" id="Camada_1" xmlns="http://www.w3.org/2000/svg" xmlns:xlink="http://www.w3.org/1999/xlink" x="0px" y="0px"
	 viewBox="0 0 24 24" style="enable-background:new 0 0 24 24;" xml:space="preserve">
<style type="text/css">
	.st0{fill:none;}
	.st1{fill:#FFFFFF;}
</style>
<path class="st0" d="M0,0h24v24H0V0z"/>
<path class="st1" d="M19,15v4H5v-4H19 M20,13H4c-0.5,0-1,0.4-1,1v6c0,0.5,0.5,1,1,1h16c0.5,0,1-0.5,1-1v-6C21,13.4,20.5,13,20,13z
	 M7,18.5c-0.8,0-1.5-0.7-1.5-1.5s0.7-1.5,1.5-1.5s1.5,0.7,1.5,1.5S7.8,18.5,7,18.5z M19,5v4H5V5H19 M20,3H4C3.5,3,3,3.5,3,4v6
	c0,0.6,0.5,1,1,1h16c0.5,0,1-0.4,1-1V4C21,3.5,20.5,3,20,3z M7,8.5C6.2,8.5,5.5,7.8,5.5,7S6.2,5.5,7,5.5S8.5,6.2,8.5,7
	S7.8,8.5,7,8.5z"/>
</svg>
