<?xml version="1.0" encoding="utf-8"?>
<!-- Generator: Adobe Illustrator 24.2.3, SVG Export Plug-In . SVG Version: 6.00 Build 0)  -->
<svg version="1.1" id="Camada_1" xmlns="http://www.w3.org/2000/svg" xmlns:xlink="http://www.w3.org/1999/xlink" x="0px" y="0px"
	 viewBox="0 0 24 24" style="enable-background:new 0 0 24 24;" xml:space="preserve">
<style type="text/css">
	.st0{fill:none;}
	.st1{fill:#002F67;}
</style>
<path class="st0" d="M0,0h24v24H0V0z"/>
<g>
	<path class="st1" d="M16.6,7.5v3.3H7.4V7.5H16.6 M16.9,6.7H7.1C6.8,6.7,6.5,7,6.5,7.3V11c0,0.3,0.3,0.6,0.6,0.6h9.8
		c0.3,0,0.6-0.3,0.6-0.6V7.3C17.5,7,17.2,6.7,16.9,6.7z M8.9,10.1c-0.5,0-0.9-0.4-0.9-1c0-0.5,0.4-0.9,0.9-0.9s0.9,0.4,0.9,0.9
		C9.9,9.7,9.4,10.1,8.9,10.1z"/>
	<path class="st1" d="M16.6,13.2v3.3H7.4v-3.3H16.6 M16.9,12.4H7.1c-0.3,0-0.6,0.3-0.6,0.6v3.7c0,0.3,0.3,0.6,0.6,0.6h9.8
		c0.3,0,0.6-0.3,0.6-0.6V13C17.5,12.7,17.2,12.4,16.9,12.4z M8.9,15.8c-0.5,0-0.9-0.4-0.9-0.9S8.4,14,8.9,14s0.9,0.4,0.9,0.9
		C9.9,15.4,9.4,15.8,8.9,15.8z"/>
	<path class="st1" d="M20.5,2.2h-17C2.1,2.2,1,3.4,1,4.9v15.7c0,1.4,1.1,2.6,2.4,2.6h17.1c1.3,0,2.4-1.2,2.4-2.6V4.9
		C23,3.4,21.9,2.2,20.5,2.2z M16.6,21.8H7.4v-2.9h9.3v2.9H16.6z M21.3,21.8h-3.8v-3.1c0-0.3-0.3-0.6-0.6-0.6H7.1
		c-0.3,0-0.6,0.3-0.6,0.6v3.1h-4V5.4h18.9v16.4H21.3z"/>
	<circle class="st1" cx="8.9" cy="20.5" r="0.9"/>
</g>
</svg>
