<?xml version="1.0" encoding="utf-8"?>
<!-- Generator: Adobe Illustrator 24.2.3, SVG Export Plug-In . SVG Version: 6.00 Build 0)  -->
<svg version="1.1" id="Camada_1" xmlns="http://www.w3.org/2000/svg" xmlns:xlink="http://www.w3.org/1999/xlink" x="0px" y="0px"
	 viewBox="0 0 24 24" style="enable-background:new 0 0 24 24;" xml:space="preserve">
<style type="text/css">
	.st0{fill:none;}
	.st1{fill:#002F67;}
</style>
<path class="st0" d="M0,0h24v24H0V0z"/>
<path class="st0" d="M0,0h24v24H0V0z"/>
<path class="st0" d="M0,0h24v24H0V0z"/>
<g>
	<rect class="st0" width="24" height="24"/>
</g>
<g>
	<g>
		<g>
			<polygon class="st1" points="22.7,17.5 19.7,17.5 19.7,14.5 17.7,14.5 17.7,17.5 14.7,17.5 14.7,19.5 17.7,19.5 17.7,22.5 
				19.7,22.5 19.7,19.5 22.7,19.5 			"/>
		</g>
	</g>
	<path class="st1" d="M3.2,20.5V10.3h5.9V6.2h11.7v10.5h1.4V4.8c0-1.3-1-2.5-2.3-2.5H4.1c-1.3,0-2.3,1.1-2.3,2.5v14.7
		c0,1.3,1,2.5,2.3,2.5h12.8v-1.4H3.2z"/>
</g>
</svg>
