<?xml version="1.0" encoding="UTF-8" standalone="no"?>
<svg
   xmlns:dc="http://purl.org/dc/elements/1.1/"
   xmlns:cc="http://creativecommons.org/ns#"
   xmlns:rdf="http://www.w3.org/1999/02/22-rdf-syntax-ns#"
   xmlns:svg="http://www.w3.org/2000/svg"
   xmlns="http://www.w3.org/2000/svg"
   xmlns:sodipodi="http://sodipodi.sourceforge.net/DTD/sodipodi-0.dtd"
   xmlns:inkscape="http://www.inkscape.org/namespaces/inkscape"
   version="1.1"
   id="svg2"
   xml:space="preserve"
   width="1799.0667"
   height="704.77332"
   viewBox="0 0 1799.0667 704.77332"
   sodipodi:docname="LOGO_REMOB_2020.ai"><metadata
     id="metadata8"><rdf:RDF><cc:Work
         rdf:about=""><dc:format>image/svg+xml</dc:format><dc:type
           rdf:resource="http://purl.org/dc/dcmitype/StillImage" /></cc:Work></rdf:RDF></metadata><defs
     id="defs6"><clipPath
       clipPathUnits="userSpaceOnUse"
       id="clipPath18"><path
         d="M 0,528.58 H 1349.298 V 0 H 0 Z"
         id="path16" /></clipPath></defs><sodipodi:namedview
     pagecolor="#ffffff"
     bordercolor="#666666"
     borderopacity="1"
     objecttolerance="10"
     gridtolerance="10"
     guidetolerance="10"
     inkscape:pageopacity="0"
     inkscape:pageshadow="2"
     inkscape:window-width="640"
     inkscape:window-height="480"
     id="namedview4" /><g
     id="g10"
     inkscape:groupmode="layer"
     inkscape:label="LOGO_REMOB_2020"
     transform="matrix(1.3333333,0,0,-1.3333333,0,704.77333)"><g
       id="g12"><g
         id="g14"
         clip-path="url(#clipPath18)"><g
           id="g20"
           transform="translate(258.2334,385.4915)"><path
             d="m 0,0 c -5.148,0 -9.322,4.173 -9.322,9.322 0,5.148 4.174,9.321 9.322,9.321 5.147,0 9.321,-4.173 9.321,-9.321 C 9.321,4.173 5.147,0 0,0 m 29.272,7.675 c 0.031,0.546 0.049,1.094 0.049,1.647 0,8.255 -3.434,15.718 -8.942,21.052 -0.466,0.451 -0.945,0.887 -1.44,1.306 -4.106,3.484 -9.178,5.859 -14.754,6.66 -0.678,0.097 -1.364,0.167 -2.054,0.217 -0.705,0.051 -1.414,0.086 -2.131,0.086 -8.069,0 -15.387,-3.277 -20.694,-8.569 l -38.998,17.482 19.933,43.478 -18.179,8.335 -20.004,-43.632 -45.742,20.505 32.812,12.663 -7.201,18.658 -64.586,-24.925 24.926,-64.586 18.658,7.201 -12.603,32.655 45.4,-20.352 -51.977,-113.367 c 7.088,-0.409 13.509,-3.343 18.37,-7.919 l 51.857,113.105 38.832,-17.407 c -0.079,-0.872 -0.126,-1.754 -0.126,-2.646 0,-8.19 3.379,-15.602 8.811,-20.927 l -66.833,-148.069 18.229,-8.228 L -2.312,-19.9 C -1.549,-19.96 -0.779,-20 0,-20 c 8.429,0 16.032,3.58 21.387,9.293 l 153.292,-68.717 8.181,18.25 z"
             style="fill:#6599cc;fill-opacity:1;fill-rule:nonzero;stroke:none"
             id="path22" /></g><g
           id="g24"
           transform="translate(97.2178,260.0369)"><path
             d="m 0,0 -43.515,-94.911 18.18,-8.335 43.31,94.463 C 10.951,-8.046 4.662,-4.816 0,0"
             style="fill:#6599cc;fill-opacity:1;fill-rule:nonzero;stroke:none"
             id="path26" /></g><g
           id="g28"
           transform="translate(89.9024,287.8235)"><path
             d="m 0,0 -9.13,4.387 -4.034,-8.398 12.328,-5.923 c -0.071,0.832 -0.115,1.673 -0.115,2.523 0,2.56 0.332,5.043 0.951,7.411"
             style="fill:#f0545c;fill-opacity:1;fill-rule:nonzero;stroke:none"
             id="path30" /></g><g
           id="g32"
           transform="translate(317.2256,178.6101)"><path
             d="m 0,0 -175.449,84.292 c -1.999,-2.678 -4.446,-5.002 -7.225,-6.865 L -3.835,-8.493 0.495,0.521 0.296,0.616 Z"
             style="fill:#f0545c;fill-opacity:1;fill-rule:nonzero;stroke:none"
             id="path34" /></g><g
           id="g36"
           transform="translate(122.5528,272.1375)"><path
             d="m 0,0 c -1.283,-0.665 -2.735,-1.046 -4.279,-1.046 -4.523,0 -8.29,3.221 -9.14,7.493 -0.054,0.268 -0.093,0.541 -0.123,0.817 -0.036,0.333 -0.06,0.669 -0.06,1.011 0,5.149 4.174,9.322 9.323,9.322 5.147,0 9.321,-4.173 9.321,-9.322 C 5.042,4.963 3.301,2.076 0.697,0.423 0.468,0.278 0.242,0.125 0,0 m 24.973,10.19 c -0.495,7.64 -3.928,14.492 -9.177,19.434 -4.861,4.576 -11.282,7.51 -18.37,7.919 -0.565,0.033 -1.133,0.054 -1.705,0.054 -6.236,0 -12.019,-1.962 -16.776,-5.294 l -12.264,5.893 -8.66,-18.028 0.199,-0.095 9.13,-4.387 c -0.62,-2.368 -0.952,-4.851 -0.952,-7.411 0,-0.85 0.044,-1.691 0.116,-2.523 0.593,-6.909 3.59,-13.141 8.151,-17.853 4.662,-4.816 10.951,-8.045 17.975,-8.782 1.012,-0.107 2.04,-0.163 3.081,-0.163 6.017,0 11.618,1.823 16.278,4.946 2.779,1.863 5.226,4.187 7.225,6.864 l 175.449,-84.291 0.296,0.615 8.364,17.412 z"
             style="fill:#1b3664;fill-opacity:1;fill-rule:nonzero;stroke:none"
             id="path38" /></g><g
           id="g40"
           transform="translate(273.0284,152.1033)"><path
             d="m 0,0 110.858,243.069 0.621,-0.283 0.027,0.059 -9.098,4.149 L -9.82,0.921 c 0.725,0.054 1.456,0.09 2.196,0.09 C -4.987,1.011 -2.433,0.656 0,0"
             style="fill:#f0545c;fill-opacity:1;fill-rule:nonzero;stroke:none"
             id="path42" /></g><g
           id="g44"
           transform="translate(241.8995,106.303)"><path
             d="m 0,0 -6.636,-14.549 8.478,-3.867 5.287,11.594 C 4.384,-4.967 1.979,-2.652 0,0"
             style="fill:#f0545c;fill-opacity:1;fill-rule:nonzero;stroke:none"
             id="path46" /></g><g
           id="g48"
           transform="translate(265.4043,114.4714)"><path
             d="m 0,0 c -2.917,0 -5.508,1.35 -7.217,3.448 -0.162,0.199 -0.327,0.396 -0.472,0.608 -1.029,1.498 -1.633,3.311 -1.633,5.266 0,4.787 3.61,8.726 8.256,9.256 0.254,0.029 0.512,0.038 0.771,0.047 0.099,0.004 0.194,0.018 0.295,0.018 5.147,0 9.321,-4.173 9.321,-9.321 C 9.321,4.173 5.147,0 0,0 M 81.27,19.656 97.037,-26.473 29.182,6.469 c 0.091,0.939 0.139,1.89 0.139,2.853 0,6.115 -1.884,11.798 -5.1,16.503 l 112.459,246.577 -17.577,8.015 -0.621,0.284 L 7.624,37.632 C 5.191,38.288 2.637,38.643 0,38.643 c -0.74,0 -1.471,-0.036 -2.196,-0.09 -6.989,-0.522 -13.301,-3.5 -18.075,-8.076 l -193.228,93.805 -8.734,-17.992 193.092,-93.74 c -0.116,-1.061 -0.181,-2.137 -0.181,-3.228 0,-6.553 2.171,-12.603 5.817,-17.49 1.979,-2.652 4.384,-4.967 7.129,-6.822 l -5.287,-11.594 -0.027,-0.059 18.197,-8.298 6.908,15.147 c 6.635,0.773 12.596,3.773 17.125,8.226 l 67.512,-32.775 -45.864,-15.678 6.469,-18.924 78.304,26.765 -26.766,78.304 z"
             style="fill:#1b3664;fill-opacity:1;fill-rule:nonzero;stroke:none"
             id="path50" /></g><g
           id="g52"
           transform="translate(505.9698,336.5925)"><path
             d="m 0,0 c 3.884,0 6.898,1.165 9.05,3.505 2.139,2.341 3.217,5.187 3.217,8.528 0,3.593 -1.14,6.52 -3.405,8.777 C 6.595,23.067 3.645,24.196 0,24.196 H -12.261 V 0 Z M -26.947,37.611 H -0.12 c 5.098,0 9.428,-0.797 12.989,-2.384 3.564,-1.589 6.433,-3.616 8.623,-6.079 2.179,-2.468 3.781,-5.164 4.791,-8.087 1.008,-2.927 1.518,-5.725 1.518,-8.399 0,-5.266 -1.112,-9.927 -3.337,-13.979 -2.225,-4.056 -5.647,-7.294 -10.257,-9.718 L 32.901,-46.017 H 15.663 l -16.39,32.976 h -11.534 v -32.976 h -14.686 z"
             style="fill:#1b3664;fill-opacity:1;fill-rule:nonzero;stroke:none"
             id="path54" /></g><g
           id="g56"
           transform="translate(550.1612,374.2034)"><path
             d="M 0,0 H 52.442 V -13.918 H 15.29 V -33.6 H 42.61 V -47.642 H 15.29 V -69.458 H 55.233 V -83.626 H 0 Z"
             style="fill:#1b3664;fill-opacity:1;fill-rule:nonzero;stroke:none"
             id="path58" /></g><g
           id="g60"
           transform="translate(647.878,304.6189)"><path
             d="m 0,0 c 9.229,0 16.267,2.299 21.131,6.896 4.852,4.596 7.28,11.324 7.28,20.186 0,8.777 -2.246,15.715 -6.738,20.812 C 17.184,52.99 9.96,55.541 0,55.541 H -13.472 V 0 Z M -28.763,69.584 H 1.462 c 6.31,0 12.096,-0.836 17.357,-2.508 5.263,-1.671 9.792,-4.222 13.599,-7.648 3.802,-3.426 6.754,-7.816 8.861,-13.164 2.105,-5.35 3.156,-11.66 3.156,-18.93 0,-6.941 -1.07,-12.977 -3.218,-18.117 C 39.075,4.076 36.078,-0.229 32.231,-3.695 28.395,-7.166 23.837,-9.757 18.576,-11.473 13.315,-13.186 7.572,-14.041 1.338,-14.041 h -30.101 z"
             style="fill:#1b3664;fill-opacity:1;fill-rule:nonzero;stroke:none"
             id="path62" /></g><g
           id="g64"
           transform="translate(707.2442,374.2034)"><path
             d="M 0,0 H 52.44 V -13.918 H 15.298 V -33.6 H 42.612 V -47.642 H 15.298 V -69.458 H 55.233 V -83.626 H 0 Z"
             style="fill:#1b3664;fill-opacity:1;fill-rule:nonzero;stroke:none"
             id="path66" /></g><g
           id="g68"
           transform="translate(815.546,300.325)"><path
             d="m 0,0 c 6.425,0 11.324,1.6 14.701,4.798 3.381,3.198 5.072,7.881 5.072,14.045 0,6.108 -1.563,10.934 -4.693,14.485 C 11.953,36.875 6.934,38.647 0,38.647 H -9.37 V 0 Z M -20.014,48.42 H 1.018 c 4.394,0 8.419,-0.583 12.077,-1.744 3.664,-1.165 6.815,-2.939 9.465,-5.323 2.644,-2.386 4.699,-5.439 6.169,-9.161 1.461,-3.725 2.193,-8.113 2.193,-13.174 0,-4.827 -0.75,-9.029 -2.24,-12.606 C 27.193,2.834 25.104,-0.163 22.434,-2.576 19.754,-4.989 16.592,-6.792 12.935,-7.98 9.267,-9.175 5.272,-9.771 0.934,-9.771 h -20.948 z"
             style="fill:#1b3664;fill-opacity:1;fill-rule:nonzero;stroke:none"
             id="path70" /></g><g
           id="g72"
           transform="translate(856.8565,348.7449)"><path
             d="M 0,0 H 36.498 V -9.684 H 10.643 v -13.699 h 19.009 v -9.77 H 10.643 v -15.181 h 27.795 v -9.859 H 0 Z"
             style="fill:#1b3664;fill-opacity:1;fill-rule:nonzero;stroke:none"
             id="path74" /></g><g
           id="g76"
           transform="translate(370.1875,271.2292)"><path
             d="M 0,0 H 24.402 L 54.094,-53.411 83.104,0 h 24.572 l 5.29,-113.818 H 87.198 l -3.242,74.4 -23.549,-44.367 H 47.098 L 22.185,-39.93 19.283,-113.818 H -5.289 Z"
             style="fill:#1b3664;fill-opacity:1;fill-rule:nonzero;stroke:none"
             id="path78" /></g><g
           id="g80"
           transform="translate(549.7032,178.7414)"><path
             d="m 0,0 c 5.005,0 9.497,0.965 13.48,2.901 3.981,1.932 7.365,4.548 10.154,7.849 2.786,3.298 4.919,7.109 6.399,11.433 1.477,4.323 2.218,8.93 2.218,13.822 0,4.89 -0.741,9.498 -2.218,13.822 -1.48,4.322 -3.613,8.106 -6.399,11.348 -2.789,3.242 -6.173,5.802 -10.154,7.679 C 9.497,70.731 5.005,71.67 0,71.67 c -5.008,0 -9.529,-0.939 -13.566,-2.816 -4.039,-1.877 -7.453,-4.437 -10.239,-7.679 -2.789,-3.242 -4.922,-7.026 -6.399,-11.348 -1.48,-4.324 -2.218,-8.932 -2.218,-13.822 0,-4.892 0.738,-9.499 2.218,-13.822 1.477,-4.324 3.61,-8.135 6.399,-11.433 2.786,-3.301 6.2,-5.917 10.239,-7.849 C -9.529,0.965 -5.008,0 0,0 m 0,-24.231 c -8.421,0 -16.24,1.535 -23.463,4.606 -7.226,3.073 -13.481,7.28 -18.771,12.628 -5.29,5.347 -9.444,11.69 -12.457,19.027 -3.016,7.338 -4.523,15.214 -4.523,23.634 0,8.532 1.507,16.438 4.523,23.72 3.013,7.278 7.167,13.592 12.457,18.941 5.29,5.345 11.545,9.556 18.771,12.627 7.223,3.071 15.042,4.607 23.463,4.607 8.417,0 16.237,-1.536 23.463,-4.607 7.223,-3.071 13.481,-7.282 18.77,-12.627 5.29,-5.349 9.443,-11.663 12.458,-18.941 3.012,-7.282 4.522,-15.188 4.522,-23.72 0,-8.42 -1.51,-16.296 -4.522,-23.634 C 51.676,4.693 47.523,-1.65 42.233,-6.997 36.944,-12.345 30.686,-16.552 23.463,-19.625 16.237,-22.696 8.417,-24.231 0,-24.231"
             style="fill:#1b3664;fill-opacity:1;fill-rule:nonzero;stroke:none"
             id="path82" /></g><g
           id="g84"
           transform="translate(659.9356,177.2053)"><path
             d="m 0,0 c 1.819,0 3.866,0.141 6.144,0.426 2.274,0.283 4.377,0.939 6.313,1.963 1.934,1.024 3.554,2.501 4.863,4.437 1.307,1.933 1.963,4.607 1.963,8.02 0,3.071 -0.627,5.572 -1.877,7.508 -1.254,1.933 -2.845,3.44 -4.778,4.522 -1.936,1.08 -4.039,1.819 -6.315,2.219 C 4.037,29.492 1.933,29.692 0,29.692 H -16.723 V 0 Z m -1.536,48.462 c 1.933,0 3.84,0.227 5.717,0.683 1.877,0.453 3.525,1.166 4.949,2.133 1.421,0.966 2.586,2.274 3.498,3.925 0.909,1.648 1.365,3.669 1.365,6.058 0,2.501 -0.456,4.578 -1.365,6.228 -0.912,1.648 -2.107,2.957 -3.584,3.925 -1.48,0.965 -3.156,1.648 -5.033,2.047 -1.878,0.398 -3.729,0.598 -5.547,0.598 H -16.723 V 48.462 Z M -41.807,94.024 H 0.854 c 7.052,0 13.024,-0.827 17.917,-2.474 4.89,-1.651 8.874,-3.84 11.945,-6.57 3.071,-2.73 5.29,-5.887 6.655,-9.471 1.365,-3.583 2.048,-7.311 2.048,-11.177 0,-3.642 -0.656,-6.854 -1.963,-9.641 -1.309,-2.789 -2.845,-5.178 -4.606,-7.167 -1.766,-1.992 -3.643,-3.557 -5.632,-4.692 -1.992,-1.139 -3.669,-1.878 -5.034,-2.219 2.047,-0.456 4.407,-1.28 7.082,-2.475 2.671,-1.194 5.204,-2.901 7.592,-5.119 2.39,-2.218 4.409,-5.007 6.059,-8.361 1.647,-3.357 2.474,-7.311 2.474,-11.86 0,-5.916 -1.053,-10.921 -3.157,-15.016 -2.106,-4.095 -5.063,-7.452 -8.874,-10.068 -3.812,-2.619 -8.475,-4.522 -13.992,-5.716 -5.519,-1.195 -11.689,-1.792 -18.514,-1.792 h -42.661 z"
             style="fill:#1b3664;fill-opacity:1;fill-rule:nonzero;stroke:none"
             id="path86" /></g><path
           d="m 715.402,271.229 h 25.767 V 157.411 h -25.767 z"
           style="fill:#1b3664;fill-opacity:1;fill-rule:nonzero;stroke:none"
           id="path88" /><g
           id="g90"
           transform="translate(755.8506,271.2292)"><path
             d="m 0,0 h 25.767 v -90.952 h 54.434 v -22.866 H 0 Z"
             style="fill:#1b3664;fill-opacity:1;fill-rule:nonzero;stroke:none"
             id="path92" /></g><path
           d="m 843.738,271.229 h 25.767 V 157.411 h -25.767 z"
           style="fill:#1b3664;fill-opacity:1;fill-rule:nonzero;stroke:none"
           id="path94" /><g
           id="g96"
           transform="translate(924.6212,180.2771)"><path
             d="m 0,0 c 11.374,0 20.135,2.986 26.278,8.959 6.144,5.972 9.215,14.189 9.215,24.657 0,5.232 -0.712,9.983 -2.133,14.249 -1.423,4.266 -3.584,7.906 -6.484,10.921 -2.901,3.013 -6.57,5.346 -11.007,6.997 C 11.433,67.431 6.143,68.257 0,68.257 H -15.699 V 0 Z M -41.466,90.952 H 1.535 c 8.759,0 16.864,-1.138 24.317,-3.413 7.45,-2.276 13.877,-5.746 19.282,-10.409 5.403,-4.666 9.612,-10.638 12.628,-17.918 3.013,-7.281 4.522,-15.869 4.522,-25.766 0,-9.445 -1.536,-17.662 -4.607,-24.658 C 54.605,1.792 50.365,-4.069 44.964,-8.788 39.56,-13.51 33.131,-17.038 25.682,-19.368 18.229,-21.701 10.123,-22.866 1.365,-22.866 h -42.831 z"
             style="fill:#1b3664;fill-opacity:1;fill-rule:nonzero;stroke:none"
             id="path98" /></g><g
           id="g100"
           transform="translate(1051.5781,203.4846)"><path
             d="M 0,0 -13.822,43.001 -27.985,0 Z M -27.133,67.745 H 1.365 L 43.002,-46.074 H 14.846 l -8.703,26.109 h -40.101 l -8.702,-26.109 h -26.962 z"
             style="fill:#1b3664;fill-opacity:1;fill-rule:nonzero;stroke:none"
             id="path102" /></g><g
           id="g104"
           transform="translate(1139.9688,180.2771)"><path
             d="m 0,0 c 11.374,0 20.136,2.986 26.279,8.959 6.144,5.972 9.215,14.189 9.215,24.657 0,5.232 -0.712,9.983 -2.133,14.249 -1.424,4.266 -3.584,7.906 -6.484,10.921 -2.901,3.013 -6.57,5.346 -11.007,6.997 C 11.434,67.431 6.144,68.257 0,68.257 H -15.699 V 0 Z M -41.466,90.952 H 1.536 c 8.759,0 16.864,-1.138 24.317,-3.413 7.449,-2.276 13.877,-5.746 19.282,-10.409 5.402,-4.666 9.612,-10.638 12.628,-17.918 3.012,-7.281 4.522,-15.869 4.522,-25.766 0,-9.445 -1.536,-17.662 -4.607,-24.658 C 54.605,1.792 50.366,-4.069 44.964,-8.788 39.56,-13.51 33.132,-17.038 25.682,-19.368 18.229,-21.701 10.124,-22.866 1.365,-22.866 h -42.831 z"
             style="fill:#1b3664;fill-opacity:1;fill-rule:nonzero;stroke:none"
             id="path106" /></g><g
           id="g108"
           transform="translate(1212.3213,271.2292)"><path
             d="M 0,0 H 77.813 V -22.525 H 25.767 V -44.709 H 66.209 V -66.551 H 25.767 v -24.572 h 55.799 v -22.695 H 0 Z"
             style="fill:#1b3664;fill-opacity:1;fill-rule:nonzero;stroke:none"
             id="path110" /></g></g></g></g></svg>
