<svg id="Layer_1" data-name="Layer 1" xmlns="http://www.w3.org/2000/svg" viewBox="0 0 189.89 77.51"><defs><style>.cls-1{fill:#fff;fill-rule:evenodd;}</style></defs><path class="cls-1" d="M50.67,60.83c1-4.46,2-8.88,3-13.33,1.68,0,3.35,0,5,0,1.34,0,2.69-.11,4-.24s2.75-.33,4.12-.56,2.54-.46,3.79-.77c1.73-.44,3.47-.9,5.17-1.47,1.49-.5,2.94-1.13,4.39-1.75a34.63,34.63,0,0,0,6.36-3.59c1-.69,1.9-1.44,2.82-2.2a22,22,0,0,0,2-1.79A22.49,22.49,0,0,0,95.8,28.7,14.89,14.89,0,0,0,97,24.11a10.17,10.17,0,0,0-2.15-7.38,12.92,12.92,0,0,0-5.27-4c-1.33-.57-2.74-1-4.11-1.46a.3.3,0,0,1-.18-.14c.69.08,1.38.14,2.07.24,1,.16,2.06.34,3.08.54s2.33.45,3.46.79c1.69.51,3.37,1.07,5,1.7a22.05,22.05,0,0,1,5.86,3.27,24.71,24.71,0,0,1,2.6,2.3,13.59,13.59,0,0,1,3.67,7,15.68,15.68,0,0,1,.31,2.89,16.58,16.58,0,0,1-1.42,6.34,22.72,22.72,0,0,1-3.34,5.5,36.34,36.34,0,0,1-3.16,3.4A41.21,41.21,0,0,1,97,50.08c-1.15.72-2.34,1.37-3.53,2a63.14,63.14,0,0,1-8.56,3.73,78.34,78.34,0,0,1-8.6,2.52c-2,.46-4,.79-6,1.14-1.3.22-2.61.4-3.92.55s-2.69.29-4,.4-2.55.2-3.83.24c-2.53.08-5.06.11-7.6.17Z"/><path class="cls-1" d="M49.19,47.64c-.45,2-.89,4-1.35,5.93l-1.5,6.54c-.19.82-.19.83-1,.82-1.17,0-2.34,0-3.5-.09-1.53-.12-3.05-.32-4.58-.47a37.11,37.11,0,0,1-5.64-1,31.06,31.06,0,0,1-4.87-1.66,20.63,20.63,0,0,1-4.24-2.41,13.29,13.29,0,0,1-3.72-4.14,9.43,9.43,0,0,1-1.14-5.3,10.19,10.19,0,0,1,.9-3.42,15,15,0,0,1,2.58-3.86,22.34,22.34,0,0,1,5.26-4.28,34.5,34.5,0,0,1,8.47-3.69c2-.55,3.93-1,5.91-1.43,1.26-.27,2.54-.45,3.82-.64.61-.09,1.23-.12,1.84-.16,1.36-.09,2.71-.19,4.07-.24,1,0,2,0,3,0h-.42c-1.27.06-2.54.05-3.8.18A33.46,33.46,0,0,0,41,30.07a19.57,19.57,0,0,0-5.43,3,9.6,9.6,0,0,0-2.92,3.59,5.48,5.48,0,0,0,.59,5.79A10.49,10.49,0,0,0,38,45.82a22.05,22.05,0,0,0,4.51,1.26,26.08,26.08,0,0,0,2.8.33C46.57,47.52,47.87,47.57,49.19,47.64Z"/><path class="cls-1" d="M54.29,42.63l3-13.35c.29,0,.58,0,.87,0,1.5-.1,3-.19,4.49-.32a29.37,29.37,0,0,0,5.33-1,23.84,23.84,0,0,0,4.54-1.76A14.61,14.61,0,0,0,77,22.8a7.14,7.14,0,0,0,1.86-3.86,5.36,5.36,0,0,0-1.12-4,11.45,11.45,0,0,0-5.83-3.76,20.08,20.08,0,0,0-4.26-1c-1-.11-2.08-.23-3.13-.31-.88-.07-1.77-.09-2.65-.1h3.64c1.32.11,2.65.19,4,.33s2.45.26,3.66.49,2.65.54,4,.9a27.74,27.74,0,0,1,5.64,2.17,18.94,18.94,0,0,1,3.84,2.63,11.59,11.59,0,0,1,2.89,3.78,9.27,9.27,0,0,1,.86,3.59,10.44,10.44,0,0,1-1.14,5A15.07,15.07,0,0,1,86.87,32,22.37,22.37,0,0,1,82,36,33.78,33.78,0,0,1,76.25,39a46.54,46.54,0,0,1-6.93,2.11c-1.36.31-2.74.53-4.12.75-1.16.19-2.32.34-3.49.48-.78.09-1.55.13-2.33.16-1.55.07-3.09.11-4.64.17Z"/><path class="cls-1" d="M150.66,40c-.34,1.95-.66,3.88-1,5.81-.3,1.69-.64,3.38-.94,5.07-.18,1-.35,2-.49,3a2.78,2.78,0,0,0,1.87,2.89,4.51,4.51,0,0,0,4-.42,3.92,3.92,0,0,0,1.59-2.28c.28-1.08.5-2.18.73-3.27s.37-2.08.56-3.12.43-2.23.63-3.34c.25-1.38.48-2.75.74-4.12a.35.35,0,0,1,.24-.23h4.12c-.31,1.84-.62,3.65-.94,5.46-.23,1.27-.48,2.53-.71,3.8s-.46,2.81-.73,4.2A10,10,0,0,1,158.31,58a7.25,7.25,0,0,1-4.66,2.59,16.12,16.12,0,0,1-3.47.15,6.73,6.73,0,0,1-4.88-2.38A6,6,0,0,1,144,55a16.71,16.71,0,0,1,.48-4.78c.25-1.43.48-2.86.73-4.28s.53-2.74.78-4.11c.1-.53.16-1.06.27-1.58,0-.11.18-.28.28-.28C147.89,40,149.27,40,150.66,40Z"/><path class="cls-1" d="M129.55,53.26l-1.26,6.93H124c.23-1.24.46-2.48.68-3.71s.43-2.63.66-3.94.47-2.54.69-3.81.39-2.29.58-3.43l.51-2.89c.12-.71.26-1.41.36-2.12,0-.22.1-.3.32-.3,2.68,0,5.36-.08,8,0a6.05,6.05,0,0,1,4.54,2.1,5.21,5.21,0,0,1,1.18,2.72,11.79,11.79,0,0,1,.08,1.78,6.42,6.42,0,0,1-2.16,4.84A7,7,0,0,1,136.16,53a16,16,0,0,1-2.18.24c-1.33,0-2.66,0-4,0Zm.67-3.49a1.26,1.26,0,0,0,.16,0c1.47-.06,3,0,4.43-.19a2.79,2.79,0,0,0,2.12-1.26,3.67,3.67,0,0,0,.51-2.38,2.27,2.27,0,0,0-1-1.8,4.08,4.08,0,0,0-2.18-.51c-.9-.06-1.8,0-2.71,0a.41.41,0,0,0-.31.25c-.08.36-.11.74-.18,1.12-.19,1.14-.4,2.28-.6,3.42Z"/><path class="cls-1" d="M169.1,51.9c-.22,1.22-.45,2.42-.66,3.62-.27,1.49-.53,3-.81,4.46a.41.41,0,0,1-.3.22h-4.07c.29-1.5.58-3,.85-4.46.31-1.7.59-3.39.89-5.09.28-1.5.59-3,.86-4.49s.49-2.8.74-4.2c.1-.57.22-1.15.32-1.72.05-.27.24-.26.45-.26h11.84c-.22,1.23-.44,2.43-.66,3.67h-7.87c-.28,1.55-.56,3.07-.84,4.63h7.31c-.22,1.23-.44,2.41-.65,3.61Z"/><path class="cls-1" d="M119.16,40h4.34q-1.83,10.11-3.67,20.19h-4.37C116.7,53.45,117.93,46.74,119.16,40Z"/></svg>