<svg id="Camada_3" data-name="Camada 3" xmlns="http://www.w3.org/2000/svg" viewBox="0 0 1349.3 528.58"><defs><style>.cls-1{fill:#fff;}.cls-2{fill:none;stroke:#fff;stroke-miterlimit:10;stroke-width:20px;}</style></defs><path class="cls-1" d="M432.91,243.86l8.18-18.25L385,200.47l17.06-37.42-17.57-8,0-.06-9.09-4.15-17.17,37.65-70.76-31.72c0-.55,0-1.09,0-1.65a29.23,29.23,0,0,0-8.94-21.05l.25-.54-1.69-.76a29.13,29.13,0,0,0-14.75-6.66l-1.79-.81-.27.59c-.7,0-1.41-.09-2.13-.09a29.23,29.23,0,0,0-20.69,8.57l-39-17.48L218.47,73.4l-18.18-8.33-20,43.63L134.55,88.19l15.23-5.87-7.2-18.66-47,18.14,18.14,47,18.66-7.2-5.82-15.07L172,126.88,120,240.25c-.57,0-1.13-.06-1.71-.06a29.09,29.09,0,0,0-16.77,5.3l-12.27-5.9-8.66,18,.2.1-4,8.39L89.07,272a29.21,29.21,0,0,0,8.15,17.85L81,325.29,51.91,311.17l-8.74,18,29.48,14.31-19,41.32,18.18,8.34,18.77-40.93,145.61,70.7a31.11,31.11,0,0,0-.18,3.22,29.24,29.24,0,0,0,5.81,17.51l-6.63,14.53,8.48,3.87,0,.06,18.2,8.3,6.91-15.15A29.23,29.23,0,0,0,286,447l67.51,32.77L338.22,485l6.47,18.92,47.68-16.29L376.07,440l-18.93,6.47,5.3,15.5L294.58,429a27,27,0,0,0,.15-2.86,29.19,29.19,0,0,0-5.1-16.5l15.42-33.83,8.34,4,4.33-9-.2-.1,8.37-17.41-8.67-4.16,59.5-130.46ZM258.23,145.79a9.33,9.33,0,1,1-9.32,9.32A9.32,9.32,0,0,1,258.23,145.79Zm-68-10.73L229,152.47c-.08.87-.13,1.75-.13,2.64A29.23,29.23,0,0,0,237.72,176l-50,110.85L147.53,267.6a29.27,29.27,0,0,0-9.18-19.43ZM118.27,260.19a9.33,9.33,0,1,1-9.32,9.32A9.32,9.32,0,0,1,118.27,260.19ZM265.4,435.46a9.33,9.33,0,1,1,9.33-9.33A9.33,9.33,0,0,1,265.4,435.46Zm-2.19-38.56A29.23,29.23,0,0,0,245.13,405L99,334l16.21-35.36a28.61,28.61,0,0,0,3.08.17,29.17,29.17,0,0,0,16.28-4.95l41.07,19.73-4.73,10.49,18.23,8.23,4.54-10,85,40.82Zm27.58-60.47-85.07-40.87,50.2-111.22c.76.06,1.53.1,2.31.1a29.22,29.22,0,0,0,21.39-9.3L350,206.68Z"/><polyline class="cls-2" points="163.81 66.43 108.55 87.75 129.88 143.01"/><polyline class="cls-2" points="310.87 505.16 379.71 481.63 356.18 412.79"/><path class="cls-1" d="M479,174h26.83a31.76,31.76,0,0,1,13,2.38,25,25,0,0,1,8.62,6.08,24,24,0,0,1,4.79,8.09,25.68,25.68,0,0,1,1.52,8.4,28.56,28.56,0,0,1-3.34,14,24,24,0,0,1-10.25,9.71l18.69,35H521.63l-16.39-33H493.71v33H479Zm27,37.61q5.82,0,9-3.51a12.18,12.18,0,0,0,3.22-8.52,11.84,11.84,0,0,0-3.41-8.78,12,12,0,0,0-8.86-3.39H493.71v24.2Z"/><polygon class="cls-1" points="550.16 173.95 602.6 173.95 602.6 187.87 565.45 187.87 565.45 207.55 592.77 207.55 592.77 221.59 565.45 221.59 565.45 243.41 605.39 243.41 605.39 257.57 550.16 257.57 550.16 173.95"/><path class="cls-1" d="M619.12,174h30.22a56.84,56.84,0,0,1,17.36,2.51,36.68,36.68,0,0,1,13.6,7.64,34.38,34.38,0,0,1,8.86,13.17,51.7,51.7,0,0,1,3.15,18.93,46.77,46.77,0,0,1-3.22,18.12,35.4,35.4,0,0,1-9,12.91A37.37,37.37,0,0,1,666.45,255a55.44,55.44,0,0,1-17.23,2.56h-30.1Zm28.76,69.58q13.85,0,21.13-6.89t7.28-20.19q0-13.17-6.74-20.81T647.88,188H634.41v55.54Z"/><polygon class="cls-1" points="707.24 173.95 759.68 173.95 759.68 187.87 722.54 187.87 722.54 207.55 749.86 207.55 749.86 221.59 722.54 221.59 722.54 243.41 762.48 243.41 762.48 257.57 707.24 257.57 707.24 173.95"/><path class="cls-1" d="M795.53,199.41h21a39.79,39.79,0,0,1,12.08,1.74,25.58,25.58,0,0,1,9.47,5.32,24.14,24.14,0,0,1,6.17,9.16,36.07,36.07,0,0,1,2.19,13.18,32.6,32.6,0,0,1-2.24,12.6,24.71,24.71,0,0,1-6.25,9,26.07,26.07,0,0,1-9.5,5.41,38.66,38.66,0,0,1-12,1.79h-21Zm20,48.42q9.63,0,14.7-4.8T835.32,229q0-9.15-4.69-14.48t-15.08-5.32h-9.37v38.65Z"/><polygon class="cls-1" points="856.86 199.41 893.36 199.41 893.36 209.09 867.5 209.09 867.5 222.79 886.51 222.79 886.51 232.56 867.5 232.56 867.5 247.74 895.29 247.74 895.29 257.6 856.86 257.6 856.86 199.41"/><path class="cls-1" d="M370.19,276.92h24.4l29.69,53.41,29-53.41h24.57l5.29,113.82H457.39l-3.25-74.4L430.6,360.71H417.29l-24.92-43.86-2.9,73.89H364.9Z"/><path class="cls-1" d="M549.7,393.64A59.15,59.15,0,0,1,526.24,389,57.2,57.2,0,0,1,495,357.38,64.26,64.26,0,0,1,495,310a57.48,57.48,0,0,1,31.23-31.57,62,62,0,0,1,46.93,0A57.42,57.42,0,0,1,604.39,310a64.13,64.13,0,0,1,0,47.35A57.15,57.15,0,0,1,573.17,389,59.24,59.24,0,0,1,549.7,393.64Zm0-24.23a30.11,30.11,0,0,0,23.64-10.75,35.34,35.34,0,0,0,6.4-11.43,44.35,44.35,0,0,0,0-27.65,34.44,34.44,0,0,0-6.4-11.35,30.18,30.18,0,0,0-10.16-7.67,31.17,31.17,0,0,0-13.48-2.82,31.73,31.73,0,0,0-13.56,2.82,29.81,29.81,0,0,0-10.24,7.67,34.26,34.26,0,0,0-6.4,11.35,44.16,44.16,0,0,0,0,27.65,35.15,35.15,0,0,0,6.4,11.43,30.28,30.28,0,0,0,10.24,7.85A31,31,0,0,0,549.7,369.41Z"/><path class="cls-1" d="M618.13,276.92h42.66a56.56,56.56,0,0,1,17.92,2.48A34.17,34.17,0,0,1,690.65,286a24,24,0,0,1,6.66,9.47,31.22,31.22,0,0,1,2,11.17,22.37,22.37,0,0,1-2,9.64,29.67,29.67,0,0,1-4.61,7.17,22.27,22.27,0,0,1-5.63,4.69,20.88,20.88,0,0,1-5,2.22,37.85,37.85,0,0,1,7.08,2.48,27.67,27.67,0,0,1,7.59,5.12,28.1,28.1,0,0,1,6.06,8.36,26.58,26.58,0,0,1,2.48,11.86,32.6,32.6,0,0,1-3.16,15,27,27,0,0,1-8.87,10.07,39.21,39.21,0,0,1-14,5.72,88.07,88.07,0,0,1-18.51,1.79H618.13Zm40.27,45.56a24,24,0,0,0,5.72-.68,15,15,0,0,0,5-2.13,11.21,11.21,0,0,0,3.49-3.93,12.37,12.37,0,0,0,1.37-6.06,12.75,12.75,0,0,0-1.37-6.22,10.88,10.88,0,0,0-3.58-3.93,14.89,14.89,0,0,0-5-2,27.29,27.29,0,0,0-5.55-.59H643.21v25.59ZM659.94,371a51.1,51.1,0,0,0,6.14-.43,18.17,18.17,0,0,0,6.31-2,13.4,13.4,0,0,0,4.87-4.44c1.3-1.93,2-4.61,2-8a13.64,13.64,0,0,0-1.88-7.51,13.42,13.42,0,0,0-4.78-4.52,19.91,19.91,0,0,0-6.31-2.22,36.68,36.68,0,0,0-6.31-.6H643.21V371Z"/><path class="cls-1" d="M715.4,276.92h25.77V390.74H715.4Z"/><path class="cls-1" d="M755.85,276.92h25.77v90.95h54.43v22.87h-80.2Z"/><path class="cls-1" d="M843.74,276.92H869.5V390.74H843.74Z"/><path class="cls-1" d="M883.15,276.92h43a83,83,0,0,1,24.31,3.41,52.83,52.83,0,0,1,19.29,10.41,46.94,46.94,0,0,1,12.62,17.92q4.53,10.92,4.53,25.77,0,14.16-4.61,24.66a49.2,49.2,0,0,1-12.72,17.57,52.87,52.87,0,0,1-19.28,10.58,81.1,81.1,0,0,1-24.31,3.5H883.15Zm41.47,90.95q17.05,0,26.28-8.95t9.21-24.66A45,45,0,0,0,958,320a28.4,28.4,0,0,0-6.48-10.92,29,29,0,0,0-11-7,45.61,45.61,0,0,0-15.87-2.47h-15.7v68.25Z"/><path class="cls-1" d="M1024.45,276.92h28.49l41.64,113.82h-28.16l-8.7-26.11h-40.1l-8.7,26.11H982Zm27.13,67.75-13.82-43-14.17,43Z"/><path class="cls-1" d="M1098.5,276.92h43a83.11,83.11,0,0,1,24.32,3.41,52.71,52.71,0,0,1,19.28,10.41,46.85,46.85,0,0,1,12.63,17.92q4.51,10.92,4.52,25.77,0,14.16-4.6,24.66a49.44,49.44,0,0,1-12.72,17.57,52.87,52.87,0,0,1-19.28,10.58,81.12,81.12,0,0,1-24.32,3.5H1098.5ZM1140,367.87q17.05,0,26.28-8.95t9.21-24.66a45,45,0,0,0-2.13-14.25,28.4,28.4,0,0,0-6.48-10.92,29,29,0,0,0-11-7,45.61,45.61,0,0,0-15.87-2.47h-15.7v68.25Z"/><path class="cls-1" d="M1212.32,276.92h77.81v22.53h-52v22.18h40.44v21.84h-40.44V368h55.8v22.7h-81.57Z"/></svg>