<svg id="Layer_1" data-name="Layer 1" xmlns="http://www.w3.org/2000/svg" viewBox="0 0 941.97 268.27"><defs><style>.cls-1,.cls-2{fill:#003063;}.cls-1,.cls-4,.cls-6{fill-rule:evenodd;}.cls-3{fill:#00b1eb;}.cls-4{fill:#29235c;}.cls-5,.cls-7{fill:none;}.cls-5{stroke:#231f20;stroke-miterlimit:22.93;stroke-width:0.12px;}.cls-6{fill:#52ae32;}.cls-8{fill:#fff;}</style></defs><polygon class="cls-1" points="77.51 199.57 77.51 58.19 242.03 58.19 242.03 199.69 159.9 232.54 77.51 199.57"/><path class="cls-2" d="M259,58.83h24.46a27.58,27.58,0,0,1,8.77,1.3,19.1,19.1,0,0,1,6.69,3.77,16.41,16.41,0,0,1,4.32,6.21,22.68,22.68,0,0,1,1.53,8.58A21.34,21.34,0,0,1,303.21,87a19.09,19.09,0,0,1-4.32,6.39,18.37,18.37,0,0,1-6.57,4,24.35,24.35,0,0,1-8.4,1.39h-9.35v20H259Zm23.11,27.51a6.6,6.6,0,0,0,5.13-2.07A7.59,7.59,0,0,0,289.13,79a8,8,0,0,0-1.8-5.48A6.63,6.63,0,0,0,282,71.41h-7.45V86.34Z"/><path class="cls-2" d="M307.3,58.83h24.82a28.54,28.54,0,0,1,8.77,1.25,18.52,18.52,0,0,1,6.69,3.74A16.46,16.46,0,0,1,351.9,70a22.19,22.19,0,0,1,1.53,8.55,19.71,19.71,0,0,1-2.61,10.3,20,20,0,0,1-6.92,7l12.85,23H339.67L329.51,98.39h-6.65V118.8H307.3Zm23.29,27.06a6.72,6.72,0,0,0,7.1-7.11,7.49,7.49,0,0,0-1.89-5.39,7,7,0,0,0-5.3-2h-7.64V85.89Z"/><path class="cls-2" d="M358.38,58.83h43.15V72.58H374.29v9.26h22.39v13H374.29V105h29.13V118.8h-45Z"/><path class="cls-2" d="M406.3,58.83h41.81V72.76h-25.9v11.6h20.06V97.49H422.21V118.8H406.3Z"/><path class="cls-2" d="M451.7,58.83h43.17V72.58H467.62v9.26H490v13h-22.4V105h29.14V118.8H451.7Z"/><path class="cls-2" d="M499.63,58.83h15.92v60H499.63Z"/><path class="cls-2" d="M537.59,72.76H519.15V58.83h52.79V72.76H553.68v46H537.59Z"/><path class="cls-2" d="M575.17,58.83h15.92V94a13.4,13.4,0,0,0,2.29,8.09q2.29,3.15,7.6,3.15c3.54,0,6-1.07,7.56-3.2a13.7,13.7,0,0,0,2.24-8V58.83h16.1V95.42A27.47,27.47,0,0,1,625,105.81a22,22,0,0,1-5.35,7.87,23.77,23.77,0,0,1-8.18,4.94,32.54,32.54,0,0,1-20.82,0,23.74,23.74,0,0,1-8.23-4.9,21.36,21.36,0,0,1-5.34-7.82,27.53,27.53,0,0,1-1.9-10.48Z"/><path class="cls-2" d="M631.91,58.83h24.82a28.54,28.54,0,0,1,8.77,1.25,18.44,18.44,0,0,1,6.69,3.74A16.46,16.46,0,0,1,676.51,70,22.19,22.19,0,0,1,678,78.52a19.3,19.3,0,0,1-9.53,17.26l12.86,23H664.28L654.12,98.39h-6.65V118.8H631.91ZM655.2,85.89A7,7,0,0,0,660.33,84a6.92,6.92,0,0,0,2-5.18,7.49,7.49,0,0,0-1.89-5.39,7,7,0,0,0-5.31-2h-7.64V85.89Z"/><path class="cls-2" d="M700.52,58.83h18.26l21.21,60H722.82L719,106.39H698.91l-4,12.41H678.49Zm15.2,36-6.66-22-6.92,22Z"/><path class="cls-2" d="M755.28,58.83h23a43.92,43.92,0,0,1,12.81,1.79,28.29,28.29,0,0,1,10.22,5.49,25,25,0,0,1,6.73,9.44,34.56,34.56,0,0,1,2.44,13.58,31.43,31.43,0,0,1-2.49,13,26,26,0,0,1-6.78,9.27A28.39,28.39,0,0,1,791,117a42.8,42.8,0,0,1-12.77,1.84H755.28Zm22.39,45.94q7.82,0,12.1-4.45A16,16,0,0,0,794,88.77a20.24,20.24,0,0,0-1-6.52,13.27,13.27,0,0,0-3-5A13.65,13.65,0,0,0,785,73.93a20.45,20.45,0,0,0-7.29-1.17H771.2v32Z"/><path class="cls-2" d="M813.55,58.83h43.16V72.58H829.47v9.26h22.38v13H829.47V105h29.14V118.8H813.55Z"/><path class="cls-3" d="M256.82,127.59h41.82v13.94h-25.9v11.6h20.05v13.14H272.74v21.31H256.82Z"/><path class="cls-3" d="M300.92,127.59h15.92v45.95h27.78v14h-43.7Z"/><path class="cls-3" d="M367.64,189a31.92,31.92,0,0,1-12.44-2.38,30.13,30.13,0,0,1-9.89-6.57,29.5,29.5,0,0,1-6.53-10,35.28,35.28,0,0,1,0-25.27,29.3,29.3,0,0,1,16.42-16.5A32.65,32.65,0,0,1,367.64,126a33,33,0,0,1,12.5,2.34,29.29,29.29,0,0,1,9.9,6.52,30,30,0,0,1,6.47,10,35.42,35.42,0,0,1,0,25.27,29.22,29.22,0,0,1-16.37,16.55A32.29,32.29,0,0,1,367.64,189Zm0-14.91a14.35,14.35,0,0,0,6.25-1.32,13.68,13.68,0,0,0,4.63-3.55,15.66,15.66,0,0,0,2.89-5.31,21.88,21.88,0,0,0,0-12.95,15.7,15.7,0,0,0-2.89-5.3,13.71,13.71,0,0,0-4.63-3.56,15.65,15.65,0,0,0-12.49,0,13.75,13.75,0,0,0-4.64,3.56,15.84,15.84,0,0,0-2.87,5.3,21.67,21.67,0,0,0,0,12.95,15.79,15.79,0,0,0,2.87,5.31,13.72,13.72,0,0,0,4.64,3.55A14.33,14.33,0,0,0,367.64,174.1Z"/><path class="cls-3" d="M400.11,127.59h24.82a28.42,28.42,0,0,1,8.76,1.26,18.61,18.61,0,0,1,6.7,3.73,16.81,16.81,0,0,1,4.32,6.17,22.09,22.09,0,0,1,1.53,8.53,19.7,19.7,0,0,1-2.61,10.31,20.25,20.25,0,0,1-6.92,7l12.85,23H432.47l-10.16-20.42h-6.65v20.42H400.11Zm23.29,27.07a7,7,0,0,0,5.12-1.93,6.91,6.91,0,0,0,2-5.17,7.49,7.49,0,0,0-1.88-5.39,7,7,0,0,0-5.31-2h-7.65v14.47Z"/><path class="cls-3" d="M449.39,127.59H465.3v60H449.39Z"/><path class="cls-3" d="M488.23,127.59h18.26l21.22,60H510.52l-3.86-12.42H486.61l-3.95,12.42H466.2Zm15.2,36-6.66-22-6.92,22Z"/><path class="cls-3" d="M526.81,127.59h14.47l23,33.45V127.59H580v60H566.46l-23.91-34.45v34.45H526.81Z"/><path class="cls-3" d="M612.5,189a31.93,31.93,0,0,1-12.45-2.38,30.34,30.34,0,0,1-9.89-6.57,29.65,29.65,0,0,1-6.53-10,35.42,35.42,0,0,1,0-25.27,29.3,29.3,0,0,1,16.42-16.5A32.66,32.66,0,0,1,612.5,126a33,33,0,0,1,12.5,2.34,29.24,29.24,0,0,1,9.89,6.52,29.71,29.71,0,0,1,6.47,10,35.28,35.28,0,0,1,0,25.27A29.24,29.24,0,0,1,625,186.63,32.29,32.29,0,0,1,612.5,189Zm0-14.91a14.35,14.35,0,0,0,6.25-1.32,13.55,13.55,0,0,0,4.62-3.55,15.83,15.83,0,0,0,2.89-5.31,21.88,21.88,0,0,0,0-12.95,15.88,15.88,0,0,0-2.89-5.3,13.57,13.57,0,0,0-4.62-3.56,15.67,15.67,0,0,0-12.5,0,13.71,13.71,0,0,0-4.63,3.56,15.68,15.68,0,0,0-2.88,5.3,21.67,21.67,0,0,0,0,12.95,15.64,15.64,0,0,0,2.88,5.31,13.68,13.68,0,0,0,4.63,3.55A14.41,14.41,0,0,0,612.5,174.1Zm-.17-55.16h13.6l-9.41,11.87h-9.75Z"/><path class="cls-3" d="M643.25,127.59h24.47a27.6,27.6,0,0,1,8.76,1.31,18.9,18.9,0,0,1,6.7,3.77,16.53,16.53,0,0,1,4.32,6.21,22.51,22.51,0,0,1,1.52,8.59,21.15,21.15,0,0,1-1.57,8.31,18.61,18.61,0,0,1-4.32,6.39,18.38,18.38,0,0,1-6.56,4.05,24.41,24.41,0,0,1-8.41,1.39h-9.35v20H643.25Zm23.11,27.52a6.55,6.55,0,0,0,5.12-2.07,7.51,7.51,0,0,0,1.9-5.31,8.11,8.11,0,0,0-1.8-5.48,6.68,6.68,0,0,0-5.31-2.06h-7.46v14.92Z"/><path class="cls-3" d="M720.4,189A32,32,0,0,1,708,186.63a29.61,29.61,0,0,1-16.41-16.55,35.28,35.28,0,0,1,0-25.27A29.32,29.32,0,0,1,708,128.31a34.42,34.42,0,0,1,24.95,0,29,29,0,0,1,9.89,6.52,29.89,29.89,0,0,1,6.48,10,35.28,35.28,0,0,1,0,25.27,30,30,0,0,1-6.48,10,29.61,29.61,0,0,1-9.89,6.57A32.25,32.25,0,0,1,720.4,189Zm0-14.91a14.38,14.38,0,0,0,6.25-1.32,13.72,13.72,0,0,0,4.64-3.55,16,16,0,0,0,2.88-5.31,21.67,21.67,0,0,0,0-12.95,16,16,0,0,0-2.88-5.3,13.75,13.75,0,0,0-4.64-3.56,15.67,15.67,0,0,0-12.5,0,13.71,13.71,0,0,0-4.63,3.56,15.66,15.66,0,0,0-2.87,5.3,21.67,21.67,0,0,0,0,12.95,15.62,15.62,0,0,0,2.87,5.31,13.68,13.68,0,0,0,4.63,3.55A14.44,14.44,0,0,0,720.4,174.1Z"/><path class="cls-3" d="M752.87,127.59h15.91v45.95h27.79v14h-43.7Z"/><path class="cls-3" d="M798.37,127.59h15.91v60H798.37Z"/><path class="cls-3" d="M824.36,168.6a26,26,0,0,0,6.56,4.58,19.15,19.15,0,0,0,8.9,2.07,13.69,13.69,0,0,0,2.42-.22,7.61,7.61,0,0,0,2.26-.76,4.78,4.78,0,0,0,1.62-1.44,4.1,4.1,0,0,0,.63-2.35,4.5,4.5,0,0,0-2.39-3.86,32.05,32.05,0,0,0-7-3.05l-3.32-1.09a38.13,38.13,0,0,1-5.63-2.33,23.55,23.55,0,0,1-5.07-3.47,16.05,16.05,0,0,1-3.64-4.76,14,14,0,0,1-1.4-6.43,19.1,19.1,0,0,1,1.54-7.69,17.62,17.62,0,0,1,4.44-6.2,20.55,20.55,0,0,1,7.24-4.14,30.64,30.64,0,0,1,10-1.49,35.78,35.78,0,0,1,8,.82,35,35,0,0,1,6.3,2,25.86,25.86,0,0,1,4.58,2.52,18.78,18.78,0,0,1,2.88,2.43L855.2,144a33.33,33.33,0,0,0-6.56-3.82,17.47,17.47,0,0,0-7-1.49,10.82,10.82,0,0,0-2.33.27,8,8,0,0,0-2.12.81,4.37,4.37,0,0,0-1.52,1.4,3.57,3.57,0,0,0-.6,2.11,4.15,4.15,0,0,0,.68,2.34,5.7,5.7,0,0,0,1.84,1.7,14,14,0,0,0,2.84,1.31c1.11.39,2.29.8,3.55,1.22l2.88.9c2,.66,4.11,1.42,6.2,2.28a20.53,20.53,0,0,1,5.67,3.52,17.44,17.44,0,0,1,4.13,5.49,18,18,0,0,1,1.62,8,15.52,15.52,0,0,1-1.93,7.64,19.25,19.25,0,0,1-5.22,6,24.47,24.47,0,0,1-7.73,3.92A31.92,31.92,0,0,1,840.1,189,41.46,41.46,0,0,1,825,186.63a31.15,31.15,0,0,1-10.3-6.44Z"/><path class="cls-4" d="M116.6,145.2a.33.33,0,0,0-.1-.4.23.23,0,0,0-.08.16.59.59,0,0,0,.17.24Z"/><polyline class="cls-5" points="107.44 119.49 107.44 119.49 107.43 119.49 107.43 119.49"/><path class="cls-5" d="M107.53,119.6a.2.2,0,0,0-.09-.11A.2.2,0,0,1,107.53,119.6Z"/><path class="cls-5" d="M107.53,119.64h0v0"/><path class="cls-6" d="M116.63,121.08c-.68,0-1.65,0-2,0a.5.5,0,0,0-.23-.25.83.83,0,0,0-.24-.08,1.76,1.76,0,0,1,.82-.86l1.64,1.19"/><path class="cls-6" d="M113.18,118.51a.28.28,0,0,1-.07.09,2.92,2.92,0,0,0-.38.29,2.36,2.36,0,0,1,0,.35,1.86,1.86,0,0,0,1.08,1.39l.14-.23a1.82,1.82,0,0,1,.71-.74c-.48-.35-1-.74-1.51-1.15"/><path class="cls-7" d="M121.55,110.34s.19-1.21-.24-1.23-.76.92-.78,1.59a3.53,3.53,0,0,1-.7,2.38,1.38,1.38,0,0,1-1.66.31c-.79-.27-1.44-.82-1.17-1.7s.48-1.63.63-2.25.44-1.53.9-1.64.77.11,1.34.27,1.19,0,1.62.32a2.4,2.4,0,0,1,.66,1.65,3.57,3.57,0,0,1-.06.6Z"/><path class="cls-7" d="M118.82,121.88c-.23.29-.18.37.18.31a2.89,2.89,0,0,0,1.5-.87c.25-.28.2-.38-.17-.31A3,3,0,0,0,118.82,121.88Z"/><path class="cls-8" d="M157.76,84.14c1.22-.07,2.46-.11,3.7-.11,1.08,0,2.15,0,3.22.08l2.13-1.49.38-3.66-2.27-.18-.12,1.9-.28,0c-.63,0-1.27-.06-1.91-.08h-.29l0-1.9c-.76,0-1.53,0-2.3,0l0,1.92h-.29l-1.88.07-.3,0-.12-1.9-2.3.18.39,3.66Zm24.37,3.32,1.75-.56,1.45-3.39c-.72-.28-1.43-.56-2.15-.82l-.68,1.75-.26-.1c-.6-.22-1.18-.42-1.78-.62l-.28-.11.59-1.79-.18-.08-.89-.29-.89-.25-.23-.06L178.05,83l-.28-.07c-.61-.19-1.22-.36-1.84-.51l-.28-.07.45-1.81-.49-.13-1.7-.41-.74,3.6,1.34,1.76A52.8,52.8,0,0,1,182.13,87.46Zm-41.59.09a52.8,52.8,0,0,1,7.23-2.1l1.46-1.89-.74-3.6-1.71.41-.49.13.44,1.81-.28.07c-.6.15-1.21.32-1.82.51l-.29.07-.53-1.82-.24.06-.88.25-.87.29-.2.08.58,1.79-.27.11c-.59.2-1.18.4-1.77.62l-.95-1.65c-.71.26-1.43.54-2.13.82l1.43,3.39Zm-10.88,7.63,1.11,1.61.4.58.29-.14a2.21,2.21,0,0,1,1.09-.28,2.31,2.31,0,0,1,1.87,1l3.56,5.16a34.38,34.38,0,0,1,8-3.76l-1.9-6.12a2.29,2.29,0,0,1,.45-2.16,2.25,2.25,0,0,1,1.24-.74h0l.27,0a2.27,2.27,0,0,1,2.38,1.58l1.93,6.26A51.64,51.64,0,0,1,159,97V90.25a2.27,2.27,0,1,1,4.53,0V97a49.12,49.12,0,0,1,8.54,1.17l2-6.32a2.22,2.22,0,0,1,1.58-1.53,2.36,2.36,0,0,1,1.44.11h0l.24.13a2.29,2.29,0,0,1,1,2.65l-2,6.22a34.25,34.25,0,0,1,7.93,3.89l3.77-5.44A2.25,2.25,0,0,1,190,97a2.18,2.18,0,0,1,1.08.28l.18.08L193,94.87c-6-5.91-17.86-9.94-31.49-9.94C147.61,84.93,135.58,89.1,129.66,95.18Zm65.94-6.13-1,1.59-.26-.16c-.53-.35-1.06-.69-1.6-1l-.25-.16,1-1.6c-.64-.39-1.29-.77-2-1.15l-1.78,3.22.68,1.84a23.13,23.13,0,0,1,3.18,2.57l1.75-.83,2.14-3C196.86,89.92,196.24,89.47,195.6,89.05ZM147.75,99.64c-.4.13-.81.25-1.21.4l-.29.1v0a33.41,33.41,0,0,0-7.79,3.66l.07.1h10.38l.69-.24.68-.23v0a39,39,0,0,1,21.95,0v0l.64.21.76.26h10c-5.58-3.7-13.67-6-22.67-6A47.63,47.63,0,0,0,147.75,99.64Zm-15.07-9.87-1.76-3.22c-.69.38-1.34.76-2,1.15l1,1.6-.25.16c-.53.33-1.08.67-1.58,1l-.25.16-1-1.59c-.65.42-1.28.87-1.86,1.31l2.15,3,2,.94.09.14a22.23,22.23,0,0,1,2.66-2.26Z"/><path class="cls-8" d="M160.17,145.41h2v-7h7v-2h-7v-7h-2v7h-7v2h7Zm16.33-20.7c.12.16.23.31.36.46s.23.33.34.49l6.23-10.1-9.32,4.74h2.39Zm3.84,9.44,0,.31,0,.31v.31l0,.32v.25h7.19l-7-1.75-.12,0-.11-.07-.07-.08v.13Zm-35.86,1.5h1.07v-5.56c-.06.17-.13.33-.18.5A17.55,17.55,0,0,0,144.48,135.65Zm35.76-2.06,0,.11,0,0,0-.18,0-.15,0,.1Zm-3.74-7v9.08h2.82a17.08,17.08,0,0,0-.82-4.87A17.7,17.7,0,0,0,176.5,126.57Zm6.1-.71-.25.13-.28.13-.29.13-.3.11-.31.1-.32.1-.33.08-.32.08-.34,0-.32,0h-.67l-.33,0-.3,0-.31-.08-.12,0,.07.09.14.27.15.24.14.27.13.27.15.26.13.27.11.27.13.28.11.28.11.28.11.28.11.29.1.28.09.28.09.3.08.29.08.29.07.29.07.31.07.3.06.29.06.31.05.31,0,.16v0l.07-.12.09-.09,1.21-1,.23-.16.25-.18.25-.19.26-.18.27-.2.28-.18.38-.28.33-.34.26-.35.24-.37.23-.38.19-.41.21-.41.2-.43.23-.41.25-.42.29-.41.35-.39.39-.37.46-.36.56-.33.65-.29.05,0-.37-.08-.51-.14-.45-.1-.39-.07-.35-.06-.32,0-.29,0-.29,0-.28.06-.28.07-.3.11-.31.13-.35.18-.4.2-.44.22Zm-43.77,3.34c1.85.85,3.57,1.64,4.28,3.55,0,0,0,0,0,.05a.42.42,0,0,1,0,.31.42.42,0,0,1-.25.22h0l-8.52,2.32h9.06a17.92,17.92,0,0,1,.8-4.94,19.5,19.5,0,0,1,1.39-3.33V126c-.15-.06-.31-.12-.51-.18a7,7,0,0,0-4.83-.16c-.52.12-1.13.27-1.87.4a6.24,6.24,0,0,1-2.48-.23,16.29,16.29,0,0,1-2.24-.76C134.85,127.38,136.92,128.32,138.83,129.2Zm11-16,.06.31.09.32.12.32.15.29.17.34c.15.27.3.55.46.82l.12.24.11.24.11.23.11.23.08.25.08.25,0,.27,0,.3,0,.31,0,.35v1.17l0,.19,0,.22,0,.21,0,.22v0h.79l.2-.13.37-.21.36-.19.37-.18.38-.18.38-.17.38-.16.38-.16.39-.15.4-.14.39-.12.2-.07.22,0,.4-.11.4-.1.42-.09.34-.06a.33.33,0,0,0,0-.06l-.11-.25-.12-.23-.08-.12-.28-.48-.29-.43-.29-.38-.29-.36-.29-.32-.31-.3-.3-.28-.34-.25-.33-.26-.34-.23-.35-.24c-.38-.26-.77-.5-1.17-.76l-.42-.28-.44-.3-.21-.16-.21-.18-.19-.19-.19-.19-.18-.23-.16-.21-.16-.23-.14-.23-.14-.24-.13-.25-.12-.25-.12-.26-.1-.25-.11-.25-.08-.26c-.1.37-.18.75-.25,1.12l-.07.33-.06.34,0,.32,0,.32,0,.33v.66l0,.31Zm-4.3,7.12h4.36L140.16,115l5.39,8.86Zm-14.4-16.62v39.46a30,30,0,1,0,59.93,0V103.68Zm30,65.63a27.39,27.39,0,0,1-16.31-5.37c3,.46,5,2.19,7.44,2.19,2.75,0,5-2.29,8.9-2.29s6.15,2.29,8.89,2.29c2.38,0,4.41-1.71,7.4-2.17A27.41,27.41,0,0,1,161.11,169.31Zm27.53-33h0v2.87c-.25,0-.52,0-.8,0-3.75,0-6.22-2.31-8.89-2.31a7.31,7.31,0,0,0-2.43.52v5.06h0a10.15,10.15,0,0,1,2.43-.31c3.86,0,6.14,2.28,8.89,2.28a5.08,5.08,0,0,0,.68,0,28.4,28.4,0,0,1-1.15,5.66c-3.5-.19-5.86-2.28-8.42-2.28a10.52,10.52,0,0,0-3.8,1l-.15.34-.35.67-.37.64-.4.63-.44.61-.46.58-.48.56-.52.55-.53.5-.57.5-.58.44-.33.24H170c2.75,0,5-2.28,8.9-2.28,2.7,0,4.64,1.12,6.51,1.79a26.47,26.47,0,0,1-3.16,4.7,9.2,9.2,0,0,0-3.35-.87c-2.68,0-5.14,2.3-8.9,2.3s-6.21-2.3-8.89-2.3-5.14,2.3-8.9,2.3-6.22-2.3-8.89-2.3a9,9,0,0,0-3.39.89,28.41,28.41,0,0,1-3.16-4.7c1.87-.67,3.82-1.81,6.55-1.81,3.77,0,6.05,2.18,8.74,2.27l-.33-.24-.58-.44-.56-.5-.54-.5-.51-.55-.49-.56-.46-.58-.43-.61-.4-.63-.37-.64-.34-.67-.21-.45a9.66,9.66,0,0,0-3.52-.93c-2.57,0-4.95,2.11-8.46,2.28a28.41,28.41,0,0,1-1.16-5.66c.24,0,.48,0,.73,0,2.74,0,5-2.28,8.89-2.28a9.46,9.46,0,0,1,2.2.27v-5.11a6.84,6.84,0,0,0-2.2-.44c-2.68,0-5.14,2.31-8.89,2.31-.3,0-.57,0-.85,0v-2.86h0V106.1h55Zm-40.34,6a12.89,12.89,0,1,0,25.77,0V122.86H148.3Zm2.08-10.05,2.88,1.95h4.63v-4.66L156,126.69H166.4l-1.94,2.88v4.66h4.65l2.88-1.95v10.45l-2.88-1.94h-4.65v4.66l1.94,2.86H156l1.92-2.86v-4.66h-4.63l-2.88,1.94Zm10-14.53c.18,0,.36,0,.54,0s.35,0,.53,0h1l.39,0h.39l.39,0,.38,0,.38,0,.61.09,0-.07-2.91-11-.64,2.57-.75,3.09-.19.81-.18.77-.28,1-.17.64-.08.3-.08.28-.08.27-.08.24-.07.24-.08.21-.08.19-.06.18-.08.16c.24,0,.48-.06.73-.09Zm1.59.83a17.67,17.67,0,0,0-7.52,1.72h14.94a18.91,18.91,0,0,0-3.38-1.22A17.39,17.39,0,0,0,162,118.58Zm9.54,1.72h.72c.07-.26.24-.86.41-1.66.1-.51.2-1.09.26-1.7a5,5,0,0,0-.76-2.81,4,4,0,0,1-.35-4v0l-.23.11c-.78.42-1.24,1.88-1.57,2.9l-.19.55a5.18,5.18,0,0,1-2.44,3,8.54,8.54,0,0,0-1.67,1.37s0,0,0,0a17.67,17.67,0,0,1,3,.87A20.57,20.57,0,0,1,171.49,120.3Z"/><path class="cls-8" d="M204,129.84c.25.37.77,1,1,1.3.54-.19,1-.35,1.41-.54l-.38-.37c-.46.22-.82.34-.94.2a15.47,15.47,0,0,1-1.44-2.29,3.12,3.12,0,0,1-.49.19h0S203.63,129.38,204,129.84Zm-4.85-22.27a6.44,6.44,0,0,0-.34.84,1.5,1.5,0,0,0,.3,0,1.48,1.48,0,0,0,.95-.64,1,1,0,0,0,.1-.75,12,12,0,0,0,1-1.07,4.32,4.32,0,0,0,.82-2.74l-3,.32v.14a6.11,6.11,0,0,0,.85,2.86l.07.1-.11.1A3.1,3.1,0,0,0,199.1,107.57Zm4.57,13.54-1.5.07v.4l1.52-.07Zm2,8.84-1.4-1.25c.14.24.28.49.4.66s.39.54.56.76A4,4,0,0,0,205.65,130ZM196.6,103.4c.38-.06,2.38-.23,2.38-.23l6.66-.77.4-.05.43,0a6.77,6.77,0,0,1,1-.06c.54,0,1.25,0,1.57,0a6.28,6.28,0,0,0,.07-1c-.07-1.49-1-3.09-2.4-3.09a2.08,2.08,0,0,0-1,.26l-.13.06-.09-.11a4.09,4.09,0,0,0-3.67-1.5,3.53,3.53,0,0,0-2.91,1.8l0,.08-.1,0a2.41,2.41,0,0,0-1.74,1,3.62,3.62,0,0,0-.55,3.1A3.88,3.88,0,0,0,196.6,103.4ZM206.06,99c2.11-.83,2.59,1.11,2.41,2.83H208a7.07,7.07,0,0,0,0-1c0-1.07-.73-1.82-1.83-1.39l-.39.14a.88.88,0,0,0-.28-.38Zm-1,.33a.5.5,0,1,1-.5.5A.51.51,0,0,1,205,99.36Zm-4.74,0c.8.21,1.25.42,1.74.54a4.63,4.63,0,0,0,2.19,0s0,0,0,0a.83.83,0,0,0,.13.42,5.08,5.08,0,0,1-2.48,0,16.55,16.55,0,0,0-2.29-.64c-1.75-.16-2.79,1.87-2.37,3.44l-.41.06a.21.21,0,0,0,0-.06,1.37,1.37,0,0,1-.1-.5C196.51,100.42,198.09,98.76,200.3,99.31Zm.24,7.86a2.17,2.17,0,0,1,0,.26,2.63,2.63,0,0,0,2.61.34,2.89,2.89,0,0,1-.93-.43,5.33,5.33,0,0,1-.63-.71.17.17,0,1,1,.26-.21s.09.12.21.25a5.16,5.16,0,0,0,.39.41c.36.32,2.14.88,2.59.57a5.8,5.8,0,0,0,.86-2.38v0a2.72,2.72,0,0,1,0-.75v0a.86.86,0,0,1-.8.08s-.06,0-.07,0c.14.55.64,1.07-.19,1.23a1.1,1.1,0,0,1-1-.2.18.18,0,0,1,.17-.31.73.73,0,0,0,.72.17.39.39,0,0,0,.18,0c-.15-.5-.51-1.16-.11-1.66l.06,0,.26-.12a1.19,1.19,0,0,1,.76-.14c0-.17,0-.35,0-.54v-.09c-.75.11-1.64.24-2.52.33-.38,0-.77.07-1.16.09a7.53,7.53,0,0,1-.16,1.73A4,4,0,0,1,200.54,107.17Zm4.34-.32a1.7,1.7,0,0,0-.34,0,1.18,1.18,0,0,0-.4.1c-.2.08-.34-.23-.13-.31l.18-.07a1.16,1.16,0,0,1,.35-.06,1.7,1.7,0,0,1,.41,0C205.17,106.58,205.09,106.91,204.88,106.85Zm-1-.66c.25-.14.4-.25.67-.13h0a.65.65,0,0,1,.39,0l.34.12a.17.17,0,1,1-.12.31l-.35-.11c-.29,0-.12.09-.47,0h0a2.42,2.42,0,0,0-.55.29c-.19.13-.38-.16-.19-.27A3,3,0,0,1,203.84,106.19Zm.45-1.72-.25.13a.91.91,0,0,1-1.2-.18l-.07-.07a.17.17,0,1,1,.26-.21.8.8,0,0,0,.52.27,2.35,2.35,0,0,0,.58-.23C204.31,104.06,204.49,104.35,204.29,104.47Zm-2-.68a3,3,0,0,1,.34-.19,1.31,1.31,0,0,1,.67-.14,5.81,5.81,0,0,1,1,.22.17.17,0,1,1-.12.31,6.18,6.18,0,0,0-.9-.2,1.75,1.75,0,0,0-.78.28C202.31,104.19,202.13,103.9,202.32,103.79Zm4,1,.05,0h0a.3.3,0,0,0,.05-.07.78.78,0,0,0,.13-.13.6.6,0,0,0,.1-.52c-.06-.15-.13-.33-.21-.5l-.07-.16a2.5,2.5,0,0,1-.2-.58v0s0,.4,0,.72h0c0,.16,0,.71,0,1a.19.19,0,0,0,0,.08h0v.18Zm-1.23-.86a.58.58,0,0,0-.09.38.16.16,0,0,1,.21-.09.56.56,0,0,0,.65-.16.08.08,0,0,1,.07,0v-.29l-.12,0a1,1,0,0,0-.5.12Zm-2.93,18.77v.41l1.52-.08,0-.4Zm1.82-3.53c0-.25-.09-.49-.14-.73l-.68,0h0l-.35,0h0l-.82,0a.21.21,0,0,1-.11,0,22,22,0,0,1-1.19,4.17c-.1.25-.23.53-.36.83a18.78,18.78,0,0,0,1.95.22v0h.5v0h.34v0a10,10,0,0,0,2-.32,16.24,16.24,0,0,1-.58-1.7,19.82,19.82,0,0,1-.47-2c0,.2-.09.39-.21.4l-.75,0v0l-.35,0v0l-.77,0a.18.18,0,0,1-.18-.17v-.74a.17.17,0,0,1,.16-.17l.79,0v0h.35l.67,0A.15.15,0,0,1,204,119.14Zm-.12,4.19-.74,0h-.32l-.81.05a.19.19,0,0,1-.18-.18v-.74a.2.2,0,0,1,.17-.17l.82,0h0l1,0h0C204.1,122.23,204.18,123.32,203.86,123.33ZM202,120.85l.82,0h0l.33,0h0l.67,0c.32,0,.39,1.07.07,1.09l-.74,0-1.17,0a.14.14,0,0,1-.13-.15V121A.17.17,0,0,1,202,120.85Zm1,7.14.06,0h.06l0,0,.05,0,.05,0,.06,0,0,0,0,0,.06,0,0,0,.08-.06.07-.07,0-.08.06-.08,0-.08,0-.08,0-.09V127l0-.09,0-.09,0-.09-.06-.08,0-.07-.07-.07-.08-.06,0,0-.06,0,0,0,0,0-.06,0-.05,0-.05,0,0,0H203l0,0h-.6l-.06,0h-.11l-.06,0,0,0-.05,0,0,0-.05,0,0,0-.05,0,0,0-.09.06,0,.07-.07.07,0,.08,0,.09,0,.09,0,.09v.18l0,.09,0,.08,0,.08,0,.08.07.08,0,.07.09.06,0,0,.05,0,0,0,.05,0,0,0,.05,0,0,0,.06,0h.05l.06,0H203Zm5.69,1.59s0,0,0,0h-.06l-.16.13-.16.11h0v0h0s0,0,0,0h0v0h0l0,0h0l0,0s0,0,0,0h0l0,0h0s0,0,0,0a0,0,0,0,1,0,0h0s0,0,0,0h0l0,0h0v0h0l-.05,0h0s0,0,0,0h0a.3.3,0,0,1-.1.07h0l0,0h0l0,0h0a0,0,0,0,1,0,0l0,0c.37.41.74.81,1.09,1.23a1.31,1.31,0,0,1,.32-.1h0a3.5,3.5,0,0,1,0-.61,1.07,1.07,0,0,1,.29-.69l-.07,0c-.06,0-.11-.11-.1-.18a.59.59,0,0,1,0-.13A2.38,2.38,0,0,1,208.67,129.58Zm-5.27-12.87-.71,0h-.52c0,.22-.07.45-.11.67l.75,0h0l.35,0v0l.5,0-.09-.64v0A.84.84,0,0,1,203.4,116.71Zm.53-8.71-.31-.08a1,1,0,0,1-.16.09,2.87,2.87,0,0,1-.75.24,4.32,4.32,0,0,0-.08.55c0,.16,0,.33,0,.46a7.09,7.09,0,0,0,1.92-.59l.33-.6A2.47,2.47,0,0,1,203.93,108Zm.86,19.15h0c-.19,0-.38.08-.56.11a1.17,1.17,0,0,1,0,.2l0,0s.64.55,1.32,1.17l-.06-.13.25.3.81.72,1.44-.91c-.29-.41-.54-.84-.75-1.18,0,.06.05.12.07.17l-.57-1.07Zm-3.29.94a6.87,6.87,0,0,1-.53-.82l-2.51-.46-.24.32c-.25.34-.51.69-.79,1a19.5,19.5,0,0,0,1.72,1.05l1.71.86a11,11,0,0,0,1-1.84,1.47,1.47,0,0,1-.28-.16.67.67,0,0,0-.1.21A.38.38,0,0,0,201.5,128.09Zm.69-8.22,1.52-.08,0-.4-1.49.07Zm4.6,9.92c.14.12.26.26.39.39a9.89,9.89,0,0,0,1.28-.86c-.09-.13-.2-.27-.3-.42C207.92,129.07,207.37,129.43,206.79,129.79Zm-9.95-.85c.25.17,1.21.83,1.91,1.2l1.86.93h0l.53.25c.21-.31.73-1.07.93-1.46l.76-1.44a.22.22,0,0,1,0-.08h0l-.26,0a3,3,0,0,1-.43,0h0a12.41,12.41,0,0,1-1.15,2,.19.19,0,0,1-.21.06,31.93,31.93,0,0,1-3.62-2A5,5,0,0,0,196.84,128.94Zm-1.08,1.43a3.93,3.93,0,0,0-.75,2.34c.05,1.32.27,2.12,1.33,2.64-.05-.79-.08-1.88-.11-2.91s-.06-2.11-.06-2.65Zm7.91,13.43a9.92,9.92,0,0,1,.33,2,4.57,4.57,0,0,0,0,.73,4.27,4.27,0,0,0,3,.1c0-.15.1-.45.17-.8,0-.08.08-.27.15-.56l-.48.07v-.24l.54-.11c.05-.26.1-.57.16-.94l-.67.12v-.24l.72-.19c0-.27.07-.58.1-.89l-.85.21v-.35l.9-.31c0-.37.07-.68.09-.91l-1,.27-.06-.51,1.11-.29c0-.31,0-.39,0-.42.08-.49.18-1,.18-1a.08.08,0,0,1,0,0l.17-4.81s0,0,0-.05a2.39,2.39,0,0,1-.23-.22l-.12-.19a3,3,0,0,1-.72-.09h-.05a.53.53,0,0,1-.33-.15.23.23,0,0,1-.13-.19c0-.1.09-.2.26-.27a1.09,1.09,0,0,1,.26-.1l.34,0h.09v-.28a.44.44,0,0,1,0-.16,1.74,1.74,0,0,1,.22-.64l-.13-.14-.25-.29h0l-.26-.28c-.21-.24-.43-.48-.66-.7l-.27.11h0l-.87.37v0c-.35.11-.63.17-.71.08s-.73-.94-1-1.41l0,0h0l0,0v0h0s0,0,0,0h0s0,0,0,0v0h0l0,0h0s0,0,0,0,0,0,0,0l0,0v0s0,0,0,0h0l-.09-.14h0s0,0,0,0h0v0s0,0,0,0c-.1-.19-.21-.38-.29-.55-.17.34-.44.86-.61,1.17-.26.49-1,1.61-1,1.61s-.15.1-.2.06-1.72-.83-2.54-1.26-1.74-1.08-2-1.24l-.11.16v0s.07,5.76.25,6.85a24,24,0,0,0,.81,3.42,1.27,1.27,0,0,0,.06.18c.05.18.1.39.16.61l1.28.28,0,.54-1.16-.21c.06.28.12.54.15.71s0,.22,0,.34l1,.15,0,.38-1-.14c0,.12,0,.23,0,.37h0c0,.11,0,.22,0,.34h0c0,.11,0,.21,0,.33l.9.13,0,.36-.89-.09c0,.13,0,.26,0,.38h0l0,.24h0a3.26,3.26,0,0,0,.05.33l.76.09,0,.32-.73-.09c.12.54.15.73.21.78l0,.08a4.62,4.62,0,0,0,3.07.1h0c0-.4.17-1.69.29-2.43s.2-1.76.36-2.67.06-1.79.23-2.67.12-1.49.25-2.31.19-2,.19-2a.18.18,0,0,1,.35,0s-.07,1.18-.2,2a6.07,6.07,0,0,0-.09.68.17.17,0,0,1,.06.12s.28,3.2.35,4A27,27,0,0,0,203.67,143.8Zm4.05,9.19a.33.33,0,0,0,.05.25.25.25,0,0,0,.15.06c.16,0,.19-.15.2-.21V153l1.5-18.2-.07-.1-.39.11-.59-.06-.54,10Zm-7.5-6.25a4,4,0,0,1-1.65-.3h0a.3.3,0,0,0-.21.35,2.62,2.62,0,0,0,1.76.38c.24,0,1.6-.13,1.81-.4v0a.27.27,0,0,0-.07-.23A6.4,6.4,0,0,1,200.22,146.74Zm1.35.57a7.71,7.71,0,0,1-1.45.19,3.59,3.59,0,0,1-1.48-.18c0,.51,0,1.92,0,2.39s0,2-.08,2.38l-.14.92a8.26,8.26,0,0,0,1.08.07,5.52,5.52,0,0,0,1.26-.24,11.33,11.33,0,0,1,.76-2.53,8.35,8.35,0,0,0,0-2.64A1.84,1.84,0,0,1,201.57,147.31Zm-.73,6.1h-.09c-.07,0-.41.1-.78.13a12.14,12.14,0,0,1-1.44,0,1.21,1.21,0,0,0-.29-.07,2.84,2.84,0,0,1-.39,1.39c-.17.55-.91.91-1.62,1.33a6.31,6.31,0,0,0-1.08.71.6.6,0,0,0-.17.21l-.09.14a.38.38,0,0,0,.11.51.15.15,0,0,0,.12.06,1.76,1.76,0,0,0,.64.1,3.88,3.88,0,0,0,.57,0,3.35,3.35,0,0,0,2-.88,4.11,4.11,0,0,1,1.74-.75c.2-.06.39-.11.54-.17.42-.14.51-.23.53-.27s0-.17-.12-.55A5.67,5.67,0,0,1,200.84,153.41Zm4.19-.18a2.8,2.8,0,0,0,.65-.07,5.29,5.29,0,0,0,.71-.2,4.21,4.21,0,0,1,0-.46c.07-.8.3-1.57.32-2.37s.1-1.56.15-2.34a6,6,0,0,1-2.83,0l-.12,0c0,.49-.3.91-.3,1.41s.21,1.93.21,2.48,0,1,0,1.26A2.43,2.43,0,0,0,205,153.23Zm5.36-22.44a2.47,2.47,0,0,0,0,.34,3.07,3.07,0,0,1,.53.31.17.17,0,1,1-.2.27s-.56-.38-.74-.34a.68.68,0,0,0-.36.18.13.13,0,0,1,0,.11,1.24,1.24,0,0,1,.5.39,1.85,1.85,0,0,1,.42,1.1,2.74,2.74,0,0,0,.85-.51l.2-.2c.25-.29.18-.26.11-.58s.06-.38.15-.55C211.4,131.2,210.88,131,210.39,130.79Zm3.3-9.08c-.29-.81-1.07-2.63-1.4-3.5a53.79,53.79,0,0,1-1.5-5.39,5.46,5.46,0,0,1-.1-1.65c0-.11,0-.21,0-.3a.59.59,0,0,1-.21.1h-.07l.07,1.29c0,.2-.32.21-.33,0L210.1,111h-.2l0,1.3c0,.19-.32.19-.32,0l0-1.3h-.22v1.31c0,.19-.33.19-.33,0V111h-.08l-.19,0,0,1.3c0,.19-.33.18-.32,0l0-1.37-.25-.07,0,1.32c0,.19-.33.18-.33,0l0-1.42-.22-.09,0,1.33c0,.19-.34.19-.34,0l0-1.51a.55.55,0,0,1-.11-.1.17.17,0,1,1,.26-.21,4.4,4.4,0,0,0,1.56.55,3.53,3.53,0,0,0,1.42,0c.13,0,.27-.22.34-.32l0,0a.41.41,0,0,0,0-.11c0-.36-.53-.42-.79-.46a15.68,15.68,0,0,1-3.67-.71l-.19.24a7.55,7.55,0,0,0-1.1,2.37.15.15,0,0,1-.25.09l-1-.64a14.17,14.17,0,0,0,.11,5.58,37.38,37.38,0,0,0,1,4.94,24.12,24.12,0,0,0,2.48,5.48,17,17,0,0,0,1.64,2.43c.07-.35.15-.78.21-1s.3-1,.5-1.57a15.61,15.61,0,0,1-.6-1.48,13.81,13.81,0,0,1-.82-6.11s0,0,0,0a.17.17,0,0,1,0-.17c.07-.59.15-1.22.28-1.88.22-1.3.48-2.27.48-2.27a.17.17,0,1,1,.33.09,30.6,30.6,0,0,0-.76,4.21c.16.43.78,2.15,1.05,2.83a12,12,0,0,0,.83,1.58l.51-.17a3.3,3.3,0,0,1,1.18-.13c.23,0,.18.36,0,.34a3.63,3.63,0,0,0-1.53.28s0,0,0,0l.31,0a1.89,1.89,0,0,1,.71,0,.17.17,0,0,1-.09.33,2.68,2.68,0,0,0-.87.06,5.36,5.36,0,0,1-.34,1.67c-.06.21-.17.53-.29.87l-.06.2c-.19.58-.4,1.21-.48,1.47s-.2,1.11-.27,1.41a18.63,18.63,0,0,0,2.95,1.08,8.53,8.53,0,0,0,.41-1.27,29.89,29.89,0,0,0,.68-3c.32-1.37.5-3,.6-3.58A2.23,2.23,0,0,0,213.69,121.71ZM204,112.55l1.95,0v.72l-1.95,0Zm.23,1.58,1.86,0v.63l-1.85,0Zm.16,1.43,1.85-.07,0,.63-1.86.06Zm.19,1.7,1.86-.16.06.62-1.87.17Zm.28,1.6,1.71-.27.09.64-1.71.27Zm.31,1.72,1.52-.4.16.62-1.5.4Zm.48,1.74,1.44-.55.24.59-1.45.56Zm.57,1.4,1.2-.55.26.56-1.19.56Zm2.59,2.78L208,127l-.29-.43.8-.55Zm-.41-1.3-1.06.61-.32-.56,1.06-.61Zm.82,6.36a.31.31,0,0,1,.06-.21A.88.88,0,0,1,210,131c0-.12,0-.24.05-.36l-.61-.26h0a1.13,1.13,0,0,0-.28,1.11v0Zm.48,25.41h0l-.25-.18-.09-.05v0l-.1-.06a3,3,0,0,0-.44-.29,2.49,2.49,0,0,1-.88-.67,3.29,3.29,0,0,0-.42-.41,3.81,3.81,0,0,1-1.05-1.32.74.74,0,0,1,0-.5.55.55,0,0,0,.05-.18,3.27,3.27,0,0,1-1.21.33,4.67,4.67,0,0,1-1.32-.15c-.25-.07-.33-.21-.39-.19s0,.25,0,.28v.28c0,.11,0,.22,0,.34a1.86,1.86,0,0,1-.11.51.68.68,0,0,0-.06.37,4.38,4.38,0,0,1,0,1.08s0,.15.21.3c1.17.26,3.25.88,3.35.9a11.83,11.83,0,0,0,1.91.81c.72,0,.89-.16.95-.2a1.29,1.29,0,0,0,.28-.31.32.32,0,0,1,0-.09s0-.19,0-.25S209.89,157.09,209.72,157Zm-9.29-49.19a1,1,0,0,1-.17.27c.1.15.28.43.49.82a4.26,4.26,0,0,0,1.56.41c0-.15,0-.34,0-.5s.05-.36.07-.48A3,3,0,0,1,200.43,107.78Zm6.74,39.45A.24.24,0,0,0,207,147a7.81,7.81,0,0,1-1.48.19,3.59,3.59,0,0,1-1.61-.32c-.37.21-.14.48.22.56.75.17,2.28.35,3-.13A.23.23,0,0,0,207.17,147.23Zm3-14.21v-.13l0-.06v-.06l0-.06,0-.06,0-.06,0-.06,0-.05,0-.06,0,0,0,0,0-.05-.07-.09-.09-.08-.09-.07-.1-.05-.09,0-.1,0-.12,0-.11,0-.11,0-.11,0-.1,0-.11,0-.08.06-.1.06-.08.08-.08.09,0,.05,0,0,0,0,0,.06,0,.05,0,.06v.06l0,.06v.06l0,.06v.06l0,.07v.53l0,.07v.06l0,.06v.06l0,.06v.06l0,0,0,.06,0,.05,0,0,0,.05,0,0v0l0,0,0,0,0,0,0,0,0,0,0,0a.86.86,0,0,0,1.2,0h0l0,0,0,0,0,0,0,0,0,0,0,0,0,0,0,0,0-.05,0,0,0-.05,0-.06,0,0,0-.06,0-.06,0-.06v-.06l0-.06V133Zm-7.91-19.83.07.7.9-.07v0h0c0-.21,0-.42,0-.63h0v-.08Zm1.09,1.74v-.08l-1,0v0h0a5.37,5.37,0,0,1,0,.7h.05l.79-.07.29,0C203.38,115.32,203.35,115.13,203.33,114.93Zm-7.5,14.77c.35-.5,1.26-1.58,2.17-2.85a23.26,23.26,0,0,0,2.37-4.34,6,6,0,0,0,.26-.68c.17-.54.37-1.15.55-1.78a.15.15,0,0,0,0-.07v0c.17-.71.34-1.43.46-2.12a12.38,12.38,0,0,0-.32-6.95,3.7,3.7,0,0,0-1.22.62.15.15,0,0,1-.26-.08l-.47-1.47a4.87,4.87,0,0,0-.59-1.13l-.07.06a3.46,3.46,0,0,1-1.73.81,11.08,11.08,0,0,0-2.74.2c-.18,0-.23.11-.23.22,0,.29,0,.31.63.43a7.93,7.93,0,0,0,2.6,0,.17.17,0,0,1,.17.26l0,1.45a.17.17,0,0,1-.34,0l0-1.35-.18,0v1.4c0,.21-.36.21-.36,0V111l-.15,0h-.08l0,1.38c0,.2-.35.19-.35,0l0-1.37h-.29l0,1.38c0,.2-.35.2-.35,0l0-1.38h-.24l0,1.32c0,.21-.35.2-.35,0l.05-1.36-.21,0,0,1.32c0,.21-.36.21-.36,0l0-1.41a.76.76,0,0,1-.18-.06v2a.27.27,0,0,1-.07.14,12.17,12.17,0,0,0-1.37,1.3,9,9,0,0,0-1.14,1.39,6.3,6.3,0,0,1,.26.6,3,3,0,0,1,.31,1.07.17.17,0,1,1-.34,0,5.23,5.23,0,0,0-.55-1.53,10.47,10.47,0,0,0-1.35-.89,4.46,4.46,0,0,1-1-.72v4.37c.14.14,1.9,1.94,2.39,1.94s1.84-1.23,2.31-1.55,1.53-1.1,1.62-1.18c-.17-1-.33-2-.47-2.64A.17.17,0,1,1,195,115s.79,4.12.87,5.72a14.85,14.85,0,0,1-.12,4.61,26.83,26.83,0,0,0-1.27,4.56,9.68,9.68,0,0,0,.23,3.28c0-.14,0-.29,0-.45A4.66,4.66,0,0,1,195.83,129.7Zm3.6-17.37h1.83V113h-1.83Zm-.07,1.44h1.86v.63h-1.86Zm-.11,1.57,1.87,0,0,.62-1.86,0Zm-.05,1.53,1.85.14,0,.63-1.86-.13Zm-.27,1.6,1.85.25-.1.63-1.83-.27Zm-.34,1.53,1.81.44-.15.62-1.82-.46Zm-.43,1.55,1.72.63-.22.58-1.73-.63Zm-.48,1.27,1.56.7-.27.58-1.54-.7Zm-.51,1.42,1.38.77-.31.56-1.39-.77Zm-.74,1.11,1.33.87-.35.54-1.32-.86Zm5.73-7.6v.4l1.52-.07,0-.4Zm-2.06-6.6a3.88,3.88,0,0,1,1.1-.54,7.17,7.17,0,0,0-.36-.81,13.81,13.81,0,0,0-.83-1.5,3,3,0,0,1-.87.48l.14.23A9.38,9.38,0,0,1,200.1,111.15Zm1.8-1c.16-.17.28-.31.41-.43a4.62,4.62,0,0,1-1.31-.34c.06.13.14.26.19.4a6.91,6.91,0,0,1,.36.79Zm.38,6.28,1.13-.07-.06-.45-1,.08Zm3.75-7.55a1.93,1.93,0,0,1-.7-.87c-.2.38-.66,1.23-.92,1.66a5,5,0,0,0-.52,1.09c.15.11.62.4.9.58A6.88,6.88,0,0,1,206,108.84Zm-2.85,5.29-.85.07,0,.37.88-.07Zm-2.52,7.64s0,0,0,.06,0,.06,0,.08A1.21,1.21,0,0,0,200.66,121.77ZM204,109.6a4.4,4.4,0,0,0,.29-.47l-.5.19-.8.26.24.1a5.65,5.65,0,0,1,.57.3C203.88,109.85,204,109.73,204,109.6Zm-1.95,2-.07.27c0,.11,0,.24.07.36l.6-.05.6,0a9.65,9.65,0,0,1,.18-1.2l-.63-.82Zm.22,1.31.85-.08,0-.34-1,.07Z"/><path class="cls-8" d="M182.5,181.51a1.57,1.57,0,0,0-.39,1.57,1.06,1.06,0,0,0,1.33.75,1,1,0,0,0,.63-1.32C183.85,181.83,183.21,181.68,182.5,181.51Z"/><path class="cls-8" d="M183,179.67a.78.78,0,0,0-1-.57.81.81,0,0,0-.58,1.06c.14.42.52.61,1.24.76A1.14,1.14,0,0,0,183,179.67Z"/><path class="cls-8" d="M216.84,167.77c-1.67-.86-2.47-1.29-4.07-2.21-.17-1.81-.27-2.71-.51-4.52a73.52,73.52,0,0,1-11.89,7.31c.62,1.28,4.89-1.37,6.2-1.23-14.07,7.57-28.38,12.6-44.51,13,.89-.64,6.1-1.2,6-2a74.52,74.52,0,0,1-17.47-.08c-.1,1.13,6.73,1.33,6.65,2.21,0,0-.07,0-.07-.1a91.35,91.35,0,0,1-44.62-13.21s0,0,0,0c.39,0,3,.7,6.53,1.47A74.24,74.24,0,0,1,107.27,161c-.26,1.85-.38,2.79-.58,4.66-1.57.86-2.37,1.26-4,2.06,2.68,2,4.67,3.3,6.77,4.57l-1.37,2.42A116.12,116.12,0,0,0,157,189.23c0-.93,0-1.74.07-2.5,1.63.07,3.18.07,4.81,0,0,.75,0,1.56,0,2.49a115.61,115.61,0,0,0,49.26-14.33c-.51-.91-.94-1.68-1.36-2.41C212,171.19,214,169.8,216.84,167.77Zm-91.47,7.49c0,.06-.26.74-.57,1.82l-.38,1.29c-.2.68-.37,1.28-.44,1.59s0,.35.18.46a4.13,4.13,0,0,0,.44.18.07.07,0,0,1,.05.09c0,.05-.05.05-.13,0-.54-.15-1-.31-1.17-.36l-1.2-.33c-.08,0-.12-.05-.1-.1s0-.06.07-.05l.58.12c.24,0,.3-.08.39-.3s.3-.89.49-1.57l.32-1.11c.11-.39.2-.69.27-.93s.07-.25,0-.28a5.16,5.16,0,0,0-.92.1h-.1a.09.09,0,0,1,0-.09.16.16,0,0,1,.1-.08s1.64-.5,1.94-.61a.56.56,0,0,1,.21,0C125.39,175.11,125.39,175.19,125.37,175.26Zm7.28,2.29a17.38,17.38,0,0,0-3.09,4,1.53,1.53,0,0,0-.08.26c0,.13-.69.26-1,.17-.08,0-.09,0-.07-.11a.86.86,0,0,1,.13-.28,25.44,25.44,0,0,1,3.34-3.76l-1.82-.54a1.52,1.52,0,0,0-.7-.06.74.74,0,0,0-.35.35c0,.06-.06.09-.1.07s-.05-.05,0-.12c.08-.26.43-1.05.44-1.12s.06-.09.1-.08a3.39,3.39,0,0,0,.93.35l2.25.65c.13,0,.16.07.15.11A.24.24,0,0,1,132.65,177.55Zm5.42,2.87c-.39,1.36-2.25,2.11-3.36,2.57,0,0,0,0,0,0l.47.14c.12,0,.95.27,1.22.32a.89.89,0,0,0,1-.4c0-.08.07-.1.11-.08s0,.07,0,.14a7.5,7.5,0,0,1-.5,1c-.11.17-.22.16-.67,0l-2.75-.8a.11.11,0,0,1-.07-.13c0-.05.11-.1.19-.14,1.24-.57,2.95-1.26,3.38-2.75.33-1.1-.22-1.51-.57-1.61a1,1,0,0,0-.82,0,1.23,1.23,0,0,0-.49.58c0,.07-.05.13-.13.11s0-.07,0-.15.14-.66.2-.86,0-.09.13-.12a2.9,2.9,0,0,1,1.35.1C138,178.77,138.31,179.6,138.07,180.42Zm3.48,5c.48.14,1-.11,1.23-.92.29-1-.12-1.56-.58-1.7a1.26,1.26,0,0,0-.38-.06h-.17s-.05,0,0-.08.06-.07.11-.09a1.73,1.73,0,0,1,1,0,1.45,1.45,0,0,1,1,1.84,1.83,1.83,0,0,1-2.36,1.27,1.91,1.91,0,0,1-1.27-2.56,4.21,4.21,0,0,1,3.61-2.68.48.48,0,0,1,.17,0s.08,0,.06.09-.13.08-.22.1a3.93,3.93,0,0,0-2.74,2.76C140.74,184.26,140.84,185.24,141.55,185.45Zm37.32.05c-.52.17-1,.28-1.14.34s-.72.25-1.16.38c-.07,0-.12,0-.13,0s0-.08,0-.09a4.81,4.81,0,0,0,.53-.21c.2-.12.2-.23.16-.45s-.24-.89-.45-1.54l-.34-1.08c-.12-.36-.21-.66-.28-.89s-.08-.24-.18-.21a5,5,0,0,0-.69.57.21.21,0,0,1-.08.06s-.07,0-.08-.06a.14.14,0,0,1,0-.12s1.06-1.28,1.24-1.53c0-.06.1-.13.15-.15s.1.05.12.12.19.74.51,1.78l.4,1.26c.21.65.39,1.23.51,1.52s.15.3.39.28.4-.09.46-.1.06,0,.08,0S178.94,185.48,178.87,185.5Zm4.61-1.34c-1,.32-1.86,0-2.13-.8a1.8,1.8,0,0,1,.78-1.91,1.54,1.54,0,0,1-1.38-.93c-.17-.53.07-1.38,1.23-1.74.82-.26,1.51-.06,1.71.6a1.51,1.51,0,0,1-.6,1.58c.56.1,1.45.28,1.71,1.13A1.68,1.68,0,0,1,183.48,184.16Zm6.84-2.27-2.66.83a.1.1,0,0,1-.13-.06c0-.06,0-.14.08-.22.69-1.13,1.71-2.62,1.26-4.05-.33-1.08-1-1.11-1.33-1a1,1,0,0,0-.65.47,1.21,1.21,0,0,0-.08.74c0,.07,0,.13-.05.16s-.07,0-.1-.11-.23-.62-.3-.82,0-.08,0-.15a2.75,2.75,0,0,1,1.15-.65c1.2-.37,1.91.12,2.16.91.41,1.32-.69,2.93-1.34,3.91,0,0,0,.05,0,0l.46-.15c.11,0,.92-.29,1.15-.4a.84.84,0,0,0,.59-.85c0-.09,0-.12.05-.14s.07.05.09.11a10.44,10.44,0,0,1,.11,1C190.85,181.7,190.75,181.75,190.32,181.89Zm4.4-1.25a2.59,2.59,0,0,1-1.08.15.19.19,0,0,1-.18-.15,8.58,8.58,0,0,1-.21-.87q0-.12,0-.15s.08,0,.09.08a1,1,0,0,0,1.3.58,1.16,1.16,0,0,0,.87-1.55,1.43,1.43,0,0,0-1.55-.93c-.19,0-.24,0-.26,0s0-.1.1-.13a1.32,1.32,0,0,0,.68-1.5.88.88,0,0,0-1.16-.56c-.54.17-.85.62-.72,1,0,.08,0,.11,0,.12s0,0-.09-.08-.21-.5-.26-.66,0-.09.06-.16a2.84,2.84,0,0,1,1.12-.62c1.31-.41,1.76.2,1.87.52a1.61,1.61,0,0,1-.62,1.53v0a1.49,1.49,0,0,1,1.63,1A2,2,0,0,1,194.72,180.64Zm12.07-13.45c.05,0,.1.07.12.13a.7.7,0,0,1,0,.14Z"/><path class="cls-8" d="M123.3,110.91c-.09.34-.32,1,.22,1.17s.69-.56.78-.9A.52.52,0,1,0,123.3,110.91Z"/><path class="cls-8" d="M116.72,123.12c.53,0,1.27,0,1.62,0h.25c.51-.06.64-.67.2-.8-.09,0-.18,0-.18-.12v0c.18,0,.34,0,.4-.26.2-.7-1.38-.58-1.63-.57-.73,0-1.31,0-1.31.88v.36C116.09,123,116.29,123.12,116.72,123.12Z"/><path class="cls-8" d="M113.83,107.13c.12.22.23.38.15.63l0,.14a1.51,1.51,0,0,0-.14.85,9.5,9.5,0,0,0,1,.89c.16.12,0,.72.14.91s.63.45.7.79a1,1,0,0,0,.86.61c.38,0,.61-.68.71-1,.28-.77.13-.64.94-.85-.09-.7.31-.76.77-1.09.75-.54.34-.57.74-1.1.21-.28.2-.52.58-.74a.63.63,0,0,0,.2-.17c.06-.68-.14-.81-.44-1.41-.13-.26.47-.35.66-.73a6.44,6.44,0,0,0,.37-1.07c.23-.53.28-.47.08-1v-.08a4,4,0,0,0-.35-2.28c-.19-.33.17-.74-.21-1.28s-.92-.49-1.27-.84c-.17-.18-.64-.65-.88-.67a13,13,0,0,0-1.81-.19,7.74,7.74,0,0,0-1.94.84,5.09,5.09,0,0,0-.87,1.09c0,.38-.2.64.14.91l0-.07c.32-.58.53-.49.74.07a1.83,1.83,0,0,0,.1.2,4.47,4.47,0,0,0,.65-.28c.15-.08.23.08.3.18l0-.1c.19-.53.4-.69,1-.4a1,1,0,0,1,.76-.23,2.2,2.2,0,0,1,.93.39l.06,0c.15.1.9-.58,1,.17a.19.19,0,0,1,0,.08c.32.13.24.44,0,.79.48.16.43.41.08.63-.12.08-.47.28-.52.4a.25.25,0,0,0,0,.1.52.52,0,0,1,.18.38c0,.18-.13.3-.14.46s.61.22.36.62l0,.09a1.27,1.27,0,0,0-.31.69,8.06,8.06,0,0,1-.29,1.48c-.29.73-.85,0-1,0-.63.07-.48.16-1.06-.22-.09-.07-.3-.29-.4-.31a5.61,5.61,0,0,0-.58,0h-.21a1.46,1.46,0,0,0-.42,0c-.26.11-.67-.21-.81-.19l-.36.49a.18.18,0,0,1-.3-.2l.16-.2v-.36A2.54,2.54,0,0,0,113.83,107.13Zm1.54-1.32a.9.9,0,0,1,.49.13c.32.15.65.35.65.35s.4.19,0,.22a10.63,10.63,0,0,1-1.14,0c-.15,0-.73-.14-.73-.14l-.39,0C114.38,106.3,115.37,105.81,115.37,105.81Z"/><path class="cls-8" d="M119.21,100.35c-.33,0-.59.34-.92.07l-.05,0a1.71,1.71,0,0,0-.8-.33c-.13,0-.36.11-.47.19l0,0c-.12.1-.48-.12-.6-.14a2.08,2.08,0,0,0-.28.78c0,.19-.22.23-.32.06l-.21-.34-.11,0c-.55.25-.75.36-1-.25l-.05-.11c-.1.15-.15.29-.22.38s-.07.8-.11,1-.23.5-.17.73a1.78,1.78,0,0,1,1.54.26c.29.16-.26,1.74-.35,2a.55.55,0,0,0,.19,0,.54.54,0,0,1,.27.07l0,0a.16.16,0,0,0,.26-.12.18.18,0,0,1,.35,0,.59.59,0,0,1-.18.32h.12c.45,0,.41,0,.79.29a2.33,2.33,0,0,0,.51.32c.69-.13.55,0,1.09.24l0,0a6.43,6.43,0,0,0,.29-1.45,1.83,1.83,0,0,1,.38-.88l0-.05-.06,0c-.66-.43-.2-.54-.2-.88,0-.08,0-.08-.07-.13-.43-.51.14-.79.53-1.06l-.23,0c-.4-.08.14-.58.2-.76l-.15,0h0C118.92,100.7,119.05,100.42,119.21,100.35Zm-1.34,3.06-.05,0a1,1,0,0,1-1.48-.09c-.12-.19.16-.39.29-.21l0,0a.66.66,0,0,0,.93,0l0,0A.17.17,0,1,1,117.87,103.41Zm.19-.54-.29-.06a3,3,0,0,0-.62-.06,1.65,1.65,0,0,0-.83.28.17.17,0,1,1-.2-.28,1.51,1.51,0,0,1,.31-.18,1.66,1.66,0,0,1,.72-.17,3.77,3.77,0,0,1,1,.14A.17.17,0,1,1,118.06,102.87Z"/><path class="cls-8" d="M115.1,103.36c0-.12,0-.24.05-.36l-.16-.08a1.21,1.21,0,0,0-1-.13,2.6,2.6,0,0,1,.16.34l0,0A1.44,1.44,0,0,0,115.1,103.36Z"/><path class="cls-8" d="M133.27,112.11l-.39.22-.54.28a6.74,6.74,0,0,0-1.8,1.2l-.11.12-.09-.13a2.59,2.59,0,0,0-.19-.33,2.13,2.13,0,0,0-1-.74c-.4-.2-.83-.39-1.34-1.55a2.08,2.08,0,0,0-.29-.46l0,0v-.05a2.89,2.89,0,0,0-.79-2.46,1.69,1.69,0,0,0-1-.32,3.33,3.33,0,0,1-1-.16l-.1,0-.37-.11a1.26,1.26,0,0,0-1.42.37l-.06.06-.07,0a.33.33,0,0,1-.25-.29c0-.08,0-.11-.16-.12a1.78,1.78,0,0,1-.48-.19,1.14,1.14,0,0,0-.44-.18h-.1v0l-.14,0-.2,0v0l0,.14-.08.11a1,1,0,0,1-.36.3.5.5,0,0,0-.21.27,2,2,0,0,1-.21.34.48.48,0,0,0-.12.27,1.45,1.45,0,0,1-.72.93l-.29.19c-.31.19-.31.19-.28.43l.06.44-.42.11-.29.07-.16,0-.07.18-.09.25c-.18.53-.49,1.23-1.13,1.29h-.09a1.44,1.44,0,0,1-.82-.31,1.41,1.41,0,0,0,.35.22l0,0a32.34,32.34,0,0,0,4,4.34c1.65,1.48,4.06,3.41,4.83,4a3.18,3.18,0,0,0-1.14.87.8.8,0,0,0-.13.24c-.6-.45-3.12-2.38-6-4.91a23.34,23.34,0,0,1-3.45-3.77,10,10,0,0,1-.94-1.53.15.15,0,0,0,0-.06c0-.05-.18-.2-.18-.25a6.41,6.41,0,0,1-1.17-2.86,5.81,5.81,0,0,1-1.39.46,2.25,2.25,0,0,0-1.41.29.41.41,0,0,0-.13.29,3.39,3.39,0,0,1,0,.47v.09c0,.06,0,.11,0,.17v.06l-.06,0a2.1,2.1,0,0,0-.8.9,6.36,6.36,0,0,0-.35,3.19c0,.12,0,.26.05.4a3.44,3.44,0,0,1,.09.8s0,.1-.22.44a2.42,2.42,0,0,0-.39.88,7,7,0,0,0-.06,1v0a9.57,9.57,0,0,1-.09,1,1.21,1.21,0,0,0-.05.14l0,.05a.86.86,0,0,0-.1.32,1,1,0,0,0,0,.64l0,.08-.06,0a1.77,1.77,0,0,0-.34.54l0,0-.07,0c-.7.18-.75,1-.77,1.38,0,.08-.06.14-.24.3a1.21,1.21,0,0,0-.48,1.06c0,.18,0,.36.08.51v.06l-.07.08h0l-.12.2,0,0a1.69,1.69,0,0,0-.33.77.61.61,0,0,1-.07.17,1.29,1.29,0,0,0-.09.91,6.28,6.28,0,0,0,.41.86.42.42,0,0,1,.06.15.89.89,0,0,0,.2.4.79.79,0,0,0,.74.15l.14,0,0,.13a46.8,46.8,0,0,1,.67,6.93c0,1.07,0,2,0,2.71v.52a4.74,4.74,0,0,1,0,1.37,1.38,1.38,0,0,1-.08.2l0,0a.88.88,0,0,0,.12,1.12c.24.33.26.36.25.65v.06l0,0a.58.58,0,0,0-.24.42,1.24,1.24,0,0,0,.56,1.21,4.29,4.29,0,0,1,.56.36l0,0v.06a7.31,7.31,0,0,0,.1.93l.11.77c.19,1.43,1.12,6.64,1.31,7.67s.39,2.3.55,3.26l.05.34c0,.31.09.6.13.85l0,.12-.29.05.08.29a2.85,2.85,0,0,0,.48,1,3,3,0,0,0,1.55,1,8.46,8.46,0,0,0,1.76-.33,1.62,1.62,0,0,0,.42-.22,1.77,1.77,0,0,1,.66-.3c.43-.12.89-.18,1.33-.26h.1l.74-.12c.45-.09.93-.2,1.51-.36v-.31l.08,0a2.32,2.32,0,0,0,1-.52l.18-.17,0,.25c0,.08,0,.17.07.3.14.57.77.64,1.32.65H121l.73.05.26,0,1.23.09h.17c.19,0,.37,0,.59,0a1.45,1.45,0,0,0,1.15-.38.83.83,0,0,0,.13-.76,3.94,3.94,0,0,1-.13-1.32V156a4.07,4.07,0,0,0-.06-.61,3.79,3.79,0,0,1-.07-.62c0-.31.27-1.8.43-2.79l.13-.86a9.85,9.85,0,0,0,0-2.87c0-.16-.06-.32-.1-.47v-.07c-.05-.18-.09-.38-.13-.57a6.49,6.49,0,0,1,.14-2.22,10.42,10.42,0,0,0,.19-2,19,19,0,0,1,0-2.75c0-.54.11-1.18.13-1.57v0l0,0A.92.92,0,0,0,126,138v-.11h.1a1,1,0,0,0,.82-.38,3.22,3.22,0,0,0,.13-2.63l0-.56.08,0a1.64,1.64,0,0,0,.41-.22c.84-.68.74-1.44.49-2.45l-.12-.52c-.28-1.07-.69-2.67-.92-4.15-.19-1.3-.68-4.31-.82-5.2l0,0,0,0a.77.77,0,0,0,.06-.74.66.66,0,0,0-.53-.35l-.13,0,0-.12a2,2,0,0,0,0-.24l0-.14a3.74,3.74,0,0,0,.34-1.25v-.18l.17.08.39.17a3.43,3.43,0,0,1,.91.49,7,7,0,0,0,2.81,1.49,2.79,2.79,0,0,0,.64.07,2.73,2.73,0,0,0,2-1.14l.37-.38Zm-7.27-2.5c0-.14.17-.33.34-.33s.1.15.1.32h0v.25a1.15,1.15,0,0,1,0,.18v0a1.69,1.69,0,0,1-.47-.39S126,109.63,126,109.61ZM124,113a1.21,1.21,0,0,1-1.51-.69c-.25-.68.58-2.66.87-3.26.21-.41.38-.71.38-.71a.17.17,0,0,1,.22-.08,6.11,6.11,0,0,0,.72.25,7.61,7.61,0,0,0,.91.11.16.16,0,0,1,.15.24l-.44,1C124.85,111,125.38,112.38,124,113Zm-4.28,8.45.33,0h1.68s0,0,0,0h.35s0,0,0,0h.09l1.19.81a.23.23,0,0,0,.11,0,.33.33,0,0,0,0,.1s.05.22.11.58c-.46,0-1.7-.15-2.34-.13s-1.16.05-1.52.07c0-.11,0-.24,0-.37.27,0,.62-.18.62-.52s-.38-.47-.67-.5A.16.16,0,0,0,119.7,121.44Zm-3.92.25a.49.49,0,0,1,.29-.49,3.59,3.59,0,0,1,1.41-.18,8.49,8.49,0,0,1,1.79.12c.15.07.06.43,0,.5-.14.39.68.12.68.39s-.72,0-.63.41a1.64,1.64,0,0,1-.07.85c-.31.4-2.62.25-3.11.19-.23,0-.29-.19-.33-.46a7.59,7.59,0,0,1-.07-1.09Zm-2.44.31a7.26,7.26,0,0,1,1-.16c.48,0,.91-.08,1.12-.09,0,.06,0,.11,0,.18a4.4,4.4,0,0,0,.11,1.31c-.74,0-1.47.13-2.2.18A11.21,11.21,0,0,1,113.34,122Zm-3.58-12.45s.47-.07.76-.15a8.56,8.56,0,0,1,.87-.21.17.17,0,0,1,.26.14s.06.56.09,1c.11,1.12,1.16,2,.27,3a1.18,1.18,0,0,1-1.48.13c-.5-.38-.79-2.29-.86-2.93,0-.46,0-.82,0-.82A.17.17,0,0,1,109.76,109.55Zm-3.56,12.92c.12-.31,0-1.19.59-1.08.4.13.1-.86.8-.91l.09,0,.07,0a2,2,0,0,0,.33.08c.24,0,.28-.34,0-.35-1-.12-.67-.56-.49-1.14a7.69,7.69,0,0,0,.09-1,2.81,2.81,0,0,1,.39-1.8,1.36,1.36,0,0,0,.26-1.26,7.79,7.79,0,0,1-.11-2.4c.15-.79.21-1.46.94-1.89a1.82,1.82,0,0,0,.12.35,5.58,5.58,0,0,1,.48,2.08,1.19,1.19,0,0,0,.71,1,3,3,0,0,0,.67,2.39,2.72,2.72,0,0,0,.77,2.3c.11.13.22.24.31.33a.13.13,0,0,0,0,.08,6.52,6.52,0,0,0-.34,1,8.35,8.35,0,0,0-.16.82c-.25.91-1.25,1.32-2,1.62a.17.17,0,1,0,.12.32.21.21,0,0,0,.1,0,4.25,4.25,0,0,0-.36.93c0,.05-.2.79-.35.78s-.23-.57-.82-.41a3.72,3.72,0,0,0-2.8-.11,5.11,5.11,0,0,1-.14-.66C105.48,123.09,106.07,122.81,106.2,122.47Zm.17,5c-.1,0-.32-.17-.35-.19h0c.12-.41-.5-.92-.44-1.16a9.56,9.56,0,0,0,.35-.94.39.39,0,0,0,0-.26l-.2,0a.4.4,0,0,0-.15,0,1.13,1.13,0,0,1-.15.58c-.26.6-.31.64.09,1.24.18.28.29.47-.13.51-.06,0-.1-.19-.12-.26a10.07,10.07,0,0,0-.44-1c0-.13.14-.54.18-.67a3.9,3.9,0,0,1,.17-.48.43.43,0,0,1,0-.23.41.41,0,0,1,.17-.11l.13,0h0s0,0,0,0a.08.08,0,0,0,.07,0,1.43,1.43,0,0,1,.38-.13l.27,0a3.14,3.14,0,0,1,1.79.08c.08,0,.38.18.51.14.32-.1.24.33.67.41a3.57,3.57,0,0,1,.56.55,1.28,1.28,0,0,1,0,.92,1.05,1.05,0,0,1-.2.27c-.25.34-.26.76-.78.76a1.42,1.42,0,0,1-.29,0c-.06-.2.1-.37.22-.5.46-.52,1.1-1.12.1-1.7-.68-.4-1.08.59-1,1.1,0,.13,0,.75-.27.68a2.58,2.58,0,0,1-.15-1,7,7,0,0,1,.43-1,.26.26,0,0,0,.07-.28,1.23,1.23,0,0,0-.26,0l-.1.1a8.53,8.53,0,0,0-.47,1.12,2.45,2.45,0,0,0,.16,1.25.2.2,0,0,0,0,.11c0,.25-.26.27-.49.13a1,1,0,0,0,0-.44c-.09-.27-.3-.58-.25-.86a7.32,7.32,0,0,1,.23-1.15s-.29-.19-.34-.1a5.94,5.94,0,0,0-.24,1.2,2.23,2.23,0,0,0,.26,1A.35.35,0,0,1,106.37,127.44ZM110,142.51l0,.06c-.46-.36-1.54.18-2,.64a2.48,2.48,0,0,0-.77-.56l-.07,0c-.12-.06-.21-.47-.18-.57s.33.13.31-.16c0-.57.15-.73-.23-1.24s-.34-.3-.08-1a6,6,0,0,0,.1-1.6c0-.81,0-1.9,0-3.21a49.61,49.61,0,0,0-.66-7.1l.18-.08a.75.75,0,0,0,.57.14.52.52,0,0,0,.42-.45c.47,0,.64-.66.58-1.09,0-.22.15-1,.51-.74,1,.55-.49,1.08-.52,1.73,0,.49.22.52.65.52h.09l-.33,1.35a39,39,0,0,0-.55,6.68c0,2.11.53,5.3,1.07,6s.7.22,1,.3S110.13,142.37,110,142.51Zm4.91,12a4.28,4.28,0,0,1-.78.56l-.13.07,0-.13a38,38,0,0,1-2.16-5.89c-.33-1.2-.58-2.09-.79-2.8l-.25-.9a4.3,4.3,0,0,1-.22-2.46.8.8,0,0,0,.12-.78.66.66,0,0,0-.63-.52l-.26,0,0-.1-.08.11,0,0,0,0v0c-.44-.54-.83-3.25-1-5.64a39.54,39.54,0,0,1,.53-6.54c.12-.53.22-1,.29-1.22l0-.1h0V128l0,0a1,1,0,0,0,.29-.42,1.65,1.65,0,0,1,.33-.48,1.75,1.75,0,0,0,.05-1.74A2.13,2.13,0,0,0,110,125l-.06-.06,0-.08a5,5,0,0,0,.23-.68,3.81,3.81,0,0,1,.33-.84l.13-.27,0,0,0,0a3.8,3.8,0,0,0,1-.67,2.37,2.37,0,0,0,.48-.64l.07-.17.14.14a2.32,2.32,0,0,0,.22.25l0,0v0a7.66,7.66,0,0,1,0,.81,3.79,3.79,0,0,0,0,.85v0l0,0a3.06,3.06,0,0,0-.53,1.64l0,.09c0,.22-.07.45-.12.67v0c-.77,1.09-.37,2.55,0,3.55l0,.05,0,0a4.19,4.19,0,0,0-.49,3.52h0l0,.09c-.24.63-.74,2.2-.07,3.28a2,2,0,0,0,1.46.92H113v.09a1.57,1.57,0,0,0,.23.79l0,0v.06a7.14,7.14,0,0,0-.17,1.58,29.89,29.89,0,0,0,.29,3.76,19.36,19.36,0,0,0,.4,2l0,.17c.12.53.27,1.14.42,1.9.35,1.68.68,4.91.76,5.85v0A1.15,1.15,0,0,1,115,154.51Zm-.26-9.67a9.11,9.11,0,0,1-.22-1.22,2.83,2.83,0,0,1,.57.17h0a2.66,2.66,0,0,1-.21.5c-.12.27.09.55.2.78s.07.79.25,1.23a.61.61,0,0,1-.28.61c-.18,0-.06-1.08,0-1.18C115.07,145.36,114.78,145.16,114.69,144.84Zm.54,3.2a.52.52,0,0,1,.18.43c0,.09-.1.1-.16,0A.84.84,0,0,1,115.23,148Zm.06-8.12c-.17,0-.5,0-.62.16s.09.42.25.52l0,0,0,0c-.35.4-.23.65.1,1l-.11.06c-.6.33-.22.65-.16,1.06a.7.7,0,0,1-.27,0h0v-.17a7.08,7.08,0,0,1-.16-1.76c.11-.48.16-.89.22-1.31,0-.16,0-.58.25-.63s.52.62.53.89Zm.86,15.07-.13,0-.17-.08c-.3-.17-.24.27-.33.4a.78.78,0,0,1-.29-.28,1.11,1.11,0,0,0,.34-.78,1.8,1.8,0,0,0,0-.32.82.82,0,0,0,0-.1c0-.46-.23-2.4-.48-4.12h0a.1.1,0,0,0,.05-.06c0-.08.21-.34.31-.28a.81.81,0,0,1,0,.24c0,.32-.08.84-.06,1,.05,1,1,.35,1.26.44a.1.1,0,0,1,0,.07c.07.57-.67.26-.72,1.31,0,.38-.09.46-.13.81-.12.63.76.84,1,1.35C116.57,154.54,115.9,154.43,116.15,155Zm.7,1.14c-.14,0-.19-.3-.19-.38a2.3,2.3,0,0,1,.54-.28s.09,0,.19.15a.88.88,0,0,1,.2.38C117.35,156,117,155.87,116.85,156.13Zm3.7-.4a1,1,0,0,1-.3.43.71.71,0,0,0-.29.32.47.47,0,0,0-.06.09l-.22.3v-.36a4.5,4.5,0,0,0-.28-1.23v0a4.73,4.73,0,0,1-.26-1.09c0-.41,0-1.16,0-2.21v-.39c0-.91.08-2,.09-3.34a22.55,22.55,0,0,0-.37-4.33c-.15-.88-.32-1.62-.42-2.11l-.1-.43a9,9,0,0,1,.37-2.52l0,0,0,0a1.57,1.57,0,0,0,.25-.26l.09-.16.16.23v.05a9.28,9.28,0,0,0,.84,4.82,2.38,2.38,0,0,1,.29,1.06c0,.24,0,.56-.08,1v0a24.2,24.2,0,0,0-.15,4.14c.18,2.36.31,3.61.44,4.31A2.63,2.63,0,0,1,120.55,155.73Zm.19-14.47,0,0a.81.81,0,0,1-.18-.12l0,0a7.78,7.78,0,0,1-.14-1.53c.12,0,.32-.08.39,0s-.18.78-.21.92C120.49,140.79,120.7,141,120.74,141.26Zm.27,1.35h0c.21,0,.46,0,.42.31s.28.84.21,1.08a.38.38,0,0,1-.25-.08,3.12,3.12,0,0,0-.24-.82A1.44,1.44,0,0,1,121,142.61Zm.6,2.67h0a.59.59,0,0,1-.17-.24.3.3,0,0,1,.08-.16A.32.32,0,0,1,121.61,145.28Zm-.39,11.09c0-.05.16-.13.18-.2v0C121.45,156.38,121.22,156.61,121.22,156.37Zm1.59-.86-.3-.16-.09-.07c-.31-.16-.8.17-.8.17.14-.31.42-.65.18-1a.38.38,0,0,1-.06-.23c0-.16.09-.33.12-.53a.72.72,0,0,0,0-.29c-.1-.26-.32-.37-.18-.63l0-.05v0a.32.32,0,0,0,0-.16.5.5,0,0,0,0-.16c-.16-.52-.33-.56-.2-1.17a5.54,5.54,0,0,0-.12-1c-.08-.59.29-.7.1-1.42,0-.16.47.11.7.39s-.14.41-.22.55c-.48.78,0,1.72-.11,2.56,0,.29.37.48.38.74s-.34.22-.28.65a6.19,6.19,0,0,1,.12.93c0,.17.16.29.29.38s.41.13.44.3A.68.68,0,0,1,122.81,155.51ZM125.33,138c-.37.07-1.53.27-2.48.35a12.66,12.66,0,0,1-2.82-.17.33.33,0,0,1-.32-.18,7,7,0,0,1-.52-2c0-.59,0-1.15,0-1.36a.18.18,0,0,0-.35,0,9.46,9.46,0,0,1,0,1.09.19.19,0,0,0,0,.12.53.53,0,0,1,0,.13,9.7,9.7,0,0,1-.15,1.72.91.91,0,0,1-.22.41,19.07,19.07,0,0,1-4.77-.12c0-.15-.06-.32-.08-.48a1.34,1.34,0,0,0,1.63-.45c1.27-.49,1.34-1.07,1.46-2.27a2.54,2.54,0,0,0,1-2.89.09.09,0,0,0,0,0,4.82,4.82,0,0,0,.61-1.17,3.54,3.54,0,0,0,.67.72l0,0a.23.23,0,0,0,0,.1,1.89,1.89,0,0,0,.59,1.81,2.48,2.48,0,0,0,1.25,2.1,2,2,0,0,0,.36,1.39,4.49,4.49,0,0,0,1.55.76.16.16,0,0,0,.11.05,2.46,2.46,0,0,0,2.42-.27s0,0,0,0A2.52,2.52,0,0,1,125.33,138Zm.22-16.16c.15.9.6,3.8.8,5.09.26,1.78.8,3.77,1,4.72s.26,1.39-.29,1.83a.7.7,0,0,1-.78,0c.28-.14.21-.49.17-.75-.41-1.73-.77-2.73-1.07-4.64-.45-2.82-.86-5.46-.89-5.68A3.87,3.87,0,0,0,125.55,121.79Zm7.5-3.15s0,0,0,0a8.11,8.11,0,0,1-1.54,1.42c-1,.52-2.95-.74-3.63-1.31a4.84,4.84,0,0,0-1.35-.71,3.07,3.07,0,0,1-1.47-1.64h0v0h0v0h0a0,0,0,0,1,0,0s0,0,0,0v0s0,0,0,0v0h0s0,0,0,0h0a.08.08,0,0,0,0,0h0a0,0,0,0,0,0,0h0v0h0s0,0,0,0h0a.11.11,0,0,1,0,0v-.07a0,0,0,0,1,0,0h0v0h0v0h0v0h0s0,0,0,0,0-.06,0-.08h0v0h0a0,0,0,0,1,0,0h0v0h0v0a0,0,0,0,0,0,0,0,0,0,0,0,0,0v-.06h0s0-.06,0-.08v0h0v0h0v0h0v0h0V115a2.83,2.83,0,0,0-.31-1.13,4.75,4.75,0,0,0-.24-.47h0l0,0h.06l0,0h0a3.64,3.64,0,0,0,.77-2.5.25.25,0,0,1,0-.08,3.53,3.53,0,0,1,.1-.56h0a11.43,11.43,0,0,0,1.12.74h0v0s0,0,0,0l0,0h0a0,0,0,0,0,0,0h0s0,0,0,0h0a1.53,1.53,0,0,1,.13.16h0a0,0,0,0,0,0,0h0s0,0,0,0h0a0,0,0,0,1,0,0v0c1,2.14,1.73,1.52,2.38,2.4a4.8,4.8,0,0,1,.81,2.21c-.05.23.3.28.34.06v0h0v0h0v0h0a.43.43,0,0,0,0-.16v0h0v-.07a1.77,1.77,0,0,0-.08-.31h0v0a3.73,3.73,0,0,0-.2-.59,4.22,4.22,0,0,1,1.12-1.11c.44-.21,1.05-.55,1.35-.71Z"/><path class="cls-8" d="M114.16,105.08c.27-.24.38,0,.86.09l0,0a.71.71,0,0,1,.29,0l0,0h-.07c-.15,0-.67-.1-.57-.36A7.6,7.6,0,0,0,115,104a1.73,1.73,0,0,0,.08-.27,1.82,1.82,0,0,1-.78-.16.13.13,0,0,1,0,.06,3.77,3.77,0,0,0-.12,1A2.59,2.59,0,0,1,114.16,105.08Z"/><path class="cls-8" d="M111.18,112.87c.57-.05.44-.76.4-1.11a.52.52,0,1,0-1,.11C110.6,112.21,110.62,112.93,111.18,112.87Z"/><rect class="cls-3" x="77.51" y="35.72" width="164.52" height="22.55"/></svg>