<svg id="Layer_1" data-name="Layer 1" xmlns="http://www.w3.org/2000/svg" viewBox="0 0 1263.99 528.58"><defs><style>.cls-1{fill:#fff;}</style></defs><rect class="cls-1" x="-15.94" y="202.05" width="337.68" height="20.02" transform="translate(-104.19 259.56) rotate(-64.68)"/><rect class="cls-1" x="284.79" y="-31.35" width="20.02" height="353.94" transform="translate(43.65 357.84) rotate(-66.49)"/><rect class="cls-1" x="223.51" y="205.13" width="20.03" height="363.22" transform="translate(-215.93 432.51) rotate(-64.69)"/><rect class="cls-1" x="186.59" y="286.62" width="323.49" height="20.02" transform="translate(-68.79 484.6) rotate(-64.68)"/><rect class="cls-1" x="146.1" y="203.85" width="197.28" height="20.02" transform="translate(-53.2 343.71) rotate(-64.7)"/><rect class="cls-1" x="208.48" y="166.25" width="20.03" height="242.54" transform="translate(-134.83 362.11) rotate(-64.69)"/><path class="cls-1" d="M283.36,317.65c-3,0-5.67-.94-7.5-3.84l-1-1.66-.36-6.64.32-1.17c1.94-7.18,9.5-6.82,12.38-6.68a12.47,12.47,0,0,0,2.11,0c1.8-.47,4.85-2.35,7.31-3.86.88-.54,1.71-1.06,2.5-1.51,3.47-2,7-3.92,10.45-5.79l1.17-.63c-5.29.6-10.78,1.47-16.08,2.31-7.65,1.21-15.56,2.47-23.51,3a102.88,102.88,0,0,1-10.67,0c-1,0-1.85-.07-2.58-.07a15.19,15.19,0,0,1-2.67.14l-.48-15,1.68-.18c.48-.14,1.3-.39,2.6-.86,7.26-2.59,14.59-5.07,21.93-7.56,3.9-1.32,7.81-2.64,11.7-4a217.35,217.35,0,0,0-26,4.36,47.06,47.06,0,0,0-10.84,3.12l-3.13,1.88-3.42.71h-.15a8.31,8.31,0,0,1-9.42-4.56l-2.22-4.72,6.46-6.62,1.75-.58c.79-.25,1.84-.5,3.09-.76a27.94,27.94,0,0,0,6.28-1.93c8.64-4.17,18.49-4.89,27.18-5.52,2-.14,4-.28,5.91-.46,11.6-1.1,22.68-4.45,34-8.47-1.68.07-3.36.16-5,.26-12.76.78-25.05,3-38.07,5.34-6.34,1.14-12.68,2.29-19.07,3.25a20,20,0,0,0-2.33.63c-3.17,1-10.58,3.21-14.22-3.21l-1.07-1.88.35-7.77,1.14-1.73c3-4.48,8.59-4.7,14.56-4.94,1.35-.06,2.66-.1,3.71-.21,2.45-.28,4.85-.67,7.25-1.07,3.7-.59,7.53-1.21,11.56-1.46A317.7,317.7,0,0,0,343,217c2.29-.62,4.65-1.27,7-2-4,.21-8.13.36-12.43.45q-8.34.18-16.67.29c-10.13.17-20.26.33-30.4.65-2.62.09-5.21.1-7.93.09-2.2,0-4.3,0-6.38,0l-2.42.43c-3.3.57-6.64,1.14-10.12,1.58a35.62,35.62,0,0,0-4.26.95l-.2.05h0c-4.78,2-10.19,4.19-15,1.19l-1-.64-13-15.62,17.15.89a17.15,17.15,0,0,1,2.41.34,5.25,5.25,0,0,0,1.74.17,22.89,22.89,0,0,0,3-.63,43.54,43.54,0,0,1,6-2,62,62,0,0,1,8.1-1.29,36.68,36.68,0,0,1-9.58-2.13l-1.63-.66L247,187.33l11.74-3.52c3.72-1.16,7.18-2.09,10.2-1.85a12.64,12.64,0,0,1,4,.48l0,0,.11,0,.16,0a19.6,19.6,0,0,1,5.43.24,20.17,20.17,0,0,0,3.81.33l.59-.31a17.25,17.25,0,0,1,3.77-1.55l1.71-.23c2,0,4-.17,6-.39,5-.94,10.24-2.32,15.41-3.8a71,71,0,0,1-8.22-1.34,138.93,138.93,0,0,1-26.74-8.74L281.18,153A123.29,123.29,0,0,0,305,160.74c6.39,1.47,13.2,1.53,19.19,1.58,5,.05,9.31.09,12.81,1l1.2.29,11.54,7.35-1.83,5.55a8.64,8.64,0,0,1-3.58,4.63l3.94-.22c4.56-.24,8.87-.47,13.16-1.06a23.52,23.52,0,0,0,5.39-1.8c3.17-1.33,6.46-2.69,10.15-1.92l2.73.57,7.74,10.15-6.63,4.45a25.51,25.51,0,0,1-6.64,2.65,46,46,0,0,0-4.5,1.52c-3.22,1.42-6.23,2.68-9.26,3.77,5.72-.52,11.12-1.2,16.26-2a24,24,0,0,0,4.3-1.6c3.27-1.43,6.66-2.9,10.32-2l2.11.53,6.61,7-2,4.57c-1.27,2.86-3.77,4.54-6.42,6.33-.61.41-1.26.85-1.89,1.31s-1,.71-1.51,1l6.64,6.11-4.8,8.69-2.11,1.05a11.05,11.05,0,0,1-2.09.76l-.19.14a55.87,55.87,0,0,1-10.79,6.39l-2.55,1,2.19,10.68L371,252.08c-2.13,1.73-4.95,2.59-9.76,4-1.62.46-3.27.92-4.6,1.4-11.73,4.2-23.48,8.27-35.23,12.33,6.73-.64,13.59-1.42,16.26-2.73l1.22-.59L370,263.36l-22.51,16.29c-.92.66-2,1.53-3.31,2.52a166.8,166.8,0,0,1-14.86,10.49c-2.23,1.35-4.47,2.62-6.69,3.86l5.82-.75c1.75-.21,3.55-.4,5.38-.59a72.28,72.28,0,0,0,13.08-2.1,9.43,9.43,0,0,0,1-.46,14.12,14.12,0,0,1,8.67-1.63l-2.49,14.8a2.94,2.94,0,0,0,1.23,0,8,8,0,0,0-1,.45,25.43,25.43,0,0,1-3.06,1.24,84,84,0,0,1-16,2.69c-1.71.17-3.38.34-5,.54l-5.85.74c-10.1,1.29-20.54,2.61-30.75,4.27l-1.34.34A37.49,37.49,0,0,1,283.36,317.65Z"/><path class="cls-1" d="M525.94,133.17a27,27,0,0,0,3.36-13.58,24.22,24.22,0,0,0-1.53-8.17,23,23,0,0,0-4.81-7.86,25,25,0,0,0-8.65-5.91,32.92,32.92,0,0,0-13-2.31H474.33v81.27h14.75V144.56h11.58l16.45,32.05h17.3l-18.76-34A23.84,23.84,0,0,0,525.94,133.17Zm-15.47-4.69q-3.23,3.41-9.08,3.41H489.08V108.37h12.31a12.28,12.28,0,0,1,8.89,3.29,11.31,11.31,0,0,1,3.41,8.54A11.63,11.63,0,0,1,510.47,128.48Z"/><polygon class="cls-1" points="561.22 141.64 588.64 141.64 588.64 127.99 561.22 127.99 561.22 108.86 598.51 108.86 598.51 95.34 545.87 95.34 545.87 176.61 601.31 176.61 601.31 162.84 561.22 162.84 561.22 141.64"/><path class="cls-1" d="M676.31,105.2a37.28,37.28,0,0,0-13.65-7.43,59.2,59.2,0,0,0-17.42-2.43H614.89v81.27h30.22a57.35,57.35,0,0,0,17.3-2.49,37.89,37.89,0,0,0,13.71-7.56,34.54,34.54,0,0,0,9-12.55,44.14,44.14,0,0,0,3.23-17.61A48.57,48.57,0,0,0,685.2,118,33.28,33.28,0,0,0,676.31,105.2ZM665,156.27q-7.32,6.71-21.21,6.7H630.25V109h13.52q15,0,21.75,7.42t6.77,20.23Q672.29,149.57,665,156.27Z"/><polygon class="cls-1" points="718.67 141.64 746.09 141.64 746.09 127.99 718.67 127.99 718.67 108.86 755.96 108.86 755.96 95.34 703.32 95.34 703.32 176.61 758.77 176.61 758.77 162.84 718.67 162.84 718.67 141.64"/><path class="cls-1" d="M834.72,126.94a25.83,25.83,0,0,0-9.49-5.17,40.83,40.83,0,0,0-12.13-1.7H792v56.54h21a40,40,0,0,0,12-1.73,26.51,26.51,0,0,0,9.54-5.26,24.25,24.25,0,0,0,6.28-8.73,30.93,30.93,0,0,0,2.24-12.25,34,34,0,0,0-2.2-12.8A23.17,23.17,0,0,0,834.72,126.94Zm-7.88,35.51q-5.08,4.67-14.75,4.67h-9.41V129.56h9.41q10.42,0,15.13,5.18t4.7,14.07Q831.92,157.8,826.84,162.45Z"/><polygon class="cls-1" points="864.39 167.03 864.39 152.28 883.46 152.28 883.46 142.79 864.39 142.79 864.39 129.49 890.33 129.49 890.33 120.07 853.71 120.07 853.71 176.61 892.28 176.61 892.28 167.03 864.39 167.03"/><path class="cls-1" d="M500.38,342.7a35.63,35.63,0,0,0-12.16-9.18c-5.08-2.46-11.58-3.7-19.32-3.7H432.07V440.39h26.21V402.07h11.85a46.22,46.22,0,0,0,13.29-2,36.57,36.57,0,0,0,12.39-6.45,33.64,33.64,0,0,0,9.05-11.37,36.8,36.8,0,0,0,3.49-16.51,42.53,42.53,0,0,0-1.68-11.2A32,32,0,0,0,500.38,342.7Zm-42.1,11h10.31a12,12,0,0,1,9,3.49c2.4,2.35,3.51,5.26,3.51,9.14a11.25,11.25,0,0,1-3.29,8.6c-2.25,2.22-5.17,3.25-9.18,3.25H458.28Z"/><path class="cls-1" d="M579.62,395.23a41,41,0,0,1-1.06,9.69,17.12,17.12,0,0,1-3.08,6.59,13.07,13.07,0,0,1-5.43,4,24.72,24.72,0,0,1-9.24,1.49,24.46,24.46,0,0,1-9.24-1.5,13,13,0,0,1-5.44-4,17.1,17.1,0,0,1-3.08-6.6,40.6,40.6,0,0,1-1-9.68V329.82H515v68.8a49.27,49.27,0,0,0,3,17.39,40,40,0,0,0,9,14.22,42.5,42.5,0,0,0,14.48,9.5,55.64,55.64,0,0,0,38.52,0,42.51,42.51,0,0,0,14.46-9.5,40.09,40.09,0,0,0,9-14.22,49.27,49.27,0,0,0,3-17.39v-68.8h-27Z"/><path class="cls-1" d="M693.3,385.15a28.35,28.35,0,0,0-5.79-4c.7-.58,1.4-1.22,2.1-1.91a29.47,29.47,0,0,0,5.41-7.7,24.57,24.57,0,0,0,2.41-11.1,29.58,29.58,0,0,0-2.49-12.11,28,28,0,0,0-7.3-9.8,34.05,34.05,0,0,0-11.7-6.45,49.7,49.7,0,0,0-15.64-2.28H621.16V440.39H660.3a78.3,78.3,0,0,0,16-1.55,38.18,38.18,0,0,0,13.53-5.5,28,28,0,0,0,9.35-10.5,33.9,33.9,0,0,0,3.36-15.72,29.78,29.78,0,0,0-2.7-13.17A28.08,28.08,0,0,0,693.3,385.15Zm-22.9-19a8,8,0,0,1-2.42,2.63,10.45,10.45,0,0,1-3.71,1.58,22.57,22.57,0,0,1-4.9.53h-12V353.86h12a25.08,25.08,0,0,1,4.85.48,11,11,0,0,1,3.76,1.43,7.19,7.19,0,0,1,2.39,2.45,7.76,7.76,0,0,1,.85,3.94A8.34,8.34,0,0,1,670.4,366.18Zm-23,28.48h12.79a32.13,32.13,0,0,1,5.66.55,16.62,16.62,0,0,1,5.08,1.81,10.62,10.62,0,0,1,3.53,3.32,9.67,9.67,0,0,1,1.29,5.39,9.94,9.94,0,0,1-1.33,5.64,9.68,9.68,0,0,1-3.56,3.14,14.65,14.65,0,0,1-5,1.47,47.12,47.12,0,0,1-5.66.37H647.36Z"/><polygon class="cls-1" points="740.59 329.82 713.61 329.82 713.61 440.39 791.42 440.39 791.42 415.58 740.59 415.58 740.59 329.82"/><rect class="cls-1" x="797.34" y="329.82" width="26.97" height="110.57"/><path class="cls-1" d="M917.26,403.38Q915.33,405.3,913,408a27.89,27.89,0,0,1-4.89,4.26,27.19,27.19,0,0,1-7.07,3.38A33.16,33.16,0,0,1,890.85,417a26,26,0,0,1-11.42-2.42,27.2,27.2,0,0,1-8.77-6.64A30.36,30.36,0,0,1,865,397.86a38.66,38.66,0,0,1-2-12.68A40.69,40.69,0,0,1,865,372.24a31.59,31.59,0,0,1,5.79-10.51,28.51,28.51,0,0,1,9.09-7.1A26.35,26.35,0,0,1,891.78,352c5.82,0,10.66,1.25,14.4,3.7a39.41,39.41,0,0,1,10.49,10.44l2.41,3.48,19.44-17.26-2-2.74A59,59,0,0,0,929,341a47.23,47.23,0,0,0-10-7.14,55.36,55.36,0,0,0-12.35-4.73,60.31,60.31,0,0,0-14.85-1.74,55.49,55.49,0,0,0-52.63,35.76,64.11,64.11,0,0,0,0,45.25,55.15,55.15,0,0,0,11.6,18.14,53.05,53.05,0,0,0,17.79,12.05,58.19,58.19,0,0,0,22.62,4.32,51.9,51.9,0,0,0,15.14-2.18,62.4,62.4,0,0,0,13-5.5,58.83,58.83,0,0,0,10.33-7.36,42.14,42.14,0,0,0,7-8l1.81-2.75-18.72-16.16Z"/><path class="cls-1" d="M1047.54,362.4a57.28,57.28,0,0,0-75.49-30.81A57,57,0,0,0,953.87,344a58.44,58.44,0,0,0-12.14,18.39,59.52,59.52,0,0,0,0,45.26,58.82,58.82,0,0,0,12.21,18.47,57.28,57.28,0,0,0,18.18,12.48,57.86,57.86,0,0,0,45,0,57.23,57.23,0,0,0,18.18-12.48,59.34,59.34,0,0,0,12.21-18.47,59.52,59.52,0,0,0,0-45.26Zm-23.44,22.16a38.28,38.28,0,0,1-2.11,12.67,32.33,32.33,0,0,1-5.93,10.45,28.19,28.19,0,0,1-9.28,7c-7.27,3.46-17.36,3.38-24.35,0a28.29,28.29,0,0,1-9.21-7,32,32,0,0,1-5.94-10.46,39.36,39.36,0,0,1,0-25.4,31.45,31.45,0,0,1,5.93-10.29,28,28,0,0,1,9.2-6.88,31,31,0,0,1,24.41,0,27.74,27.74,0,0,1,9.26,6.86,31.84,31.84,0,0,1,5.93,10.3A38.37,38.37,0,0,1,1024.1,384.56Z"/><path class="cls-1" d="M1135,392.67a33.27,33.27,0,0,0-7.68-10.78,39.33,39.33,0,0,0-10.83-7.09,60.76,60.76,0,0,0-12.4-4,71.7,71.7,0,0,1-10-2.57,19.67,19.67,0,0,1-5.51-2.74,7.44,7.44,0,0,1-2.3-2.65,7.88,7.88,0,0,1-.65-3.35,6.33,6.33,0,0,1,.6-2.41,7.33,7.33,0,0,1,1.91-2.49,11.66,11.66,0,0,1,3.69-2.08c3.29-1.21,8.79-1.1,12.45.18a28.89,28.89,0,0,1,5.4,2.44,22.32,22.32,0,0,1,3.59,2.67c1.25,1.2,2.17,2,2.73,2.47l2.55,2,17.81-16.74-2.34-2.71c-.61-.72-1.66-1.89-3.16-3.57a33.58,33.58,0,0,0-6.89-5.52,46.52,46.52,0,0,0-10.68-4.72,50.74,50.74,0,0,0-15.19-2,49.87,49.87,0,0,0-17.13,2.7,37.57,37.57,0,0,0-12.44,7.32,29.55,29.55,0,0,0-7.59,10.78,33.25,33.25,0,0,0-2.44,12.62,33.65,33.65,0,0,0,1.91,11.19,31.34,31.34,0,0,0,5.77,10.08,35.3,35.3,0,0,0,9.59,7.8,44.07,44.07,0,0,0,13.41,4.73,104,104,0,0,1,11.23,2.83,28.69,28.69,0,0,1,6.75,3.05,7.81,7.81,0,0,1,2.86,3,9.39,9.39,0,0,1,.86,4.14,9.52,9.52,0,0,1-3.24,7.33c-2.2,2.08-5.88,3.14-10.93,3.14a22.94,22.94,0,0,1-7.63-1.18,29.59,29.59,0,0,1-6.31-3.07,39.23,39.23,0,0,1-5.2-4.08,55.38,55.38,0,0,1-4.13-4.27l-2.53-2.95-19,17.52,2.18,2.73a65,65,0,0,0,6.47,6.89,48.85,48.85,0,0,0,9.36,6.78,56.74,56.74,0,0,0,12.07,5.05,53,53,0,0,0,15.06,2,48.46,48.46,0,0,0,16.08-2.6,39.67,39.67,0,0,0,13-7.44,35.39,35.39,0,0,0,8.62-11.23,32,32,0,0,0,3.16-14.16A36.54,36.54,0,0,0,1135,392.67Z"/><polygon class="cls-1" points="578.59 322.99 549.17 333.29 545.87 323.89 575.3 313.59 578.59 322.99"/><polygon class="cls-1" points="558.59 261.58 594.37 261.58 594.37 238.76 558.59 238.76 558.59 218.8 607.25 218.8 607.25 196.14 533.55 196.14 533.55 307.22 610.9 307.22 610.9 284.24 558.59 284.24 558.59 261.58"/><path class="cls-1" d="M691.75,249.37A39.33,39.33,0,0,0,681,242.31a61.15,61.15,0,0,0-12.46-4A76.37,76.37,0,0,1,658,235.64a22,22,0,0,1-6-3,9,9,0,0,1-2.76-3.21,9.41,9.41,0,0,1-.81-4,7.51,7.51,0,0,1,.75-3,8.82,8.82,0,0,1,2.31-3,13.21,13.21,0,0,1,4.21-2.39c3.7-1.36,9.68-1.24,13.74.17a31.86,31.86,0,0,1,5.82,2.64,23.2,23.2,0,0,1,3.93,2.93c1.24,1.19,2.15,2,2.71,2.46l1.69,1.36,16.53-15.54-1.55-1.82c-.65-.75-1.72-2-3.23-3.62a32.45,32.45,0,0,0-6.81-5.45,46.2,46.2,0,0,0-10.67-4.71,50.82,50.82,0,0,0-15.23-2,50,50,0,0,0-17.16,2.7,37,37,0,0,0-12.35,7.27,29.06,29.06,0,0,0-7.47,10.6,32.81,32.81,0,0,0-2.42,12.47,33.39,33.39,0,0,0,1.9,11.08,31.24,31.24,0,0,0,5.69,9.94,35,35,0,0,0,9.5,7.72,44.11,44.11,0,0,0,13.39,4.72,104.17,104.17,0,0,1,11.72,3,30,30,0,0,1,7.27,3.29,9.37,9.37,0,0,1,3.42,3.61,11,11,0,0,1,1,4.87,11.22,11.22,0,0,1-3.76,8.52c-2.52,2.39-6.62,3.61-12.19,3.61a25.13,25.13,0,0,1-8.31-1.29A31.57,31.57,0,0,1,646.1,282a41.93,41.93,0,0,1-5.55-4.35,61,61,0,0,1-4.34-4.49l-1.69-2L616.9,287.44l1.46,1.83a66.73,66.73,0,0,0,6.52,6.93,49.6,49.6,0,0,0,9.38,6.79,57.63,57.63,0,0,0,12.14,5.07,53.05,53.05,0,0,0,15.1,2,48.62,48.62,0,0,0,16.1-2.6,39.48,39.48,0,0,0,12.9-7.4A35.19,35.19,0,0,0,699.06,289a31.64,31.64,0,0,0,3.11-14,36.06,36.06,0,0,0-2.85-15A32.86,32.86,0,0,0,691.75,249.37Z"/><path class="cls-1" d="M792.53,231.72a42.43,42.43,0,0,0-1.68-11.16,31.45,31.45,0,0,0-6.21-11.66,35.45,35.45,0,0,0-12-9.09c-5-2.44-11.54-3.67-19.3-3.67H716.76V307.22H741V267.78h13.56a46.54,46.54,0,0,0,13.28-2,36.56,36.56,0,0,0,12.29-6.41,33.16,33.16,0,0,0,8.94-11.26A36.34,36.34,0,0,0,792.53,231.72ZM741,218h12a13.69,13.69,0,0,1,14.2,14.35,13.06,13.06,0,0,1-3.78,9.83c-2.56,2.52-6,3.73-10.42,3.73H741Z"/><path class="cls-1" d="M826.74,196.14,784.6,307.22H811l9.22-26.88H856.1l9.22,26.88H893L850.87,196.14Zm21.92,62.66H827.52l10.63-31Z"/><path class="cls-1" d="M924.54,226.74a30.47,30.47,0,0,1,9.78-7.65,28.45,28.45,0,0,1,12.87-2.84c6.26,0,11.5,1.36,15.57,4a41.8,41.8,0,0,1,11.17,11.11l1.62,2.31,17.93-15.93L992.16,216a58.94,58.94,0,0,0-7.63-8.71,47.07,47.07,0,0,0-10-7.15,55.26,55.26,0,0,0-12.41-4.75,60.51,60.51,0,0,0-14.94-1.75,55.77,55.77,0,0,0-52.9,35.95,64.67,64.67,0,0,0,0,45.56A55.27,55.27,0,0,0,906,293.34a53.37,53.37,0,0,0,17.84,12.09,58.46,58.46,0,0,0,22.76,4.33,52.57,52.57,0,0,0,15.19-2.17A63,63,0,0,0,974.83,302a58.75,58.75,0,0,0,10.38-7.4,41.21,41.21,0,0,0,7-8l1.2-1.83-17.41-15-1.64,1.65c-1.3,1.31-2.75,2.85-4.32,4.64a29.84,29.84,0,0,1-5.29,4.62,29.11,29.11,0,0,1-7.61,3.64,35.26,35.26,0,0,1-10.9,1.47,28.39,28.39,0,0,1-12.37-2.62,29,29,0,0,1-9.44-7.18,32.07,32.07,0,0,1-6.12-10.79,40.71,40.71,0,0,1-2.18-13.48A43.45,43.45,0,0,1,918.32,238,33.61,33.61,0,0,1,924.54,226.74Z"/><path class="cls-1" d="M1093.88,210.31a57.51,57.51,0,0,0-63.6-12.46A57.46,57.46,0,0,0,1012,210.33a59.09,59.09,0,0,0-12.2,18.51,59.93,59.93,0,0,0,0,45.52A59.61,59.61,0,0,0,1012.07,293a58,58,0,0,0,18.28,12.55,58.14,58.14,0,0,0,45.26,0A57.77,57.77,0,0,0,1093.89,293a59.52,59.52,0,0,0,12.29-18.59,59,59,0,0,0-12.3-64.05Zm-9.21,40.81a41.27,41.27,0,0,1-2.24,13.49,34.39,34.39,0,0,1-6.38,11.2,30.18,30.18,0,0,1-10,7.56c-7.84,3.72-18.65,3.65-26.23,0a30.48,30.48,0,0,1-9.92-7.57,34.54,34.54,0,0,1-6.38-11.2,42,42,0,0,1,0-27.05,33.79,33.79,0,0,1,6.36-11,30.1,30.1,0,0,1,9.91-7.41,33.21,33.21,0,0,1,26.28,0,29.64,29.64,0,0,1,10,7.41,33.83,33.83,0,0,1,6.37,11A40.74,40.74,0,0,1,1084.67,251.12Z"/><path class="cls-1" d="M1196.08,260a33,33,0,0,0-7.58-10.66,39.13,39.13,0,0,0-10.78-7.06,61,61,0,0,0-12.46-4,76.57,76.57,0,0,1-10.46-2.69,21.82,21.82,0,0,1-6.06-3,8.87,8.87,0,0,1-2.76-3.21,9.38,9.38,0,0,1-.81-4,7.51,7.51,0,0,1,.75-3,8.7,8.7,0,0,1,2.31-3,13.32,13.32,0,0,1,4.21-2.39c3.7-1.37,9.66-1.24,13.74.17a31.48,31.48,0,0,1,5.81,2.64,24.15,24.15,0,0,1,3.94,2.93c1.24,1.19,2.15,2,2.71,2.46l1.69,1.36,16.53-15.54-1.56-1.82q-1-1.12-3.22-3.62a32.33,32.33,0,0,0-6.81-5.45,46,46,0,0,0-10.68-4.71,50.75,50.75,0,0,0-15.22-2,49.89,49.89,0,0,0-17.16,2.7,37.29,37.29,0,0,0-12.36,7.27,29.24,29.24,0,0,0-7.46,10.6,32.81,32.81,0,0,0-2.42,12.47,33.39,33.39,0,0,0,1.9,11.08,30.9,30.9,0,0,0,5.7,9.94,34.54,34.54,0,0,0,9.5,7.72,44,44,0,0,0,13.38,4.72,105.31,105.31,0,0,1,11.72,3,30,30,0,0,1,7.27,3.29,9.45,9.45,0,0,1,3.43,3.6,11.76,11.76,0,0,1-2.73,13.4c-2.53,2.39-6.63,3.61-12.2,3.61a25.13,25.13,0,0,1-8.31-1.29,31.12,31.12,0,0,1-6.77-3.31,41,41,0,0,1-5.55-4.35,55.72,55.72,0,0,1-4.34-4.49l-1.69-2-17.62,16.22,1.45,1.83a66.43,66.43,0,0,0,6.53,6.94A48.65,48.65,0,0,0,1131,303a57.76,57.76,0,0,0,12.13,5.07,53.12,53.12,0,0,0,15.11,2,48.62,48.62,0,0,0,16.1-2.6,39.37,39.37,0,0,0,12.9-7.4,35.48,35.48,0,0,0,8.56-11.13,31.68,31.68,0,0,0,3.1-14A36.16,36.16,0,0,0,1196.08,260Z"/><rect class="cls-1" x="925.15" y="313.34" width="31.18" height="9.96" transform="translate(-52.34 328.81) rotate(-19.3)"/></svg>