<?xml version="1.0" encoding="UTF-8" standalone="no"?>
<svg
   xmlns:dc="http://purl.org/dc/elements/1.1/"
   xmlns:cc="http://creativecommons.org/ns#"
   xmlns:rdf="http://www.w3.org/1999/02/22-rdf-syntax-ns#"
   xmlns:svg="http://www.w3.org/2000/svg"
   xmlns="http://www.w3.org/2000/svg"
   xmlns:sodipodi="http://sodipodi.sourceforge.net/DTD/sodipodi-0.dtd"
   xmlns:inkscape="http://www.inkscape.org/namespaces/inkscape"
   version="1.1"
   id="svg2"
   xml:space="preserve"
   width="1685.3199"
   height="704.77332"
   viewBox="0 0 1685.3199 704.77332"
   sodipodi:docname="REP_2018_LOGO_LOGO ORIGINAL.eps"><metadata
     id="metadata8"><rdf:RDF><cc:Work
         rdf:about=""><dc:format>image/svg+xml</dc:format><dc:type
           rdf:resource="http://purl.org/dc/dcmitype/StillImage" /></cc:Work></rdf:RDF></metadata><defs
     id="defs6" /><sodipodi:namedview
     pagecolor="#ffffff"
     bordercolor="#666666"
     borderopacity="1"
     objecttolerance="10"
     gridtolerance="10"
     guidetolerance="10"
     inkscape:pageopacity="0"
     inkscape:pageshadow="2"
     inkscape:window-width="640"
     inkscape:window-height="480"
     id="namedview4" /><g
     id="g10"
     inkscape:groupmode="layer"
     inkscape:label="ink_ext_XXXXXX"
     transform="matrix(1.3333333,0,0,-1.3333333,0,704.77333)"><g
       id="g12"
       transform="scale(0.1)"><path
         d="M 999.77,1596.04 818.832,1681.63 2262.47,4734.29 2443.44,4648.7 999.77,1596.04"
         style="fill:#213362;fill-opacity:1;fill-rule:nonzero;stroke:none"
         id="path14" /><path
         d="m 4632.93,3031.75 -3245.5,1412.07 79.84,183.59 3245.55,-1412.07 -79.89,-183.59"
         style="fill:#213362;fill-opacity:1;fill-rule:nonzero;stroke:none"
         id="path16" /><path
         d="M 4036.29,551.512 752.777,2104.33 838.441,2285.34 4121.96,732.492 4036.29,551.512"
         style="fill:#213362;fill-opacity:1;fill-rule:nonzero;stroke:none"
         id="path18" /><path
         d="M 2984.38,814.441 2803.44,900.109 4186.49,3824.44 4367.43,3738.86 2984.38,814.441"
         style="fill:#213362;fill-opacity:1;fill-rule:nonzero;stroke:none"
         id="path20" /><path
         d="m 2218.33,2212.72 -180.94,85.59 843.4,1783.48 180.93,-85.59 -843.39,-1783.48"
         style="fill:#213362;fill-opacity:1;fill-rule:nonzero;stroke:none"
         id="path22" /><path
         d="m 3340.55,1801.67 -2192.58,1036.91 85.67,181.02 2192.54,-1036.92 -85.63,-181.01"
         style="fill:#213362;fill-opacity:1;fill-rule:nonzero;stroke:none"
         id="path24" /><path
         d="m 2935.71,2109.33 c -30.16,0 -56.64,9.37 -75,38.43 l -10.43,16.57 -3.52,66.4 3.13,11.64 c 19.45,71.76 95.04,68.17 123.86,66.88 7.23,-0.35 14.81,-1.17 21.1,-0.28 18.01,4.73 48.51,23.56 73.05,38.64 8.78,5.39 17.14,10.58 25,15.15 34.68,20.35 69.6,39.1 104.57,57.85 3.9,2.07 7.81,4.18 11.68,6.29 -52.97,-6.01 -107.82,-14.72 -160.86,-23.12 -76.49,-12.15 -155.59,-24.73 -235.04,-30.31 -39.57,-2.78 -78.4,-1.37 -106.68,-0.39 -9.81,0.35 -18.56,0.7 -25.86,0.78 -9.06,-1.29 -18.09,-1.84 -26.64,-1.49 l -4.81,149.65 16.76,1.84 c 4.77,1.29 13.01,3.79 26.02,8.47 72.54,25.98 145.89,50.78 219.29,75.63 38.99,13.2 78.05,26.44 116.96,39.84 -92.82,-10.15 -176.64,-24.33 -259.61,-43.55 -40.24,-6.84 -75.32,-17.11 -108.36,-31.25 l -31.25,-18.75 -34.26,-7.11 -1.45,0.08 c -48.67,-9.5 -81.17,18 -94.21,45.62 l -22.27,47.19 64.61,66.17 17.58,5.74 c 7.89,2.54 18.4,5.04 30.82,7.7 19.65,4.26 41.91,9.1 62.85,19.26 86.41,41.75 184.92,48.9 271.76,55.15 20,1.41 39.76,2.85 59.1,4.65 115.98,10.98 226.83,44.49 340.15,84.77 -16.79,-0.75 -33.59,-1.64 -50.42,-2.66 -127.58,-7.81 -250.51,-29.96 -380.67,-53.44 -63.4,-11.36 -126.87,-22.81 -190.74,-32.5 -6.99,-1.05 -15.16,-3.86 -23.28,-6.29 -31.68,-9.57 -105.78,-32.11 -142.23,32.15 l -10.7,18.83 3.55,77.66 11.33,17.22 c 29.49,44.89 85.9,47.07 145.63,49.46 13.55,0.54 26.64,0.93 37.14,2.14 24.42,2.7 48.44,6.64 72.5,10.59 37,5.98 75.28,12.19 115.55,14.65 195.24,11.83 409.88,48.08 620.82,104.8 22.93,6.18 46.52,12.66 70.39,19.69 -39.96,-2.11 -81.33,-3.59 -124.26,-4.49 -55.62,-1.17 -111.17,-2.07 -166.75,-2.93 -101.33,-1.6 -202.58,-3.24 -303.99,-6.49 -26.21,-0.85 -52.11,-1.01 -79.33,-0.85 -21.92,0.03 -42.93,0.03 -63.75,-0.43 -8.01,-1.37 -16.1,-2.78 -24.18,-4.22 -33.05,-5.71 -66.45,-11.53 -101.25,-15.86 -12.23,-1.53 -26.92,-5.39 -42.58,-9.46 -0.67,-0.19 -1.37,-0.39 -2.03,-0.54 -0.12,-0.04 -0.2,-0.08 -0.32,-0.12 -47.73,-19.65 -101.87,-41.87 -150.11,-11.87 l -10.32,6.36 -130.11,156.25 171.44,-8.9 c 7.27,-0.39 15.2,-1.61 24.14,-3.44 7.62,-1.56 11.29,-2.23 17.39,-1.68 8.51,0.9 19.02,3.36 30.35,6.25 18.94,7.66 39.57,15.62 59.88,20.39 27.07,6.33 54.1,10.35 80.94,12.93 -39.81,4.76 -70.74,11.05 -95.78,21.29 l -16.29,6.64 -104.06,117.93 117.34,35.19 c 37.23,11.57 71.84,20.86 101.99,18.48 13.79,0.86 27.7,-1.52 39.88,-4.8 l 0.16,0.35 1.09,-0.51 1.64,0.27 c 18.68,2.54 36.76,0 54.26,-2.46 13.24,-1.91 26.88,-3.83 38.09,-3.24 1.95,0.98 3.9,2.07 5.9,3.09 9.33,4.84 22.18,11.48 37.77,15.46 l 17.07,2.35 c 20,0.43 40.04,1.68 59.96,3.94 50.2,9.34 102.42,23.21 154.14,37.97 -26.99,2.85 -54.57,7.11 -82.19,13.4 -103.71,23.87 -191.17,52.46 -267.38,87.34 l 62.58,136.53 c 66.76,-30.59 144.8,-55.94 238.44,-77.5 63.98,-14.73 131.99,-15.31 191.95,-15.78 49.96,-0.47 93.13,-0.86 128.09,-9.46 l 11.95,-2.97 115.47,-73.51 -18.36,-55.51 c -6.21,-18.75 -16.91,-33.28 -35.78,-46.29 13.16,0.86 26.33,1.53 39.37,2.23 45.63,2.38 88.71,4.69 131.68,10.58 16.37,2.27 35.47,10.28 53.87,18.01 31.72,13.28 64.57,26.92 101.45,19.26 l 27.38,-5.78 77.34,-101.52 -66.25,-44.42 c -17.22,-11.52 -38.98,-18.12 -66.44,-26.48 -15.78,-4.85 -33.71,-10.28 -44.96,-15.24 -32.23,-14.25 -62.35,-26.79 -92.58,-37.73 57.18,5.19 111.13,11.99 162.58,20.47 10.27,1.64 28.39,9.57 42.96,15.9 32.7,14.29 66.64,29.1 103.17,19.76 l 21.13,-5.31 66.13,-69.65 -20.23,-45.78 c -12.66,-28.59 -37.7,-45.43 -64.18,-63.28 -6.13,-4.1 -12.58,-8.48 -18.91,-13.05 -5.04,-3.55 -10.04,-7.11 -15.07,-10.51 l 66.4,-61.05 -48.01,-86.92 -21.13,-10.43 c -6.6,-3.2 -13.48,-5.7 -20.86,-7.69 l -1.95,-1.37 c -25.08,-20.23 -67.77,-45.58 -107.89,-63.86 -8.52,-3.52 -17.03,-6.96 -25.51,-10.36 l 21.88,-106.91 -35.32,-28.71 c -21.33,-17.31 -49.53,-25.94 -97.61,-39.61 -16.25,-4.65 -32.7,-9.22 -46.06,-14.02 -117.26,-42 -234.73,-82.7 -352.3,-123.25 67.34,6.41 135.89,14.11 162.65,27.23 l 12.15,5.98 311.25,30.86 -225.08,-162.93 c -9.22,-6.64 -20.35,-15.32 -33.16,-25.2 -37.81,-29.02 -89.45,-68.87 -148.56,-104.84 -22.3,-13.52 -44.68,-26.29 -66.87,-38.6 l 58.16,7.43 c 17.46,2.18 35.51,4.06 53.83,5.89 45.55,4.61 92.66,9.42 130.74,21.02 3.52,1.09 6.96,3.01 10.47,4.65 18.09,8.51 48.44,22.77 86.68,16.33 l -24.92,-148.05 c 7.07,-1.17 12.19,0.35 12.27,0.35 -3.36,-1.09 -6.57,-2.85 -9.89,-4.41 -9.92,-4.69 -20.08,-9.18 -30.58,-12.46 -52.31,-15.94 -106.88,-21.45 -159.61,-26.84 -17.07,-1.72 -33.83,-3.44 -49.96,-5.47 l -58.52,-7.42 c -100.98,-12.81 -205.39,-26.02 -307.5,-42.66 -1.91,-0.43 -7.11,-1.83 -13.4,-3.43 -30.78,-8.09 -62.07,-16.25 -90.23,-16.25"
         style="fill:#2ea948;fill-opacity:1;fill-rule:nonzero;stroke:none"
         id="path26" /><path
         d="m 5206.8,4001.01 c -21.48,-22.74 -51.8,-34.15 -90.78,-34.15 h -123.05 v 235.24 h 123.05 c 36.52,0 66.21,-11.02 88.95,-32.97 22.77,-21.87 34.1,-50.35 34.1,-85.27 0,-32.46 -10.74,-60.12 -32.27,-82.85 z m 154.77,-46.96 c 22.34,39.42 33.51,84.73 33.51,135.9 0,26.02 -5.08,53.2 -15.23,81.64 -10.16,28.44 -26.21,54.65 -48.09,78.59 -21.99,23.95 -50.86,43.64 -86.52,59.11 -35.78,15.42 -79.26,23.16 -130.43,23.16 h -269.34 v -812.77 h 147.5 v 320.5 h 115.75 l 164.49,-320.5 h 173.01 l -187.58,339.96 c 46.29,23.55 80.54,55.04 102.93,94.41"
         style="fill:#213263;fill-opacity:1;fill-rule:nonzero;stroke:none"
         id="path28" /><path
         d="m 5714.34,3869.4 h 274.18 v 136.49 h -274.18 v 191.33 h 372.89 v 135.23 h -526.44 v -812.77 h 554.45 v 137.69 h -400.9 v 212.03"
         style="fill:#213263;fill-opacity:1;fill-rule:nonzero;stroke:none"
         id="path30" /><path
         d="m 6751.88,3723.15 c -48.79,-44.68 -119.41,-67.03 -212.03,-67.03 h -135.27 v 539.85 h 135.27 c 99.88,0 172.42,-24.77 217.5,-74.34 45.08,-49.57 67.65,-116.99 67.65,-202.27 0,-86.13 -24.37,-151.52 -73.12,-196.21 z m 113.32,510.63 c -38.2,33.28 -83.71,58.04 -136.48,74.29 -52.82,16.25 -110.86,24.38 -174.22,24.38 h -303.44 v -812.77 h 302.19 c 62.54,0 120.23,8.28 173,24.96 52.82,16.68 98.56,41.83 137.11,75.58 38.6,33.68 68.64,75.55 90.2,125.51 21.52,49.96 32.27,108.63 32.27,176.06 0,70.7 -10.55,131.99 -31.68,184.02 -21.1,51.99 -50.75,94.61 -88.95,127.97"
         style="fill:#213263;fill-opacity:1;fill-rule:nonzero;stroke:none"
         id="path32" /><path
         d="m 7288.87,3869.4 h 274.18 v 136.49 h -274.18 v 191.33 h 372.89 v 135.23 h -526.4 v -812.77 h 554.45 v 137.69 h -400.94 v 212.03"
         style="fill:#213263;fill-opacity:1;fill-rule:nonzero;stroke:none"
         id="path34" /><path
         d="m 8370.51,3661.24 c -33.9,-31.09 -83.08,-46.6 -147.5,-46.6 h -94.1 v 375.51 h 94.1 c 69.49,0 119.92,-17.27 151.33,-51.72 31.29,-34.46 47.03,-81.41 47.03,-140.75 0,-59.88 -17.03,-105.39 -50.86,-136.44 z m 78.79,355.19 c -26.56,23.17 -58.24,40.4 -94.92,51.72 -36.76,11.29 -77.11,16.92 -121.21,16.92 h -211.06 v -565.39 h 210.24 c 43.44,0 83.63,5.82 120.27,17.38 36.76,11.6 68.56,29.1 95.43,52.54 26.8,23.48 47.7,52.54 62.74,87.3 14.96,34.77 22.42,75.59 22.42,122.5 0,49.18 -7.35,91.84 -21.99,128.01 -14.69,36.13 -35.32,65.82 -61.92,89.02"
         style="fill:#213263;fill-opacity:1;fill-rule:nonzero;stroke:none"
         id="path36" /><path
         d="m 8746.02,3615.46 v 147.5 h 190.74 v 94.96 h -190.74 v 133.05 h 259.38 v 94.1 h -366.22 v -565.39 h 385.75 v 95.78 h -278.91"
         style="fill:#213263;fill-opacity:1;fill-rule:nonzero;stroke:none"
         id="path38" /><path
         d="m 4684.97,1748.74 h 103.04 c 36.96,0 65.43,-11.09 89.57,-34.81 24.03,-23.55 35.16,-52.65 35.16,-91.44 0,-36.72 -10.47,-64.02 -32.89,-86.02 -22.54,-22.18 -51.72,-32.5 -91.84,-32.5 h -103.04 z m 420.93,110.08 c -30.04,36.44 -70.97,67.34 -121.56,91.79 -50.82,24.54 -115.78,37 -193.2,37 H 4422.86 V 881.859 h 262.11 v 383.211 h 118.47 c 43.6,0 88.32,6.79 132.89,20.15 45.67,13.68 87.31,35.43 123.87,64.57 37.07,29.54 67.54,67.82 90.55,113.75 23.12,46.33 34.84,101.88 34.84,165.08 0,34.1 -5.66,71.76 -16.8,112.03 -11.68,42.07 -32.85,81.84 -62.89,118.17"
         style="fill:#213263;fill-opacity:1;fill-rule:nonzero;stroke:none"
         id="path40" /><path
         d="m 5898.29,1333.51 c 0,-35.71 -3.6,-68.33 -10.59,-96.92 -6.37,-26.01 -16.76,-48.2 -30.82,-65.98 -13.4,-16.99 -31.68,-30.27 -54.3,-39.57 -24.18,-9.92 -55.23,-14.96 -92.38,-14.96 -37.15,0 -68.2,5.04 -92.38,15 -22.66,9.26 -40.94,22.54 -54.38,39.57 -14.02,17.74 -24.37,39.93 -30.78,65.98 -6.99,28.32 -10.51,60.9 -10.51,96.88 v 654.1 h -269.8 v -688.05 c 0,-61.91 10.19,-120.39 30.23,-173.95 20.32,-54.25 50.75,-102.1 90.28,-142.141 39.49,-40.117 88.16,-72.067 144.72,-94.957 56.21,-22.903 120.98,-34.461 192.62,-34.461 71.48,0 136.33,11.558 192.62,34.461 56.52,22.918 105.15,54.879 144.65,94.918 39.57,40.04 70,87.89 90.39,142.26 20.04,53.48 30.19,111.96 30.19,173.87 v 688.05 h -269.76 v -654.1"
         style="fill:#213263;fill-opacity:1;fill-rule:nonzero;stroke:none"
         id="path42" /><path
         d="m 6575.75,1339.25 h 127.85 c 17.11,0 36.17,-1.88 56.6,-5.55 18.32,-3.36 35.43,-9.45 50.78,-18.12 13.83,-7.86 25.74,-19.07 35.35,-33.21 8.48,-12.65 12.85,-30.78 12.85,-53.9 0,-24.57 -4.6,-44.14 -13.24,-56.45 -9.69,-13.79 -21.68,-24.3 -35.58,-31.29 -15.63,-7.81 -32.43,-12.81 -50.16,-14.8 -20.43,-2.39 -39.49,-3.64 -56.6,-3.64 h -127.85 z m 230.39,284.72 c -5.98,-10.39 -14.06,-19.25 -24.18,-26.25 -10.98,-7.46 -23.44,-12.85 -37.15,-15.86 -15.7,-3.51 -32.19,-5.27 -48.95,-5.27 h -120.11 v 170.59 h 120.11 c 15.98,0 32.27,-1.57 48.44,-4.77 13.95,-2.65 26.6,-7.5 37.58,-14.3 9.8,-6.05 17.85,-14.33 23.98,-24.53 5.59,-9.41 8.48,-22.65 8.48,-39.41 0,-16.76 -2.81,-30.66 -8.2,-40.2 z m 228.94,-189.64 c -18.32,16.17 -37.73,29.45 -57.89,39.72 7.03,5.82 14.06,12.23 21.02,19.14 20.82,20.86 39.02,46.76 54.14,76.96 15.98,31.99 24.1,69.37 24.1,111.05 0,43.24 -8.4,83.95 -24.92,121.06 -16.56,37.34 -41.13,70.35 -73.01,98.04 -31.37,27.38 -70.74,49.03 -117.03,64.49 -45.39,15.16 -98.01,22.82 -156.41,22.82 H 6313.72 V 881.859 h 391.36 c 57.03,0 110.78,5.243 159.92,15.512 51.53,10.738 97.04,29.258 135.28,54.961 39.65,26.598 71.13,61.998 93.51,105.038 22.31,42.85 33.6,95.74 33.6,157.19 0,50.9 -9.1,95.2 -26.99,131.68 -17.58,35.78 -39.54,65.39 -65.32,88.09"
         style="fill:#213263;fill-opacity:1;fill-rule:nonzero;stroke:none"
         id="path44" /><path
         d="M 7507.97,1987.61 H 7238.25 V 881.859 h 778.12 v 248.171 h -508.4 v 857.58"
         style="fill:#213263;fill-opacity:1;fill-rule:nonzero;stroke:none"
         id="path46" /><path
         d="m 8075.55,881.859 h 269.73 V 1987.61 H 8075.55 V 881.859"
         style="fill:#213263;fill-opacity:1;fill-rule:nonzero;stroke:none"
         id="path48" /><path
         d="m 9274.77,1251.98 c -12.97,-12.85 -27.15,-28.16 -42.69,-45.86 -12.97,-14.76 -29.42,-29.06 -48.87,-42.65 -19.22,-13.36 -42.97,-24.69 -70.67,-33.79 -27.42,-8.99 -61.71,-13.6 -101.87,-13.6 -42.54,0 -80.94,8.13 -114.26,24.14 -33.87,16.25 -63.32,38.64 -87.66,66.49 -24.49,28.2 -43.67,61.99 -56.95,100.47 -13.51,38.94 -20.35,81.64 -20.35,126.79 0,45.2 6.91,88.83 20.47,129.5 13.4,40.15 32.93,75.54 57.93,105.04 25,29.49 55.58,53.39 90.86,71.05 34.76,17.34 74.84,26.13 119.26,26.13 58.16,0 106.6,-12.46 143.94,-37.03 39.53,-26.13 74.88,-61.25 104.88,-104.37 l 24.11,-34.77 194.45,172.58 -19.61,27.46 c -21.99,30.74 -47.5,59.88 -75.9,86.6 -29.02,27.38 -62.66,51.37 -99.96,71.41 -37.11,19.96 -78.67,35.9 -123.48,47.34 -45.11,11.52 -95.07,17.38 -148.43,17.38 -83.21,0 -160.59,-15.62 -230.04,-46.48 -69.07,-30.7 -129.53,-73.09 -179.69,-125.9 -50.12,-52.97 -89.38,-115.27 -116.6,-185.23 -27.31,-69.85 -41.21,-145.67 -41.21,-225.35 0,-81.8 13.9,-158.25 41.29,-227.11 27.42,-69.14 66.44,-130.2 116.01,-181.45 49.73,-51.372 109.61,-91.95 177.89,-120.551 68.24,-28.59 144.34,-43.078 226.17,-43.078 52.89,0 103.83,7.257 151.45,21.679 46.87,14.18 90.55,32.692 129.8,55.11 39.5,22.472 74.22,47.269 103.25,73.56 29.68,26.91 53.32,53.83 70.27,79.88 l 18.09,27.46 -187.27,161.68 -24.61,-24.53"
         style="fill:#213263;fill-opacity:1;fill-rule:nonzero;stroke:none"
         id="path50" /><path
         d="m 10343.1,1440.18 c 0,-43.98 -7.1,-86.64 -21.1,-126.75 -13.8,-39.5 -33.8,-74.69 -59.3,-104.46 -25.4,-29.41 -56.6,-53.04 -92.8,-70.19 -72.6,-34.61 -173.57,-33.79 -243.45,-0.12 -35.9,17.27 -66.87,40.9 -92.15,70.27 -25.55,29.65 -45.55,64.81 -59.37,104.5 -13.99,40.11 -21.1,82.77 -21.1,126.75 0,44.81 7.11,87.7 21.02,127.35 13.79,39.06 33.75,73.67 59.26,102.85 25.27,28.83 56.21,51.99 91.99,68.79 35.51,16.56 76.6,25 122.4,25 44.7,0 85.6,-8.44 121.7,-25.08 36.2,-16.76 67.4,-39.92 92.6,-68.63 25.6,-29.42 45.6,-64.06 59.3,-102.93 13.9,-39.65 21,-82.54 21,-127.35 z m 234.4,221.65 c -29.5,69.96 -70.7,131.87 -122.3,184.02 -51.4,52.07 -112.5,93.75 -181.6,123.91 -138.5,60.54 -311.13,60.58 -451.02,0.07 -69.53,-30.15 -130.7,-71.91 -181.79,-124.1 -51.14,-52.22 -91.96,-114.1 -121.37,-183.9 -29.65,-70.2 -44.69,-146.33 -44.69,-226.29 0,-80.04 15.04,-156.18 44.69,-226.33 29.45,-70 70.58,-132.11 122.15,-184.73 51.56,-52.73 112.73,-94.718 181.72,-124.761 69.41,-30.321 145.19,-45.668 225.21,-45.668 80,0 155.7,15.347 225.1,45.668 69,30 130.1,71.992 181.8,124.761 51.4,52.62 92.5,114.73 122.1,184.77 29.7,70.39 44.7,146.52 44.7,226.29 0,79.72 -15,155.82 -44.7,226.29"
         style="fill:#213263;fill-opacity:1;fill-rule:nonzero;stroke:none"
         id="path52" /><path
         d="m 11451.9,1359.05 c -19,41.92 -44.7,78.21 -76.7,107.85 -31.3,28.99 -67.8,52.86 -108.4,70.94 -39.5,17.5 -81.1,30.78 -123.9,39.61 -40.2,7.81 -73.9,16.45 -99.9,25.59 -23.8,8.39 -42.4,17.61 -55.1,27.46 -11.1,8.59 -18.8,17.46 -22.9,26.44 -4.4,9.22 -6.6,20.51 -6.6,33.52 0,6.8 2.1,15.19 6.1,24.14 3.9,8.94 10.3,17.3 19,24.88 9.4,8.28 21.8,15.28 36.9,20.82 32.9,12.15 87.9,10.98 124.5,-1.79 21.2,-7.35 39.3,-15.59 54,-24.46 14.5,-8.79 26.5,-17.73 35.9,-26.68 12.5,-11.95 21.7,-20.19 27.4,-24.69 l 25.4,-20.15 178.1,167.34 -23.4,27.15 c -6.1,7.23 -16.6,18.87 -31.6,35.63 -16.8,18.47 -40,37.03 -68.9,55.23 -28.8,18.09 -64.7,33.98 -106.8,47.23 -42.6,13.47 -93.7,20.31 -151.8,20.31 -65,0 -122.6,-9.1 -171.4,-27.03 -49.3,-18.13 -91.1,-42.78 -124.4,-73.21 -34,-31.09 -59.5,-67.42 -75.9,-107.85 -16.2,-39.68 -24.4,-82.11 -24.4,-126.13 0,-38.4 6.5,-76.13 19.1,-111.91 12.7,-36.72 32.2,-70.67 57.8,-100.86 25.4,-30.08 57.6,-56.25 95.8,-77.93 37.9,-21.49 83,-37.46 134.1,-47.39 44.5,-8.9 82.2,-18.39 112.3,-28.28 28,-9.18 50.8,-19.37 67.5,-30.43 13.8,-9.06 23.4,-19.06 28.6,-29.92 5.8,-11.68 8.6,-25.66 8.6,-41.44 0,-29.11 -10.2,-52.31 -32.3,-73.25 -22,-20.82 -58.8,-31.4 -109.4,-31.4 -28.5,0 -54.2,3.94 -76.3,11.76 -23.3,8.2 -44.5,18.59 -63.1,30.74 -19,12.58 -36.6,26.29 -52,40.82 -15.9,14.88 -29.7,29.22 -41.2,42.69 l -25.3,29.42 -190.4,-175.16 21.8,-27.34 c 17.8,-22.15 39.6,-45.31 64.8,-68.828 26.3,-24.691 57.7,-47.543 93.6,-67.812 35.9,-20.43 76.5,-37.461 120.7,-50.508 44.7,-13.32 95.3,-20.121 150.5,-20.121 57.4,0 111.5,8.75 160.8,26.058 49.4,17.461 93.2,42.422 129.8,74.371 36.5,31.989 65.5,69.77 86.2,112.31 20.9,42.97 31.6,90.54 31.6,141.6 0,57.73 -9.7,108.4 -28.8,150.66"
         style="fill:#213263;fill-opacity:1;fill-rule:nonzero;stroke:none"
         id="path54" /><path
         d="m 5888.01,2055.89 -294.22,-103.01 -33,94.02 294.33,103.05 32.89,-94.06"
         style="fill:#213263;fill-opacity:1;fill-rule:nonzero;stroke:none"
         id="path56" /><path
         d="m 5687.97,2670.03 h 357.82 v 228.2 h -357.82 v 199.61 h 486.64 V 3324.4 H 5437.58 V 2213.62 h 773.6 v 229.77 h -523.21 v 226.64"
         style="fill:#213263;fill-opacity:1;fill-rule:nonzero;stroke:none"
         id="path58" /><path
         d="m 7019.61,2792.14 c -31.09,28.83 -67.38,52.54 -107.85,70.54 -39.68,17.58 -81.52,30.98 -124.65,39.85 -41.99,8.16 -77.22,17.19 -104.64,26.87 -25.9,9.11 -46.29,19.34 -60.51,30.36 -13.21,10.23 -22.5,21.01 -27.66,32.1 -5.35,11.49 -8.05,25.04 -8.05,40.36 0,9.06 2.5,19.29 7.47,30.39 4.92,11.09 12.46,21.01 23.12,30.39 10.74,9.49 24.92,17.54 42.11,23.86 36.95,13.64 96.76,12.43 137.38,-1.71 22.7,-7.93 42.27,-16.8 58.17,-26.41 15.82,-9.61 29.06,-19.45 39.33,-29.26 12.35,-11.87 21.45,-20.04 27.07,-24.53 l 16.96,-13.59 165.27,155.35 -15.55,18.12 c -6.44,7.5 -17.18,19.61 -32.26,36.25 -16.33,18.05 -39.18,36.37 -68.05,54.53 -28.83,18.09 -64.77,33.91 -106.72,47.15 -42.54,13.44 -93.83,20.28 -152.34,20.28 -65.08,0 -122.81,-9.07 -171.6,-26.96 -48.95,-18 -90.47,-42.46 -123.52,-72.61 -33.4,-30.47 -58.48,-66.18 -74.69,-106.06 -16.05,-39.41 -24.18,-81.4 -24.18,-124.73 0,-37.57 6.37,-74.84 18.99,-110.82 12.62,-36.17 31.76,-69.6 56.95,-99.33 25.12,-29.73 57.07,-55.74 95,-77.23 37.7,-21.37 82.77,-37.3 133.87,-47.26 46.37,-9.3 85.82,-19.22 117.19,-29.5 30.11,-9.88 54.61,-20.89 72.73,-32.89 16.29,-10.7 27.77,-22.89 34.22,-36.13 6.8,-13.98 10.23,-30.39 10.23,-48.71 0,-33.44 -12.26,-61.29 -37.54,-85.2 -25.27,-23.9 -66.28,-36.09 -121.91,-36.09 -30.94,0 -58.91,4.38 -83.09,12.85 -25.03,8.87 -47.81,20 -67.77,33.09 -20.62,13.67 -39.3,28.28 -55.47,43.51 -16.72,15.71 -31.33,30.86 -43.4,44.93 l -16.87,19.76 -176.25,-162.26 14.65,-18.29 c 17.69,-22.1 39.68,-45.5 65.19,-69.33 26.33,-24.65 57.85,-47.46 93.79,-67.89 35.86,-20.43 76.68,-37.54 121.37,-50.74 45,-13.36 95.86,-20.16 151.01,-20.16 57.74,0 111.92,8.79 160.98,26.05 49.38,17.43 92.81,42.31 129.06,73.95 36.25,31.76 65.04,69.18 85.59,111.29 20.66,42.54 31.13,89.57 31.13,139.76 0,57.31 -9.57,107.62 -28.55,149.46 -18.79,41.6 -44.3,77.46 -75.71,106.64"
         style="fill:#213263;fill-opacity:1;fill-rule:nonzero;stroke:none"
         id="path60" /><path
         d="m 7512.19,3105.81 h 119.65 c 41.25,0 74.53,-13.01 101.76,-39.73 27.07,-26.64 40.23,-60.58 40.23,-103.82 0,-41.14 -12.38,-73.29 -37.85,-98.25 -25.55,-25.15 -59.61,-37.34 -104.14,-37.34 h -119.65 z m 515.24,-137.19 c 0,33.79 -5.67,71.37 -16.8,111.64 -11.52,41.41 -32.38,80.59 -62.11,116.57 -29.77,36.01 -70.27,66.64 -120.47,90.93 -50.47,24.34 -115.39,36.64 -193.01,36.64 H 7269.73 V 2213.62 h 242.46 V 2608 h 135.59 c 43.59,0 88.28,6.79 132.81,20.15 45.16,13.56 86.56,35.08 122.93,64.07 36.6,29.18 66.72,67.07 89.45,112.54 22.86,45.7 34.46,100.85 34.46,163.86"
         style="fill:#213263;fill-opacity:1;fill-rule:nonzero;stroke:none"
         id="path62" /><path
         d="m 8588.75,2697.84 h -211.44 l 106.29,309.49 z M 8369.5,3324.4 7948.13,2213.62 h 264.1 l 92.19,268.75 h 358.71 l 92.19,-268.75 h 276.83 L 8610.79,3324.4 H 8369.5"
         style="fill:#213263;fill-opacity:1;fill-rule:nonzero;stroke:none"
         id="path64" /><path
         d="m 9347.5,3018.47 c 26.8,31.68 59.73,57.38 97.86,76.44 37.65,18.83 80.93,28.36 128.71,28.36 62.58,0 114.92,-13.59 155.62,-40.39 42.11,-27.77 79.69,-65.16 111.76,-111.09 l 16.13,-23.09 179.32,159.26 -13.1,18.32 c -22.1,30.9 -47.78,60.23 -76.33,87.19 -29.11,27.34 -62.74,51.36 -99.93,71.4 -37.11,19.92 -78.82,35.94 -124.14,47.5 -45.39,11.6 -95.62,17.5 -149.33,17.5 -83.67,0 -161.53,-15.74 -231.21,-46.68 -69.61,-30.97 -130.36,-73.55 -180.51,-126.48 -50.27,-52.97 -89.77,-115.63 -117.35,-186.29 -27.46,-70.35 -41.36,-146.72 -41.36,-226.95 0,-82.43 13.9,-159.38 41.44,-228.71 27.58,-69.5 66.8,-130.83 116.64,-182.31 49.89,-51.56 109.93,-92.23 178.4,-120.98 68.6,-28.75 145.12,-43.28 227.58,-43.28 53.05,0 104.18,7.31 151.91,21.72 47.07,14.18 91.1,32.85 130.86,55.51 39.57,22.54 74.5,47.38 103.79,73.94 29.77,27.04 53.34,53.83 70.04,79.69 l 12,18.28 -174.03,150.39 -16.44,-16.52 c -13.05,-13.05 -27.5,-28.55 -43.21,-46.44 -14.06,-15.98 -31.87,-31.49 -52.85,-46.14 -20.7,-14.41 -46.33,-26.72 -76.13,-36.44 -29.73,-9.73 -66.37,-14.69 -109.06,-14.69 -45.79,0 -87.35,8.79 -123.64,26.17 -36.36,17.42 -68.16,41.56 -94.45,71.8 -26.41,30.23 -46.99,66.52 -61.21,107.89 -14.42,41.44 -21.72,86.83 -21.72,134.88 0,48.17 7.34,94.45 21.8,137.62 14.29,42.97 35.19,80.86 62.14,112.62"
         style="fill:#213263;fill-opacity:1;fill-rule:nonzero;stroke:none"
         id="path66" /><path
         d="m 10948.8,2774.6 c 0,-46.64 -7.5,-91.99 -22.4,-134.88 -14.9,-42.5 -36.3,-80.16 -63.8,-111.96 -27.3,-31.72 -61,-57.15 -99.9,-75.66 -78.4,-37.27 -186.4,-36.49 -262.3,-0.08 -38.5,18.56 -71.9,44.02 -99.2,75.66 -27.6,32.08 -49,69.77 -63.7,112.04 -14.9,42.65 -22.5,88 -22.5,134.88 0,47.85 7.6,93.51 22.5,135.58 14.7,41.65 36,78.79 63.5,110.32 27.3,31.09 60.7,56.09 99.2,74.14 38.3,17.97 82.7,27.07 131.7,27.07 48,0 92.1,-9.14 131,-27.07 39,-18.05 72.6,-42.97 99.8,-74.14 27.5,-31.33 48.9,-68.4 63.7,-110.28 14.9,-42.34 22.4,-88 22.4,-135.62 z m 92.1,408.05 c -51.9,52.34 -113.3,94.29 -182.7,124.61 -139.6,60.74 -313,60.74 -453.3,0 -69.9,-30.28 -131.4,-72.27 -182.9,-124.77 -51.2,-52.31 -92.3,-114.57 -122,-185.08 -29.8,-70.55 -44.8,-147.11 -44.8,-227.62 0,-80.5 15,-157.03 44.8,-227.57 29.7,-70.43 71.1,-132.97 122.8,-185.9 51.9,-52.93 113.4,-95.16 182.8,-125.51 69.7,-30.35 145.9,-45.82 226.3,-45.82 80.4,0 156.5,15.47 226.3,45.86 69.4,30.27 130.9,72.5 182.8,125.47 51.8,52.85 93.1,115.43 122.9,185.9 29.8,70.54 44.9,147.07 44.9,227.57 0,80.51 -15.1,157.07 -44.9,227.62 -29.8,70.59 -71.2,132.85 -123,185.24"
         style="fill:#213263;fill-opacity:1;fill-rule:nonzero;stroke:none"
         id="path68" /><path
         d="m 12063,2685.5 c -18.9,41.52 -44.4,77.42 -75.8,106.64 -31.1,28.83 -67.4,52.54 -107.9,70.54 -39.6,17.54 -81.4,30.98 -124.6,39.85 -41.9,8.16 -77.1,17.19 -104.6,26.87 -25.9,9.11 -46.3,19.3 -60.6,30.39 -13.2,10.2 -22.5,20.94 -27.6,32.11 -5.3,11.37 -8,24.96 -8,40.32 0,9.06 2.5,19.29 7.4,30.39 5,11.09 12.5,21.01 23.1,30.39 10.8,9.49 25,17.54 42.2,23.86 36.9,13.68 96.6,12.47 137.3,-1.71 22.9,-7.97 42.4,-16.88 58.1,-26.41 15.7,-9.57 29.1,-19.45 39.5,-29.26 12.3,-11.87 21.4,-20.04 27,-24.53 l 17,-13.59 165.2,155.35 -15.5,18.12 c -6.5,7.5 -17.2,19.61 -32.3,36.25 -16.3,18.17 -39.3,36.49 -68.1,54.53 -28.6,17.97 -64.6,33.87 -106.7,47.15 -42.5,13.44 -93.8,20.28 -152.3,20.28 -65.2,0 -122.9,-9.07 -171.6,-26.96 -48.9,-18 -90.5,-42.46 -123.6,-72.65 -33.3,-30.51 -58.4,-66.17 -74.6,-106.02 -16,-39.41 -24.2,-81.4 -24.2,-124.73 0,-37.57 6.4,-74.84 19,-110.82 12.6,-36.17 31.7,-69.6 57,-99.33 25,-29.73 57,-55.74 95,-77.23 37.7,-21.37 82.8,-37.3 133.8,-47.26 46.4,-9.3 85.7,-19.18 117.2,-29.5 30,-9.8 54.5,-20.89 72.7,-32.89 16.4,-10.74 27.9,-22.89 34.3,-36.01 6.8,-14.18 10.2,-30.63 10.2,-48.83 0,-33.4 -12.2,-61.25 -37.5,-85.2 -25.3,-23.9 -66.3,-36.09 -121.9,-36.09 -31,0 -58.9,4.38 -83.2,12.85 -25.1,8.91 -47.8,20.04 -67.7,33.09 -20.6,13.59 -39.3,28.2 -55.5,43.51 -16.6,15.55 -31.2,30.67 -43.4,44.93 l -16.8,19.76 -176.3,-162.19 14.5,-18.24 c 17.5,-21.83 39.4,-45.23 65.4,-69.45 26.1,-24.53 57.7,-47.42 93.7,-67.89 35.9,-20.43 76.7,-37.54 121.3,-50.74 45.1,-13.36 95.9,-20.16 151.1,-20.16 57.7,0 111.9,8.79 161,26.05 49.4,17.43 92.8,42.31 129,73.95 36.2,31.68 65,69.14 85.6,111.29 20.6,42.42 31.1,89.41 31.1,139.76 0,57.47 -9.6,107.74 -28.4,149.46"
         style="fill:#213263;fill-opacity:1;fill-rule:nonzero;stroke:none"
         id="path70" /><path
         d="m 9673.09,2107.02 -294.26,-103.05 -32.85,94.07 294.26,103.04 32.85,-94.06"
         style="fill:#213263;fill-opacity:1;fill-rule:nonzero;stroke:none"
         id="path72" /></g></g></svg>
